<svg xmlns="http://www.w3.org/2000/svg" viewBox="0 0 500 500"><g id="freepik--Floor--inject-27"><g id="freepik--floor--inject-27"><path id="freepik--floor--inject-27" d="M404.59,244.31a280.29,280.29,0,0,0-54.9-23.89l-334,192.86C26.53,424.64,40.33,435.33,57,445c96,55.41,251.59,55.41,347.57,0S500.57,299.72,404.59,244.31Z" style="fill:#fafafa"></path><rect x="-10.2" y="316.35" width="385.73" height="1" transform="translate(-134.02 133.9) rotate(-30.02)" style="fill:#e0e0e0"></rect></g></g><g id="freepik--Plants--inject-27"><g id="freepik--plants--inject-27"><path d="M437.83,361.25l13.73,7.93c-.19-4.9-.61-12.19.06-17.09,4.15-30,15.83-39.88,21.39-54.48,5.85-15.38-1.29-20.32-10.56-17.56-8.26,2.47-20.22,14.7-24,37.08C436,332,436.4,348.2,437.83,361.25Z" style="fill:#ED7D31"></path><path d="M437.83,361.25l13.73,7.93c-.19-4.9-.61-12.19.06-17.09,4.15-30,15.83-39.88,21.39-54.48,5.85-15.38-1.29-20.32-10.56-17.56-8.26,2.47-20.22,14.7-24,37.08C436,332,436.4,348.2,437.83,361.25Z" style="fill:#fff;opacity:0.65"></path><path d="M445.11,365.45l1.37.8c-4.91-35,7-65.3,18.85-77.83a.59.59,0,0,0,0-.84.61.61,0,0,0-.86,0C452.66,300.13,440.71,330.66,445.11,365.45Z" style="fill:#fff"></path><path d="M447.7,367l7.72,4.46h0c4.1-12.09,8.32-16.93,13.56-24.88,4.77-7.24,10.31-11.72,13.26-16.8,2.61-4.51,4.57-10.17.69-13.59-6.17-5.45-14.23.32-19.77,6.55C458.39,328.08,448.76,342.42,447.7,367Z" style="fill:#ED7D31"></path><path d="M447.7,367l7.72,4.46h0c4.1-12.09,8.32-16.93,13.56-24.88,4.77-7.24,10.31-11.72,13.26-16.8,2.61-4.51,4.57-10.17.69-13.59-6.17-5.45-14.23.32-19.77,6.55C458.39,328.08,448.76,342.42,447.7,367Z" style="fill:#fff;opacity:0.30000000000000004"></path><path d="M450.87,368.78l1.12.65c3.24-19.12,16.23-41.24,24.3-46.46a.62.62,0,0,0,.18-.86.6.6,0,0,0-.85-.18C467.27,327.35,454.31,349.36,450.87,368.78Z" style="fill:#fff"></path></g></g><g id="freepik--Shadows--inject-27"><path id="freepik--Shadow--inject-27" d="M373.89,409.4l-70,40.44a9.57,9.57,0,0,1-8.66,0L213,402.37c-2.4-1.38-2.4-3.62,0-5l70-40.43a9.57,9.57,0,0,1,8.66,0l82.21,47.46C376.28,405.78,376.28,408,373.89,409.4Z" style="fill:#e0e0e0"></path><ellipse id="freepik--shadow--inject-27" cx="399.85" cy="392.54" rx="68.03" ry="39.28" style="fill:#e0e0e0"></ellipse><path id="freepik--shadow--inject-27" d="M79.67,442.1,35.93,416.88c-1.33-.77-1.33-2,0-2.79L309.11,256.41a5.32,5.32,0,0,1,4.82,0l43.73,25.22c1.34.76,1.34,2,0,2.79L84.49,442.09A5.32,5.32,0,0,1,79.67,442.1Z" style="fill:#e0e0e0"></path></g><g id="freepik--Clock--inject-27"><g id="freepik--clock--inject-27"><g id="freepik--clock--inject-27"><path d="M285.56,49.71l-4.85-2.81h0l-.05,0h0c-3.65-2.07-8.68-1.75-14.22,1.45-11.17,6.45-20.22,22.12-20.22,35,0,6.4,2.24,10.91,5.86,13h0l0,0h0L257,99.22l1.29-3.38a21.68,21.68,0,0,0,5.58-2.32c11.17-6.44,20.22-22.12,20.22-35a21.55,21.55,0,0,0-.78-5.95Z" style="fill:#455a64"></path><path d="M246.37,80.17a30.71,30.71,0,0,0-.18,3.15c0,6.4,2.24,10.91,5.86,13h0l0,0h0L257,99.22l1.29-3.38c.41-.11.84-.23,1.27-.37l1.91-6.59Z" style="fill:#263238"></path><ellipse cx="271.34" cy="74.5" rx="28.58" ry="16.5" transform="translate(71.15 272.24) rotate(-60)" style="fill:#37474f"></ellipse><path d="M287,55.39c-2.84-4.54-8.34-5.23-14.71-1.87-10.55,5.57-19.08,20.34-18.63,32.26a16.11,16.11,0,0,0,2.1,7.84c2.84,4.53,8.34,5.23,14.72,1.87,10.54-5.57,19.07-20.34,18.62-32.26a16.11,16.11,0,0,0-2.1-7.84Z" style="fill:#263238"></path><path d="M268.38,94.33c-4.06,2.14-7.75,2.63-10.64,1.54a8.62,8.62,0,0,1-2-2.25,16.11,16.11,0,0,1-2.1-7.84c-.45-11.92,8.08-26.69,18.63-32.26,4.05-2.14,7.75-2.63,10.64-1.54a8.75,8.75,0,0,1,2,2.25h0a15.83,15.83,0,0,1,2.1,7.84C287.45,74,278.92,88.76,268.38,94.33Z" style="fill:#fafafa"></path><path d="M270.1,56.46a1,1,0,0,0-.42.78v2.19c0,.29.19.41.43.28a1,1,0,0,0,.42-.78V56.74C270.53,56.45,270.34,56.32,270.1,56.46Z" style="fill:#ED7D31"></path><path d="M284.62,64.84a1,1,0,0,1-.46.76l-1.89,1.1c-.25.14-.46,0-.46-.23a1,1,0,0,1,.46-.76l1.9-1.09C284.42,64.47,284.62,64.57,284.62,64.84Z" style="fill:#ED7D31"></path><path d="M255.05,82.53a.94.94,0,0,1,.46-.75l1.89-1.1c.26-.15.46,0,.46.23a1,1,0,0,1-.46.76l-1.9,1.09C255.25,82.91,255.05,82.81,255.05,82.53Z" style="fill:#ED7D31"></path><path d="M269.57,90.92a1,1,0,0,0,.43-.78V88c0-.29-.19-.42-.43-.28a1,1,0,0,0-.42.78v2.19C269.14,90.93,269.33,91.06,269.57,90.92Z" style="fill:#ED7D31"></path></g><polygon points="270.96 75.29 260.24 73.75 271.8 73.75 270.96 75.29" style="fill:#ED7D31"></polygon><path d="M271.37,62s1,9.2,1.3,11.34a1.46,1.46,0,0,1,.05.38,3.06,3.06,0,0,1-1.38,2.39,1,1,0,0,1-1,.09l-.73-.42a1,1,0,0,1-.42-.9c-.12-2.2.7-12.8.7-12.8l.72-.51Z" style="fill:#37474f"></path><path d="M272.72,73.71a3.06,3.06,0,0,1-1.38,2.39c-.76.44-1.38.08-1.38-.8-.13-2.2.69-12.79.69-12.79l.72-.52S272.72,72.82,272.72,73.71Z" style="fill:#455a64"></path><path d="M272,74.14a1.37,1.37,0,0,1-.62,1.08c-.34.2-.62,0-.62-.36a1.4,1.4,0,0,1,.62-1.08C271.68,73.59,272,73.75,272,74.14Z" style="fill:#263238"></path><rect x="280.27" y="73.44" width="2.24" height="0.19" transform="translate(-6.79 34.28) rotate(-6.89)" style="fill:#37474f"></rect><rect x="275.37" y="82.68" width="0.19" height="2.24" transform="translate(-10.77 114.98) rotate(-23.14)" style="fill:#37474f"></rect><rect x="264.19" y="62.54" width="0.19" height="2.24" transform="translate(-3.75 108.97) rotate(-23.14)" style="fill:#37474f"></rect><rect x="257.24" y="73.82" width="2.24" height="0.19" transform="translate(-6.98 31.38) rotate(-6.86)" style="fill:#37474f"></rect><rect x="281.56" y="59.27" width="2.99" height="0.19" transform="translate(50.34 231.08) rotate(-48.27)" style="fill:#37474f"></rect><rect x="274.14" y="54.98" width="2.99" height="0.19" transform="translate(136.75 299.45) rotate(-71.69)" style="fill:#37474f"></rect><rect x="262.53" y="92.23" width="2.99" height="0.19" transform="translate(93.42 313.97) rotate(-71.69)" style="fill:#37474f"></rect><rect x="255.11" y="87.95" width="2.99" height="0.19" transform="translate(20.09 220.92) rotate(-48.27)" style="fill:#37474f"></rect></g></g><g id="freepik--Mirror--inject-27"><g id="freepik--mirror--inject-27"><polygon points="225.34 40.89 142.53 88.7 142.53 216.43 225.34 168.62 225.34 40.89" style="fill:#fafafa"></polygon><polygon points="139.37 214.6 142.53 216.43 142.53 88.7 139.37 86.88 139.37 214.6" style="fill:#37474f"></polygon><polygon points="225.34 40.89 222.18 39.07 139.37 86.88 142.53 88.7 225.34 40.89" style="fill:#455a64"></polygon><g style="opacity:0.1"><polygon points="142.53 101.66 142.53 109.07 156.79 80.46 151.6 83.46 142.53 101.66" style="fill:#ED7D31"></polygon><polygon points="174.78 70.07 163.8 76.42 142.53 119.07 142.53 134.76 174.78 70.07" style="fill:#ED7D31"></polygon><polygon points="195.78 57.95 190.59 60.95 142.53 157.33 142.53 164.74 195.78 57.95" style="fill:#ED7D31"></polygon><polygon points="225.34 140.16 205.43 180.11 216.4 173.77 225.34 155.85 225.34 140.16" style="fill:#ED7D31"></polygon><polygon points="225.34 60.41 149.27 212.53 154.47 209.53 225.34 67.79 225.34 60.41" style="fill:#ED7D31"></polygon><polygon points="225.34 40.89 207.25 51.33 142.52 181.1 142.52 207.76 225.34 41.73 225.34 40.89" style="fill:#ED7D31"></polygon><polygon points="225.34 89.98 170.25 200.42 188.94 189.63 225.34 116.66 225.34 89.98" style="fill:#ED7D31"></polygon></g><g style="opacity:0.30000000000000004"><path d="M223.73,43.67v124l-79.6,45.95v-124l79.6-46m1.61-2.78L142.53,88.7V216.43l82.81-47.81V40.89Z" style="fill:#ED7D31"></path></g></g></g><g id="freepik--drawer-2--inject-27"><g id="freepik--Drawer--inject-27"><g id="freepik--drawer--inject-27"><polygon points="341.1 288.39 331.37 282.77 341.1 279.44 341.1 288.39"></polygon><polygon points="282.06 313.51 282.06 322.48 240 298.19 240 289.23 282.06 313.51"></polygon><polygon points="235.13 181.01 277.19 205.3 277.19 316.33 235.13 292.04 235.13 181.01" style="fill:#263238"></polygon><polygon points="277.19 205.3 350.83 162.79 350.83 273.82 277.19 316.33 277.19 205.3" style="fill:#37474f"></polygon><polygon points="350.83 162.79 308.77 138.81 235.13 181.01 277.19 205.3 350.83 162.79" style="fill:#455a64"></polygon><polygon points="282.06 268.55 345.97 231.67 345.97 271.01 282.06 307.9 282.06 268.55" style="fill:#263238"></polygon><polygon points="282.06 322.48 286.93 319.67 286.93 310.71 282.06 313.51 282.06 322.48" style="fill:#37474f"></polygon><polygon points="341.1 288.39 345.97 285.58 345.97 276.63 341.1 279.44 341.1 288.39" style="fill:#37474f"></polygon><polygon points="282.06 208.11 345.97 171.22 345.97 197.22 282.06 234.1 282.06 208.11" style="fill:#455a64"></polygon><path d="M287.1,228.55v-.8a2.68,2.68,0,0,0-.88-2.35,1.17,1.17,0,0,0-1.19.11l-.68.39V213.66l.23-.13c1.36-.79,2.52-3.27,2.52-5.42v-.27l.23-.13,53.6-30.93v.79a2.69,2.69,0,0,0,.87,2.36,1.22,1.22,0,0,0,1.19-.11l.69-.4v12.24l-.23.13c-1.37.79-2.52,3.28-2.52,5.43v.26l-.23.13Zm-1.33-4.19a1.73,1.73,0,0,1,.91.25A3,3,0,0,1,288,227l52-30a7.81,7.81,0,0,1,2.74-5.81V180.9a1.89,1.89,0,0,1-1.42-.18,3.06,3.06,0,0,1-1.28-2.38l-52.05,30a7.77,7.77,0,0,1-2.75,5.81v10.25A1.89,1.89,0,0,1,285.77,224.36Z" style="fill:#37474f"></path><path d="M308,202c0,.77,2.33.06,5.19-1.59l1.64-1c2.87-1.65,5.19-3.62,5.19-4.4v-1.4l-12,6.93Z" style="fill:#263238"></path><polygon points="282.06 238.37 345.97 201.49 345.97 227.49 282.06 264.37 282.06 238.37" style="fill:#455a64"></polygon><path d="M287.1,258.82V258a2.66,2.66,0,0,0-.88-2.35,1.19,1.19,0,0,0-1.19.1l-.68.4V243.93l.23-.13c1.36-.79,2.52-3.27,2.52-5.43v-.26l.23-.13L340.93,207v.8a2.66,2.66,0,0,0,.87,2.35,1.19,1.19,0,0,0,1.19-.1l.69-.4v12.24l-.23.13c-1.37.79-2.52,3.27-2.52,5.42v.27l-.23.13Zm-1.33-4.19a1.82,1.82,0,0,1,.91.24,3,3,0,0,1,1.29,2.38l52-30a7.79,7.79,0,0,1,2.74-5.81V211.16a1.88,1.88,0,0,1-1.42-.17,3.06,3.06,0,0,1-1.28-2.39l-52.05,30a7.78,7.78,0,0,1-2.75,5.81v10.24A2.35,2.35,0,0,1,285.77,254.63Z" style="fill:#37474f"></path><path d="M308,232.22c0,.78,2.33.07,5.19-1.59l1.64-.94c2.87-1.66,5.19-3.63,5.19-4.4v-1.41l-12,6.94Z" style="fill:#263238"></path><polygon points="345.97 271.01 311.89 251.34 282.06 268.55 282.06 307.9 345.97 271.01" style="opacity:0.2"></polygon></g><g id="freepik--Bottle--inject-27"><path id="freepik--shadow--inject-27" d="M286.69,167.85c2.29,1.33,2.29,3.48,0,4.8a9.15,9.15,0,0,1-8.31,0c-2.3-1.32-2.3-3.47,0-4.8A9.21,9.21,0,0,1,286.69,167.85Z" style="opacity:0.2"></path><g id="freepik--Tube--inject-27"><path d="M287.58,169.56h0v-4.89H277.47v4.89h0a2.58,2.58,0,0,0,1.48,2.31,7.92,7.92,0,0,0,7.16,0A2.59,2.59,0,0,0,287.58,169.56Z" style="fill:#ED7D31"></path><path d="M277.47,169.56a2.58,2.58,0,0,0,1.48,2.31,7.92,7.92,0,0,0,7.16,0,2.59,2.59,0,0,0,1.47-2.31" style="fill:#ED7D31"></path><path d="M286.11,170.29a7.92,7.92,0,0,1-7.16,0,2.57,2.57,0,0,1-1.48-2.31v.4a2.56,2.56,0,0,0,1.48,2.3,7.92,7.92,0,0,0,7.16,0,2.57,2.57,0,0,0,1.47-2.3V168A2.58,2.58,0,0,1,286.11,170.29Z" style="opacity:0.15"></path><path d="M276.1,133.09a1.5,1.5,0,0,1,.69-1.18l11.49-6.64c.37-.21.68,0,.68.4v2.92L276.1,136Z" style="fill:#ED7D31"></path><path d="M289.35,164.67,289,128.59,276.1,136l-.39,28.66h0a3.4,3.4,0,0,0,2,2.78,10.63,10.63,0,0,0,9.64,0A3.38,3.38,0,0,0,289.35,164.67Z" style="fill:#ED7D31"></path><path d="M289.35,164.67,289,128.59,276.1,136l-.39,28.66h0a3.4,3.4,0,0,0,2,2.78,10.63,10.63,0,0,0,9.64,0A3.38,3.38,0,0,0,289.35,164.67Z" style="fill:#fff;opacity:0.35000000000000003"></path><path d="M286.07,146.2c1.1-.63,2-.12,2,1.15a4.39,4.39,0,0,1-2,3.45c-1.1.64-2,.12-2-1.15A4.41,4.41,0,0,1,286.07,146.2Z" style="fill:#ED7D31"></path><path d="M282.22,154.1c-.44,0-.79.2-.79.5s.35.58.79.59a9.86,9.86,0,0,0,5-1.12,3.38,3.38,0,0,0,2-2.74l0-1.11a3.33,3.33,0,0,1-2,2.75A9.77,9.77,0,0,1,282.22,154.1Z" style="fill:#ED7D31"></path></g></g><g id="freepik--bottle--inject-27"><path id="freepik--shadow--inject-27" d="M305.34,158c2.3,1.32,2.3,3.47,0,4.8a9.21,9.21,0,0,1-8.31,0c-2.3-1.33-2.3-3.48,0-4.8A9.15,9.15,0,0,1,305.34,158Z" style="opacity:0.2"></path><g id="freepik--tube--inject-27"><path d="M306.23,159.67h0v-4.9H296.12v4.9h0a2.56,2.56,0,0,0,1.48,2.3,7.94,7.94,0,0,0,7.17,0A2.57,2.57,0,0,0,306.23,159.67Z" style="fill:#ED7D31"></path><path d="M296.12,159.67a2.56,2.56,0,0,0,1.48,2.3,7.94,7.94,0,0,0,7.17,0,2.57,2.57,0,0,0,1.46-2.3" style="fill:#ED7D31"></path><path d="M304.77,160.39a7.94,7.94,0,0,1-7.17,0,2.56,2.56,0,0,1-1.48-2.3v.39a2.57,2.57,0,0,0,1.48,2.31,7.94,7.94,0,0,0,7.17,0,2.59,2.59,0,0,0,1.46-2.31v-.39A2.57,2.57,0,0,1,304.77,160.39Z" style="opacity:0.15"></path><path d="M294.76,123.2a1.51,1.51,0,0,1,.68-1.19l11.49-6.63c.38-.22.68,0,.68.4v2.92l-12.85,7.42Z" style="fill:#ED7D31"></path><path d="M308,154.77l-.39-36.07-12.85,7.42-.39,28.65h0a3.39,3.39,0,0,0,2,2.79,10.72,10.72,0,0,0,9.65,0A3.39,3.39,0,0,0,308,154.77Z" style="fill:#f0f0f0"></path><path d="M304.72,136.31c1.1-.63,2-.12,2,1.15a4.41,4.41,0,0,1-2,3.45c-1.1.63-2,.12-2-1.15A4.41,4.41,0,0,1,304.72,136.31Z" style="fill:#ED7D31"></path><path d="M300.87,144.2c-.44,0-.79.21-.79.51s.35.58.79.59a9.77,9.77,0,0,0,5-1.13,3.34,3.34,0,0,0,2-2.73v-1.11a3.35,3.35,0,0,1-2,2.75A9.86,9.86,0,0,1,300.87,144.2Z" style="fill:#ED7D31"></path></g></g></g></g><g id="freepik--Faucet--inject-27"><g id="freepik--faucet--inject-27"><g id="freepik--Table--inject-27"><polygon points="113.03 289.49 155.09 313.77 155.09 353.38 113.03 329.09 113.03 289.49" style="fill:#263238"></polygon><polygon points="155.09 313.77 277.19 243.52 277.19 283.13 155.09 353.38 155.09 313.77" style="fill:#37474f"></polygon><polygon points="277.19 243.52 235.13 219.54 113.03 289.49 155.09 313.77 277.19 243.52" style="fill:#455a64"></polygon></g><g id="freepik--faucet--inject-27"><path d="M182.25,260.46a7.25,7.25,0,0,1-3.53-.81l-29.39-17a1.92,1.92,0,0,1-.64-.52,2.21,2.21,0,0,1,.64-.52l58.52-33.78a8.1,8.1,0,0,1,7.06,0l29.39,17a2.31,2.31,0,0,1,.65.52,2.31,2.31,0,0,1-.65.52l-58.52,33.78A7.23,7.23,0,0,1,182.25,260.46Z" style="fill:#f0f0f0"></path><path d="M245,225.35a2.31,2.31,0,0,1-.65.52v30.95l-29.39-17a7.31,7.31,0,0,0-3.53-.81v-32a7.2,7.2,0,0,1,3.53.81l29.39,17A2.31,2.31,0,0,1,245,225.35Z" style="fill:#e0e0e0"></path><path d="M182.25,292.45a7.25,7.25,0,0,1-3.53-.81l-29.39-17a1.92,1.92,0,0,1-.64-.52,2.21,2.21,0,0,1,.64-.52l58.52-33.78a8.1,8.1,0,0,1,7.06,0l29.39,17a2.31,2.31,0,0,1,.65.52,2.31,2.31,0,0,1-.65.52l-58.52,33.78A7.23,7.23,0,0,1,182.25,292.45Z" style="fill:#f5f5f5"></path><path d="M247.59,256.36a3.6,3.6,0,0,1-2,2.42L187.1,292.56a10.7,10.7,0,0,1-9.7,0L148,275.61a3.43,3.43,0,0,1-2-2.79c0-1,0-29.63,0-30.65a3.4,3.4,0,0,0,2,2.8l29.38,17a10,10,0,0,0,5,1.16c0,5.2,0,24.35,0,30.62a9.9,9.9,0,0,0,4.72-1.15l58.52-33.79A3.63,3.63,0,0,0,247.59,256.36Z" style="fill:#e0e0e0"></path><path d="M247.63,256a3.45,3.45,0,0,1-2,2.8l-58.52,33.79a9.9,9.9,0,0,1-4.72,1.15c0-6.27,0-25.42,0-30.62a9.76,9.76,0,0,0,4.72-1.16l12.39-7.15,2.43-1.4c0,4.43,1.24,7.75,3.27,9.65,2.06.62,4.53.25,7.18-1.28,6.45-3.73,11.8-13,12.88-21.84h0l2.83-1.64h0l17.52-10.12a3.46,3.46,0,0,0,2-2.67C247.63,227.32,247.62,255,247.63,256Z" style="fill:#f0f0f0"></path><path d="M245.62,222.55l-29.39-17a10.7,10.7,0,0,0-9.7,0L148,239.37a3,3,0,0,0,0,5.6l29.38,17a10.7,10.7,0,0,0,9.7,0l12.39-7.15,2.43-1.4-2.64-1.52-13.5,7.8a8.19,8.19,0,0,1-7.06,0l-29.39-17a1.92,1.92,0,0,1-.64-.52,2.08,2.08,0,0,1,.64-.51l58.52-33.79a8.1,8.1,0,0,1,7.06,0l29.39,17a2.31,2.31,0,0,1,.65.52,2.31,2.31,0,0,1-.65.52l-18.85,10.88,2.64,1.52,17.53-10.12a3,3,0,0,0,0-5.6Z" style="fill:#fafafa"></path><path d="M228.09,238.27c0,9.64-5.86,20.83-13.09,25-3.9,2.26-7.41,2-9.81-.24,2.06.62,4.53.25,7.18-1.28,6.45-3.73,11.8-13,12.88-21.84h0a24.27,24.27,0,0,0,.2-3.16l2.63,1.52Z" style="fill:#e6e6e6"></path><g id="freepik--faucet--inject-27"><path d="M182.85,205.49a2.08,2.08,0,0,0-2.09.21,6.52,6.52,0,0,0-2.95,5.12,2.07,2.07,0,0,0,.87,1.92l.65.37a2.07,2.07,0,0,0,2.09-.2,6.56,6.56,0,0,0,3-5.12,2.09,2.09,0,0,0-.87-1.92Z" style="fill:#37474f"></path><path d="M177.83,210.36c0,.16,0,.31,0,.46a2.07,2.07,0,0,0,.87,1.92l.65.37a2.07,2.07,0,0,0,2.09-.2l.38-.26Z" style="fill:#263238"></path><path d="M178.46,211.2c0,1.88,1.33,2.65,3,1.71a6.56,6.56,0,0,0,3-5.12c0-1.89-1.33-2.65-3-1.71A6.53,6.53,0,0,0,178.46,211.2Z" style="fill:#455a64"></path><path d="M185,213.53a.84.84,0,0,0,.85-.08,2.65,2.65,0,0,0,1.2-2.08.82.82,0,0,0-.35-.77l-4.4-2.54a.87.87,0,0,0-.85.09,2.65,2.65,0,0,0-1.2,2.08.82.82,0,0,0,.35.77Z" style="fill:#455a64"></path><path d="M187.06,211.07l-5.29-3a.94.94,0,0,0-.28.12,2.22,2.22,0,0,0-.27.19l5.79,3.33.06,0a2.45,2.45,0,0,0,0-.27A1.39,1.39,0,0,0,187.06,211.07Z" style="fill:#fff;opacity:0.1"></path><path d="M185.89,213.45a2.18,2.18,0,0,0,.42-.33l-2.51-1.45c-.91-.53-2.75-1.48-2.88-2.19a1.35,1.35,0,0,1,.67-1.38l-.1.05a2.65,2.65,0,0,0-1.2,2.08.82.82,0,0,0,.35.77l4.4,2.53A.84.84,0,0,0,185.89,213.45Z" style="fill:#37474f"></path><path d="M192,214.2a1,1,0,0,0-.21-.65h0l-.07-.06-.05,0,0,0h0a27.68,27.68,0,0,0-3-2.62c-1.16-.67-1.56,0-2-.23a.87.87,0,0,0-.85.09,2.65,2.65,0,0,0-1.2,2.08.82.82,0,0,0,.35.77c.41.24.8,1.37,2,2s2.53.55,3,.8a.84.84,0,0,0,.85-.08,2.68,2.68,0,0,0,1.2-2.08Z" style="fill:#455a64"></path><path d="M191.19,214.23a.65.65,0,0,0,.62-.13,1,1,0,0,0-.18-.39h0l-.06-.07-.05,0,0,0h0c-.42-.25-1.68-1.77-3-2.62a2.73,2.73,0,0,0-1-.45c-.2,0-.35.09-.5.11a3.1,3.1,0,0,1,2.06,1.42A7.31,7.31,0,0,0,191.19,214.23Z" style="fill:#fff;opacity:0.1"></path><path d="M190.72,216.29a11.41,11.41,0,0,0-2.28-.83,3.73,3.73,0,0,1-2.15-2.73c-.16-1.1.08-2.08.68-2.09a.39.39,0,0,1-.23,0,.87.87,0,0,0-.85.09,2.65,2.65,0,0,0-1.2,2.08.82.82,0,0,0,.35.77c.41.24.8,1.37,2,2s2.53.55,3,.8a.79.79,0,0,0,.78-.05Z" style="fill:#37474f"></path><path d="M190.59,220.07a1,1,0,0,0,.59.82,3.14,3.14,0,0,0,2.86,0,1,1,0,0,0,.59-.82v-1.63a1,1,0,0,0-.59-.82,3.14,3.14,0,0,0-2.86,0,1,1,0,0,0-.59.82Z" style="fill:#37474f"></path><path d="M194.63,218.44a1,1,0,0,0-.59-.82,3.14,3.14,0,0,0-2.86,0,.87.87,0,0,0,0,1.65,3.14,3.14,0,0,0,2.86,0,1,1,0,0,0,.59-.83" style="fill:#455a64"></path><path d="M194.3,218.32v-1a4,4,0,0,0-2-3.48l-.6-.35h0a.84.84,0,0,0-.87.06,2.66,2.66,0,0,0-1.2,2.08.83.83,0,0,0,.35.78h0l.43.25a1,1,0,0,1,.51.88v.82h0a.85.85,0,0,0,.5.69,2.67,2.67,0,0,0,2.4,0A.83.83,0,0,0,194.3,218.32Z" style="fill:#455a64"></path><path d="M194.12,217.33a4,4,0,0,0-2-3.42l-.94-.54h0l-.66.38,1.16.68a3.5,3.5,0,0,1,1.75,3v1.7a1.94,1.94,0,0,0,.36-.15,1.13,1.13,0,0,0,.31-.25Z" style="fill:#fff;opacity:0.1"></path><path d="M191.69,213.45a.82.82,0,0,0-.8.07,2.14,2.14,0,0,0-.62.54,3,3,0,0,0-.44.72,2.55,2.55,0,0,0-.21.81,2,2,0,0,1,.14-.84,2.81,2.81,0,0,1,.43-.75,2.1,2.1,0,0,1,.67-.55,1.2,1.2,0,0,1,.42-.12A.68.68,0,0,1,191.69,213.45Z" style="fill:#37474f"></path><path d="M191.81,217.34a1.41,1.41,0,0,0-.8-1.52c-.52-.3-1.17-.86-1-1.43a2.49,2.49,0,0,0-.36,1.2.83.83,0,0,0,.35.78l.43.25a1,1,0,0,1,.51.88v.82a.85.85,0,0,0,.5.69,2.67,2.67,0,0,0,2.4,0,1.79,1.79,0,0,1-1.56-.33A1.55,1.55,0,0,1,191.81,217.34Z" style="fill:#37474f"></path><path d="M191.41,219a2.44,2.44,0,0,0,.8.22,2.88,2.88,0,0,0,.83,0,2,2,0,0,0,.79-.26.83.83,0,0,0,.47-.63.65.65,0,0,1-.12.4,1.11,1.11,0,0,1-.31.3,2.19,2.19,0,0,1-.81.29,2.76,2.76,0,0,1-.86,0A2,2,0,0,1,191.41,219Z" style="fill:#37474f"></path><path d="M192.46,206.37a.8.8,0,0,0-.8-.8.87.87,0,0,0-.39.1h0c-.71.41-1.92,1.5-2.23,1.69h0a.2.2,0,0,0-.09.2.69.69,0,0,0,.32.55.2.2,0,0,0,.23,0h0c.35-.18,1.87-.67,2.56-1.07h0A.8.8,0,0,0,192.46,206.37Z" style="fill:#ED7D31"></path><path d="M191,206.05s-.05.09,0,.12.08.06.19.06l.45,0a1,1,0,0,0,.38-.06c.29-.14,0-.43-.22-.45A.93.93,0,0,0,191,206.05Z" style="fill:#fff;opacity:0.25"></path><path d="M191.44,207a17.25,17.25,0,0,0-2.33,1,.45.45,0,0,0,.15.13.2.2,0,0,0,.23,0h0c.35-.18,1.87-.67,2.56-1.07h0a.8.8,0,0,0,.41-.7.74.74,0,0,0-.12-.42C192.45,206.24,192.32,206.76,191.44,207Z" style="opacity:0.2"></path><path d="M188.94,207.57a.69.69,0,0,0,.32.55c.18.11.32,0,.32-.18a.69.69,0,0,0-.32-.55C189.08,207.28,188.94,207.37,188.94,207.57Z" style="fill:#ED7D31"></path><path d="M188.94,207.57a.69.69,0,0,0,.32.55c.18.11.32,0,.32-.18a.69.69,0,0,0-.32-.55C189.08,207.28,188.94,207.37,188.94,207.57Z" style="opacity:0.30000000000000004"></path><path d="M187,212a.8.8,0,0,0,.48.66,2.54,2.54,0,0,0,2.31,0,.8.8,0,0,0,.48-.66v-2.38a.83.83,0,0,0-.48-.67,2.54,2.54,0,0,0-2.31,0,.83.83,0,0,0-.48.67Z" style="fill:#37474f"></path><path d="M187.81,208.79a1.94,1.94,0,0,0-.36.15.83.83,0,0,0-.48.67V212a.8.8,0,0,0,.48.66,2,2,0,0,0,.36.16Z" style="fill:#263238"></path><path d="M190.24,209.61a.83.83,0,0,0-.48-.67,2.54,2.54,0,0,0-2.31,0,.71.71,0,0,0,0,1.34,2.54,2.54,0,0,0,2.31,0,.83.83,0,0,0,.48-.67" style="fill:#455a64"></path><path d="M187.54,209.44a.53.53,0,0,0,.31.44,1.67,1.67,0,0,0,1.51,0,.54.54,0,0,0,.32-.44v-1.88a.54.54,0,0,0-.32-.43,1.64,1.64,0,0,0-1.51,0,.53.53,0,0,0-.31.43Z" style="fill:#37474f"></path><path d="M187.81,207.16a.49.49,0,0,0-.27.4v1.88a.51.51,0,0,0,.27.41Z" style="fill:#263238"></path><path d="M189.68,207.56a.54.54,0,0,0-.32-.43,1.64,1.64,0,0,0-1.51,0,.46.46,0,0,0,0,.87,1.67,1.67,0,0,0,1.51,0,.54.54,0,0,0,.32-.44" style="fill:#455a64"></path><path d="M188.13,208.78a.72.72,0,0,0-.32-.55.2.2,0,0,0-.23,0h0c-.36.18-1.87.67-2.56,1.07h0a.8.8,0,1,0,.77,1.4h0c.72-.41,1.92-1.5,2.24-1.69h0A.23.23,0,0,0,188.13,208.78Z" style="fill:#ED7D31"></path><path d="M184.8,209.78a.57.57,0,0,0,.12.42.42.42,0,0,0,.41.12.19.19,0,0,0,.13-.1.2.2,0,0,0,0-.13l-.09-.1a.77.77,0,0,1-.15-.36.39.39,0,0,0,0-.15C185.07,209.26,184.82,209.56,184.8,209.78Z" style="fill:#fff;opacity:0.25"></path><path d="M188,209h0a.23.23,0,0,0,.09-.2.5.5,0,0,0,0-.16,18.73,18.73,0,0,0-2,1.51c-.67.61-1.18.47-1.39.23a.8.8,0,0,0,1.09.32h0c.72-.41,1.92-1.5,2.24-1.69Z" style="opacity:0.2"></path><path d="M189.16,207.31h0a.9.9,0,0,0-.55-.2.88.88,0,0,0-.48.15h0l-.07,0h0c-.18.16-.15.36.08.5a1.06,1.06,0,0,0,1,0,.35.35,0,0,0,.2-.28A.31.31,0,0,0,189.16,207.31Z" style="fill:#ED7D31"></path><path d="M188.8,207.25l.16.05h0s0,0,0,0v0a.61.61,0,0,0-.18-.09,0,0,0,0,0-.06,0S188.78,207.25,188.8,207.25Z" style="fill:#fff;opacity:0.25"></path><path d="M188.93,207.34a1.07,1.07,0,0,0-.25,0v-.14h-.14v.14a1.09,1.09,0,0,0-.26,0v.11a1.09,1.09,0,0,1,.26,0v.21h.14v-.21a1.07,1.07,0,0,1,.25,0Z" style="opacity:0.2"></path><path d="M188.28,207.34l.25,0v0l-.25,0Z" style="opacity:0.2"></path><path d="M188.93,207.34v0a1.09,1.09,0,0,0-.25,0v0A1.07,1.07,0,0,1,188.93,207.34Z" style="opacity:0.2"></path><rect x="188.54" y="207.17" width="0.14" height="0.05" style="opacity:0.2"></rect></g><path d="M166.46,215a2.07,2.07,0,0,0-2.09.2,6.54,6.54,0,0,0-3,5.12,2.07,2.07,0,0,0,.87,1.92l.65.37a2.07,2.07,0,0,0,2.09-.2,6.52,6.52,0,0,0,3-5.12,2.07,2.07,0,0,0-.87-1.91Z" style="fill:#455a64"></path><path d="M161.44,219.82a3.67,3.67,0,0,0,0,.46,2.07,2.07,0,0,0,.87,1.92l.65.37a2.07,2.07,0,0,0,2.09-.2l.39-.25Z" style="fill:#263238"></path><path d="M162.07,220.66c0,1.89,1.32,2.65,3,1.71a6.52,6.52,0,0,0,3-5.12c0-1.89-1.32-2.65-3-1.71A6.55,6.55,0,0,0,162.07,220.66Z" style="fill:#37474f"></path><path d="M172.59,218.89a2,2,0,0,0,0,2.12l-.73,1.88a3.31,3.31,0,0,0-1.59,2l-1.45.84-.79-.45a1.5,1.5,0,0,0-.8.31l-3.79-2.18-.72-1a2,2,0,0,0,0-2.12l.72-1.87a3.31,3.31,0,0,0,1.6-2l1.45-.84.79.46a1.64,1.64,0,0,0,.8-.32l3.78,2.19Z" style="fill:#455a64"></path><path d="M170.27,224.86a3.36,3.36,0,0,1,1.59-2l.73-1.87a2,2,0,0,1,0-2.12l-.73-1c-.67.47-1.32.41-1.59-.14l-1.45.83a3.34,3.34,0,0,1-1.59,2l-.73,1.88a2,2,0,0,1,0,2.12l.73,1c.67-.47,1.31-.42,1.59.14Z" style="fill:#37474f"></path><path d="M170.29,221.28c0-.48-.33-.68-.75-.44a1.67,1.67,0,0,0-.75,1.3c0,.48.34.67.75.43A1.63,1.63,0,0,0,170.29,221.28Z"></path><path d="M170.1,221.17a1.63,1.63,0,0,1-.75,1.29.5.5,0,0,1-.41.08.54.54,0,0,1-.15-.4,1.67,1.67,0,0,1,.75-1.3.56.56,0,0,1,.42-.07A.56.56,0,0,1,170.1,221.17Z" style="fill:#ED7D31"></path><path d="M167.23,225.56l-.73-1-3.78-2.19.72,1Zm-.73-3.15.73-1.88-3.79-2.18-.72,1.87Zm3.77-4.69-3.78-2.19-1.45.84,3.78,2.18Z" style="fill:#fff;opacity:0.1"></path><path d="M199.23,196a2.07,2.07,0,0,0-2.09.2,6.55,6.55,0,0,0-2.95,5.12,2.07,2.07,0,0,0,.87,1.92l.65.37a2.05,2.05,0,0,0,2.09-.2,6.54,6.54,0,0,0,2.95-5.12,2.08,2.08,0,0,0-.86-1.91Z" style="fill:#455a64"></path><path d="M194.21,200.9c0,.16,0,.31,0,.46a2.07,2.07,0,0,0,.87,1.92l.65.37a2.05,2.05,0,0,0,2.09-.2c.13-.08.26-.16.38-.25Z" style="fill:#263238"></path><path d="M194.84,201.74c0,1.89,1.33,2.65,3,1.71a6.54,6.54,0,0,0,2.95-5.12c0-1.89-1.32-2.65-2.95-1.71A6.56,6.56,0,0,0,194.84,201.74Z" style="fill:#37474f"></path><path d="M205.36,200a2,2,0,0,0,0,2.12l-.72,1.88a3.27,3.27,0,0,0-1.59,2l-1.46.84-.78-.45a1.53,1.53,0,0,0-.81.31l-3.78-2.18-.73-1a2,2,0,0,0,0-2.12l.73-1.87a3.3,3.3,0,0,0,1.59-2l1.45-.84.79.46a1.68,1.68,0,0,0,.8-.31l3.79,2.18Z" style="fill:#455a64"></path><path d="M203.05,205.94a3.27,3.27,0,0,1,1.59-2l.72-1.88a2,2,0,0,1,0-2.12l-.72-1c-.68.47-1.32.41-1.59-.14l-1.46.84a3.27,3.27,0,0,1-1.59,2l-.72,1.88a2,2,0,0,1,0,2.12l.72,1c.68-.47,1.32-.41,1.59.14Z" style="fill:#37474f"></path><path d="M203.07,202.36c0-.48-.34-.67-.75-.44a1.64,1.64,0,0,0-.75,1.3c0,.48.33.67.75.44A1.69,1.69,0,0,0,203.07,202.36Z"></path><path d="M202.88,202.25a1.65,1.65,0,0,1-.75,1.29.52.52,0,0,1-.42.08.58.58,0,0,1-.14-.4,1.67,1.67,0,0,1,.75-1.3.55.55,0,0,1,.42-.07A.56.56,0,0,1,202.88,202.25Z" style="fill:#ED7D31"></path><path d="M200,206.64l-.72-1-3.79-2.19.73,1Zm-.72-3.15.72-1.88-3.78-2.18-.73,1.87Zm3.77-4.69-3.79-2.19-1.45.84,3.78,2.19Z" style="fill:#fff;opacity:0.1"></path></g></g></g><g id="freepik--drawer-1--inject-27"><g id="freepik--drawer--inject-27"><g id="freepik--Drawers--inject-27"><polygon points="145.35 401.36 135.62 395.74 145.35 392.42 145.35 401.36"></polygon><polygon points="86.31 426.49 86.31 435.45 44.25 411.17 44.25 402.2 86.31 426.49"></polygon><polygon points="39.38 293.99 81.44 318.27 81.44 429.3 39.38 405.01 39.38 293.99" style="fill:#263238"></polygon><polygon points="81.44 318.27 155.09 275.76 155.09 386.79 81.44 429.3 81.44 318.27" style="fill:#37474f"></polygon><polygon points="155.09 275.76 113.03 251.78 39.38 293.99 81.44 318.27 155.09 275.76" style="fill:#455a64"></polygon><polygon points="86.31 381.53 150.22 344.64 150.22 383.98 86.31 420.87 86.31 381.53" style="fill:#263238"></polygon><polygon points="86.31 435.45 91.18 432.64 91.18 423.68 86.31 426.49 86.31 435.45" style="fill:#37474f"></polygon><polygon points="145.35 401.36 150.22 398.55 150.22 389.61 145.35 392.42 145.35 401.36" style="fill:#37474f"></polygon><polygon points="86.31 321.08 150.22 284.19 150.22 310.19 86.31 347.08 86.31 321.08" style="fill:#455a64"></polygon><path d="M91.35,341.52v-.79a2.69,2.69,0,0,0-.87-2.36,1.19,1.19,0,0,0-1.19.11l-.69.4V326.64l.23-.14c1.37-.78,2.52-3.27,2.52-5.42v-.26l.23-.14,53.6-30.93v.79a2.69,2.69,0,0,0,.88,2.36,1.2,1.2,0,0,0,1.19-.11l.68-.39v12.24l-.23.13c-1.36.79-2.52,3.27-2.52,5.42v.27l-.23.13ZM90,337.34a1.82,1.82,0,0,1,.91.24A3,3,0,0,1,92.22,340l52.05-30a7.78,7.78,0,0,1,2.75-5.8V293.87a1.84,1.84,0,0,1-1.42-.18,3,3,0,0,1-1.29-2.38l-52,30a7.81,7.81,0,0,1-2.75,5.8V337.4A2.22,2.22,0,0,1,90,337.34Z" style="fill:#37474f"></path><path d="M112.26,314.93c0,.78,2.32.06,5.19-1.59l1.64-.94c2.86-1.66,5.19-3.63,5.19-4.41v-1.4l-12,6.93Z" style="fill:#263238"></path><polygon points="86.31 351.35 150.22 314.46 150.22 340.46 86.31 377.34 86.31 351.35" style="fill:#455a64"></polygon><path d="M91.35,371.79V371a2.67,2.67,0,0,0-.87-2.35,1.19,1.19,0,0,0-1.19.1l-.69.4V356.9l.23-.13c1.37-.79,2.52-3.27,2.52-5.42v-.27l.23-.13L145.18,320v.79a2.69,2.69,0,0,0,.88,2.36,1.22,1.22,0,0,0,1.19-.11l.68-.4V334.9l-.23.13c-1.36.79-2.52,3.28-2.52,5.43v.26l-.23.13ZM90,367.6a1.73,1.73,0,0,1,.91.25,3,3,0,0,1,1.28,2.38l52.05-30a7.82,7.82,0,0,1,2.75-5.81V324.14a1.88,1.88,0,0,1-1.42-.18,3,3,0,0,1-1.29-2.38l-52,30a7.84,7.84,0,0,1-2.75,5.81v10.25A1.79,1.79,0,0,1,90,367.6Z" style="fill:#37474f"></path><path d="M112.26,345.2c0,.77,2.32.06,5.19-1.59l1.64-.95c2.86-1.65,5.19-3.62,5.19-4.4v-1.4l-12,6.93Z" style="fill:#263238"></path><polygon points="150.22 383.98 116.14 364.31 86.31 381.53 86.31 420.87 150.22 383.98" style="opacity:0.2"></polygon></g><polygon points="125.96 74.62 125.96 264.74 108.25 254.52 108.25 64.4 125.96 74.62" style="fill:#263238"></polygon><polygon points="125.96 74.63 130.83 71.81 113.12 61.59 108.25 64.4 125.96 74.63"></polygon><polygon points="125.96 264.74 130.83 261.93 130.83 71.81 125.96 74.62 125.96 264.74" style="fill:#37474f"></polygon><polygon points="57.09 114.1 130.83 71.81 130.83 77.81 57.09 120.1 57.09 114.1" style="fill:#37474f"></polygon><polygon points="61.96 161.69 125.96 124.97 108.25 114.75 44.25 151.47 61.96 161.69" style="fill:#455a64"></polygon><polygon points="61.96 161.69 125.96 124.97 125.96 130.97 61.96 167.69 61.96 161.69" style="fill:#37474f"></polygon><polygon points="61.96 211.01 125.96 174.3 108.25 164.07 44.25 200.79 61.96 211.01" style="fill:#455a64"></polygon><polygon points="61.96 211.01 125.96 174.3 125.96 180.29 61.96 217.01 61.96 211.01" style="fill:#37474f"></polygon><polygon points="61.96 262.64 125.96 225.93 108.25 215.7 44.25 252.42 61.96 262.64" style="fill:#455a64"></polygon><polygon points="61.96 262.64 125.96 225.93 125.96 231.92 61.96 268.64 61.96 262.64" style="fill:#37474f"></polygon><g id="freepik--bottle--inject-27"><path id="freepik--shadow--inject-27" d="M77.64,250.74a11.76,11.76,0,0,1-10.65,0C64,249,64,246.29,67,244.59a11.82,11.82,0,0,1,10.65,0C80.58,246.29,80.58,249,77.64,250.74Z" style="fill:#37474f"></path><g id="freepik--Spray--inject-27"><path d="M77.77,224.4l-.07,22.65a2.74,2.74,0,0,1-1.6,2.24,8.56,8.56,0,0,1-7.73,0,2.72,2.72,0,0,1-1.6-2.24l.08-22.65Z" style="fill:#ED7D31"></path><path d="M77.77,224.4l-.07,22.65a2.74,2.74,0,0,1-1.6,2.24,8.56,8.56,0,0,1-7.73,0,2.72,2.72,0,0,1-1.6-2.24l.08-22.65Z" style="opacity:0.30000000000000004"></path><path d="M73.55,250.1a7.14,7.14,0,0,0,2.55-.81,2.74,2.74,0,0,0,1.6-2.24l.07-22.65H73.63Z" style="opacity:0.1"></path><path d="M76.17,226.63a8.54,8.54,0,0,1-7.72,0c-2.14-1.23-2.14-3.23,0-4.46a8.54,8.54,0,0,1,7.72,0C78.31,223.4,78.31,225.4,76.17,226.63Z" style="fill:#ED7D31"></path><path d="M76.17,226.63a8.54,8.54,0,0,1-7.72,0c-2.14-1.23-2.14-3.23,0-4.46a8.54,8.54,0,0,1,7.72,0C78.31,223.4,78.31,225.4,76.17,226.63Z" style="opacity:0.1"></path><path d="M75.61,220.76V224a1.63,1.63,0,0,1-1,1.35,5.17,5.17,0,0,1-4.66,0A1.65,1.65,0,0,1,69,224v-3.24Z" style="fill:#37474f"></path><path d="M73.1,225.84a4.36,4.36,0,0,0,1.54-.49,1.63,1.63,0,0,0,1-1.35v-3.24H73.1Z" style="fill:#263238"></path><path d="M74.64,222.11a5.17,5.17,0,0,1-4.66,0c-1.29-.74-1.29-2,0-2.69a5.11,5.11,0,0,1,4.66,0C75.93,220.16,75.93,221.37,74.64,222.11Z" style="fill:#455a64"></path><path d="M74.83,219v1.41a1.23,1.23,0,0,1-.74,1,3.92,3.92,0,0,1-3.56,0,1.23,1.23,0,0,1-.74-1V219Z" style="fill:#ebebeb"></path><path d="M72.92,221.83a3.1,3.1,0,0,0,1.17-.38,1.23,1.23,0,0,0,.74-1V219H72.92Z" style="fill:#e0e0e0"></path><ellipse cx="72.31" cy="219.01" rx="2.52" ry="1.46" style="fill:#fafafa"></ellipse><path d="M74,215.58v3.3a.83.83,0,0,1-.5.69,2.61,2.61,0,0,1-2.4,0,.83.83,0,0,1-.5-.69v-3.3Z" style="fill:#ebebeb"></path><path d="M73.1,219.74a1.68,1.68,0,0,0,.41-.17.83.83,0,0,0,.5-.69v-3.3H73.1Z" style="fill:#e0e0e0"></path><ellipse cx="72.31" cy="215.58" rx="1.7" ry="0.98" style="fill:#fafafa"></ellipse><path d="M71.48,217.51a.84.84,0,0,0-.37-.64c-.21-.11-.37,0-.37.22a.81.81,0,0,0,.37.64C71.31,217.84,71.48,217.75,71.48,217.51Z" style="fill:#455a64"></path><path d="M75.61,215.21a1.63,1.63,0,0,0-1-1.34,5.11,5.11,0,0,0-4.66,0,1.63,1.63,0,0,0-1,1.34v5.55a1.63,1.63,0,0,0,1,1.35,5.17,5.17,0,0,0,4.66,0,1.65,1.65,0,0,0,1-1.35h0v-5.55Z" style="fill:#ED7D31;opacity:0.30000000000000004"></path><path d="M74.64,216.56a5.17,5.17,0,0,1-4.66,0c-1.29-.74-1.29-1.95,0-2.69a5.11,5.11,0,0,1,4.66,0C75.93,214.61,75.93,215.82,74.64,216.56Z" style="fill:#fff;opacity:0.30000000000000004"></path></g></g><g id="freepik--bottle--inject-27"><path d="M114.43,229.66a10.46,10.46,0,0,1-9.47,0c-2.62-1.51-2.62-4,0-5.47a10.46,10.46,0,0,1,9.47,0C117,225.7,117,228.15,114.43,229.66Z" style="fill:#37474f"></path><path d="M115.52,226.17V203a5.83,5.83,0,0,0-11.66,0v23.16a2.9,2.9,0,0,0,1.71,2.38,9.07,9.07,0,0,0,8.24,0A2.9,2.9,0,0,0,115.52,226.17Z" style="fill:#ED7D31"></path><path d="M115.52,226.17V203a5.83,5.83,0,0,0-11.66,0v23.16a2.9,2.9,0,0,0,1.71,2.38,9.07,9.07,0,0,0,8.24,0A2.9,2.9,0,0,0,115.52,226.17Z" style="fill:#fff;opacity:0.8"></path><path d="M113.32,209.29v15.9c0,2.95-5.24,4.35-8.62,2.72a4.67,4.67,0,0,0,.87.64,9.07,9.07,0,0,0,8.24,0,2.9,2.9,0,0,0,1.71-2.38V203a5.83,5.83,0,0,0-5.83-5.83v1.66C112.79,201.07,113.32,202.05,113.32,209.29Z" style="fill:#ED7D31;opacity:0.2"></path><path d="M112.48,192.84v5.62a1.41,1.41,0,0,1-.82,1.14,4.41,4.41,0,0,1-3.94,0,1.4,1.4,0,0,1-.81-1.14v-5.62Z" style="fill:#37474f"></path><path d="M111.66,194a4.34,4.34,0,0,1-3.94,0,1.2,1.2,0,0,1,0-2.27,4.34,4.34,0,0,1,3.94,0A1.2,1.2,0,0,1,111.66,194Z" style="fill:#455a64"></path><path d="M108.84,193.65a2,2,0,0,0-1.62-.09,1.89,1.89,0,0,0,.5.41,3.69,3.69,0,0,0,1.44.45C109.31,194.15,109.2,193.86,108.84,193.65Z" style="fill:#263238"></path><path d="M113.81,209.27a9.07,9.07,0,0,1-8.24,0,2.89,2.89,0,0,1-1.71-2.38V218a2.9,2.9,0,0,0,1.71,2.38,9.13,9.13,0,0,0,8.24,0,2.9,2.9,0,0,0,1.71-2.38V206.89A2.89,2.89,0,0,1,113.81,209.27Z" style="fill:#fafafa"></path><path d="M113.81,209.27c-.15.09-.32.16-.49.24v11.07c.17-.08.34-.14.49-.23a2.9,2.9,0,0,0,1.71-2.38V206.89A2.89,2.89,0,0,1,113.81,209.27Z" style="fill:#ebebeb"></path></g><g id="freepik--bottle--inject-27"><path d="M85,239.26a14.6,14.6,0,0,0,13.19,0c3.64-2.1,3.64-5.51,0-7.61a14.6,14.6,0,0,0-13.19,0C81.38,233.75,81.38,237.16,85,239.26Z" style="fill:#37474f"></path><path d="M83.6,234.77c0-5.4,1.71-11.57,4-14.31,0-.05.09-.11.14-.17l0-.06h0a5.15,5.15,0,0,1,7.74,0h0l.05.06c0,.06.09.12.14.17,2.24,2.74,3.94,8.91,3.94,14.31h0A4,4,0,0,1,97.28,238,12.5,12.5,0,0,1,86,238,4,4,0,0,1,83.6,234.77Z" style="fill:#ED7D31"></path><path d="M90.66,233.87V226c2.39,0,5.44-.24,6.74-2.54a29.62,29.62,0,0,1,2,7.65C97,234.8,90.66,233.87,90.66,233.87Z" style="fill:#f5f5f5"></path><g id="freepik--Soap--inject-27"><path d="M88.73,217.59v2.11a1.44,1.44,0,0,0,.84,1.18,4.51,4.51,0,0,0,4.08,0,1.43,1.43,0,0,0,.85-1.18v-2.11Z" style="fill:#37474f"></path><path d="M89.57,218.76a4.45,4.45,0,0,0,4.08,0,1.24,1.24,0,0,0,0-2.35,4.51,4.51,0,0,0-4.08,0A1.24,1.24,0,0,0,89.57,218.76Z" style="fill:#455a64"></path><path d="M90.76,213.59v4A.41.41,0,0,0,91,218a1.3,1.3,0,0,0,1.21,0,.41.41,0,0,0,.25-.35v-4Z" style="fill:#37474f"></path><path d="M90.76,216.14h.13a15.48,15.48,0,0,1,1.58.2v-2.76H90.76Z" style="fill:#263238"></path><path d="M96.83,215.76l-.59-.42a3.54,3.54,0,0,1-1.48-2.19,1.65,1.65,0,0,0-1.14-1.07,5.08,5.08,0,0,0-3.41.11c-1.8.72-2.14,2.06-.87,2.79a3.56,3.56,0,0,0,1.55.43,10.56,10.56,0,0,1,3.76.85l.73.34A1.43,1.43,0,0,0,96.83,215.76Z" style="fill:#455a64"></path></g><path d="M84.18,229c-.38,2.59.55,6.9,4.55,8.4a11.45,11.45,0,0,0,10.33-.91A5.33,5.33,0,0,1,97.28,238,12.5,12.5,0,0,1,86,238a4,4,0,0,1-2.35-3.27A30.7,30.7,0,0,1,84.18,229Z" style="opacity:0.2"></path></g><path id="freepik--shadow--inject-27" d="M115.49,170.45c3.77,2.18,3.77,5.71,0,7.89a15.1,15.1,0,0,1-13.67,0c-3.77-2.18-3.77-5.71,0-7.89A15.08,15.08,0,0,1,115.49,170.45Z" style="fill:#37474f"></path><path id="freepik--shadow--inject-27" d="M89.19,191l8.3-4.8a1.09,1.09,0,0,0,0-2.07l-5.68-3.28a4,4,0,0,0-3.59,0l-8.3,4.79a1.09,1.09,0,0,0,0,2.07L85.6,191A4,4,0,0,0,89.19,191Z" style="fill:#37474f"></path><path id="freepik--shadow--inject-27" d="M72.28,200.77l8.3-4.79a1.09,1.09,0,0,0,0-2.07l-5.68-3.28a4,4,0,0,0-3.59,0L63,195.42a1.09,1.09,0,0,0,0,2.07l5.69,3.28A4,4,0,0,0,72.28,200.77Z" style="fill:#37474f"></path><g id="freepik--Pot--inject-27"><path d="M102.65,174.88c-3.29-3.35-5.22-11.72-2-14.38h16.3c3.21,2.65,1.28,11-2,14.38l-.09.09-.12.11-.29.26-.08.07-.25.18a4,4,0,0,1-.43.28,10.8,10.8,0,0,1-9.78,0h0l-.43-.28-.23-.17-.1-.08-.29-.25a.8.8,0,0,0-.13-.13Z" style="fill:#ebebeb"></path><path d="M115.53,159.43c3.72,2.14,3.72,5.63,0,7.77a14.89,14.89,0,0,1-13.48,0c-3.72-2.14-3.72-5.63,0-7.77A14.89,14.89,0,0,1,115.53,159.43Z" style="fill:#fafafa"></path><path d="M112.89,161c2.26,1.31,2.26,3.42,0,4.73a9,9,0,0,1-8.2,0c-2.26-1.31-2.26-3.42,0-4.73A9,9,0,0,1,112.89,161Z" style="fill:#ebebeb"></path><path d="M104.69,163.19a9.11,9.11,0,0,1,8.2,0,3.79,3.79,0,0,1,1.36,1.25,3.77,3.77,0,0,1-1.36,1.24,9,9,0,0,1-8.2,0,3.73,3.73,0,0,1-1.35-1.24A3.75,3.75,0,0,1,104.69,163.19Z" style="fill:#e0e0e0"></path><path d="M112.39,164.44a18.54,18.54,0,0,0,3-3.94c1.36-2.42,1.62-5.67.91-6.07s-3.59,2.84-3.59,2.84a17.76,17.76,0,0,0,.3-4.14c-.12-2.15-.64-4.11-1.26-4.51s-2,2.33-2.59,4.3-.95,3.59-.95,3.59a30.29,30.29,0,0,0-1.06-4.54c-.72-2-1.37-2.51-1.88-2.3s-.84,1.15-1,3.88a26.09,26.09,0,0,0,.12,3.9s-1-1.12-2.15-2.2-1.77-1.35-2.12-1.13-.45,2.08,1.47,5.55a19.41,19.41,0,0,0,3.62,4.77S107.85,166.15,112.39,164.44Z" style="fill:#ED7D31"></path><path d="M112.39,164.44a18.54,18.54,0,0,0,3-3.94c1.36-2.42,1.62-5.67.91-6.07s-3.59,2.84-3.59,2.84a17.76,17.76,0,0,0,.3-4.14c-.12-2.15-.64-4.11-1.26-4.51s-2,2.33-2.59,4.3-.95,3.59-.95,3.59a30.29,30.29,0,0,0-1.06-4.54c-.72-2-1.37-2.51-1.88-2.3s-.84,1.15-1,3.88a26.09,26.09,0,0,0,.12,3.9s-1-1.12-2.15-2.2-1.77-1.35-2.12-1.13-.45,2.08,1.47,5.55a19.41,19.41,0,0,0,3.62,4.77S107.85,166.15,112.39,164.44Z" style="opacity:0.2"></path></g><g id="freepik--soap--inject-27"><path d="M85.08,162l2.61-1.5A2.23,2.23,0,0,1,90,160.3c.58.33,4.39,2.51,5,2.86a2.27,2.27,0,0,1,.91,2.06V184a1.79,1.79,0,0,1-.8,1.39l-7.41,4.27a.55.55,0,0,1-.56.05l-4.94-2.85a.54.54,0,0,1-.24-.51V167.56A7.09,7.09,0,0,1,85.08,162Z" style="fill:#ED7D31"></path><path d="M85.08,162l2.61-1.5A2.23,2.23,0,0,1,90,160.3c.58.33,4.39,2.51,5,2.86a2.27,2.27,0,0,1,.91,2.06v8.43L82.2,165.78A7.11,7.11,0,0,1,85.08,162Z" style="fill:#fff;opacity:0.7000000000000001"></path><path d="M95.83,184a1.79,1.79,0,0,1-.8,1.39l-7.41,4.27a.55.55,0,0,1-.56.05l-4.94-2.85a.54.54,0,0,1-.24-.51V167.56a5.72,5.72,0,0,1,.32-1.78l13.63,7.87Z" style="fill:#fff;opacity:0.6000000000000001"></path><path d="M87.62,189.63a.49.49,0,0,1-.8-.47V170.41a7.09,7.09,0,0,1,3.2-5.54l2.61-1.5a2.23,2.23,0,0,1,2.29-.21,2.27,2.27,0,0,1,.91,2.06V184a1.79,1.79,0,0,1-.8,1.39Z" style="fill:#ED7D31"></path><path d="M87.62,189.63a.49.49,0,0,1-.8-.47V170.41a7.09,7.09,0,0,1,3.2-5.54l2.61-1.5a2.23,2.23,0,0,1,2.29-.21,2.27,2.27,0,0,1,.91,2.06V184a1.79,1.79,0,0,1-.8,1.39Z" style="fill:#fff;opacity:0.8"></path><path d="M86.62,160v2.74a1.07,1.07,0,0,0,.63.87,3.33,3.33,0,0,0,3,0,1.05,1.05,0,0,0,.62-.87V160Z" style="fill:#37474f"></path><path d="M87.25,160.88a3.33,3.33,0,0,0,3,0,.92.92,0,0,0,0-1.74,3.33,3.33,0,0,0-3,0A.92.92,0,0,0,87.25,160.88Z" style="fill:#455a64"></path><path d="M88.12,155.63V160a.31.31,0,0,0,.19.26,1,1,0,0,0,.89,0,.33.33,0,0,0,.19-.26v-4.41Z" style="fill:#37474f"></path><path d="M88.12,157.51h.1a10.7,10.7,0,0,1,1.17.14v-2H88.12Z" style="fill:#263238"></path><path d="M92.61,157.23l-.44-.31a2.59,2.59,0,0,1-1.09-1.62,1.21,1.21,0,0,0-.84-.79,3.75,3.75,0,0,0-2.53.08c-1.32.53-1.57,1.52-.64,2.06a2.62,2.62,0,0,0,1.15.32,7.74,7.74,0,0,1,2.78.62l.53.26A1.1,1.1,0,0,0,92.61,157.23Z" style="fill:#455a64"></path></g><g id="freepik--soap--inject-27"><path d="M68.13,171.79l2.6-1.5a2.26,2.26,0,0,1,2.26-.23c.58.34,4.39,2.52,5,2.87a2.25,2.25,0,0,1,.91,2v18.76a1.76,1.76,0,0,1-.8,1.38l-7.4,4.27a.57.57,0,0,1-.57.06l-4.94-2.85a.56.56,0,0,1-.23-.52V177.33A7.06,7.06,0,0,1,68.13,171.79Z" style="fill:#ED7D31"></path><path d="M68.13,171.79l2.6-1.5a2.26,2.26,0,0,1,2.26-.23c.58.34,4.39,2.52,5,2.87a2.25,2.25,0,0,1,.91,2v8.44l-13.63-7.87A7.09,7.09,0,0,1,68.13,171.79Z" style="fill:#fff;opacity:0.7000000000000001"></path><path d="M78.87,193.74a1.76,1.76,0,0,1-.8,1.38l-7.4,4.27a.57.57,0,0,1-.57.06l-4.94-2.85a.56.56,0,0,1-.23-.52V177.33a5.7,5.7,0,0,1,.31-1.78l13.63,7.87Z" style="fill:#fff;opacity:0.6000000000000001"></path><path d="M70.67,199.39a.57.57,0,0,1-.57.06.56.56,0,0,1-.23-.52V180.18a7.06,7.06,0,0,1,3.2-5.54l2.6-1.5a1.95,1.95,0,0,1,3.2,1.84v18.76a1.76,1.76,0,0,1-.8,1.38Z" style="fill:#ED7D31"></path><path d="M70.67,199.39a.57.57,0,0,1-.57.06.56.56,0,0,1-.23-.52V180.18a7.06,7.06,0,0,1,3.2-5.54l2.6-1.5a1.95,1.95,0,0,1,3.2,1.84v18.76a1.76,1.76,0,0,1-.8,1.38Z" style="fill:#fff;opacity:0.8"></path><path d="M69.67,169.78v2.74a1,1,0,0,0,.62.86,3.27,3.27,0,0,0,3,0,1.05,1.05,0,0,0,.63-.86v-2.74Z" style="fill:#37474f"></path><path d="M70.29,170.65a3.33,3.33,0,0,0,3,0,.92.92,0,0,0,0-1.74,3.33,3.33,0,0,0-3,0A.92.92,0,0,0,70.29,170.65Z" style="fill:#455a64"></path><path d="M71.16,165.4v4.41a.32.32,0,0,0,.19.25,1,1,0,0,0,.9,0,.31.31,0,0,0,.18-.25V165.4Z" style="fill:#37474f"></path><path d="M71.16,167.27l.11,0a8.56,8.56,0,0,1,1.16.14v-2H71.16Z" style="fill:#263238"></path><path d="M75.65,167l-.44-.31a2.67,2.67,0,0,1-1.09-1.63,1.2,1.2,0,0,0-.84-.78,3.72,3.72,0,0,0-2.52.08c-1.33.53-1.58,1.52-.64,2.06a2.58,2.58,0,0,0,1.15.31,8,8,0,0,1,2.77.63l.54.26A1.08,1.08,0,0,0,75.65,167Z" style="fill:#455a64"></path></g><g id="freepik--Towels--inject-27"><polygon id="freepik--shadow--inject-27" points="95.56 141.24 121.92 126.03 105.16 116.34 78.83 131.56 95.56 141.24" style="fill:#37474f"></polygon><path d="M81.48,127.72v3.1a1.35,1.35,0,0,0,.68,1.17l12.58,7.27a1.31,1.31,0,0,0,1.31.14l23.53-13.59a1.14,1.14,0,0,0,.48-1,3.86,3.86,0,0,0-1.79-3L105,114.14Z" style="fill:#e6e6e6"></path><path d="M94.74,135.38l-13.26-7.66v3.1a1.35,1.35,0,0,0,.68,1.17l12.58,7.27c1,.57,1.79.17,1.79-.91A3.83,3.83,0,0,0,94.74,135.38Z" style="opacity:0.2"></path><path d="M93.69,136.07a1.28,1.28,0,0,1,.6,1c0,.36-.27.49-.6.3l-12.21-7.05V129Z" style="opacity:0.2"></path><path d="M81.48,123.51v3.1a1.38,1.38,0,0,0,.68,1.18l12.58,7.26a1.31,1.31,0,0,0,1.31.14l23.53-13.58a1.17,1.17,0,0,0,.48-1,3.86,3.86,0,0,0-1.79-3L105,109.93Z" style="fill:#f0f0f0"></path><path d="M94.74,131.17l-13.26-7.66v3.1a1.38,1.38,0,0,0,.68,1.18l12.58,7.26c1,.57,1.79.17,1.79-.9A3.83,3.83,0,0,0,94.74,131.17Z" style="opacity:0.2"></path><path d="M93.69,131.86a1.29,1.29,0,0,1,.6,1c0,.36-.27.5-.6.3L81.48,126.1v-1.29Z" style="opacity:0.2"></path><path d="M81.48,119v3.1a1.35,1.35,0,0,0,.68,1.17l12.58,7.27a1.31,1.31,0,0,0,1.31.14l23.53-13.59a1.14,1.14,0,0,0,.48-1,3.86,3.86,0,0,0-1.79-3L105,105.46Z" style="fill:#fafafa"></path><polygon points="108.82 107.66 85.3 121.25 86.43 121.9 109.96 108.32 108.82 107.66" style="fill:#ED7D31"></polygon><path d="M94.74,126.7,81.48,119v3.1a1.35,1.35,0,0,0,.68,1.17l12.58,7.27c1,.57,1.79.17,1.79-.91A3.83,3.83,0,0,0,94.74,126.7Z" style="opacity:0.2"></path><path d="M93.69,127.39a1.28,1.28,0,0,1,.6,1c0,.36-.27.49-.6.3l-12.21-7.05v-1.3Z" style="opacity:0.2"></path></g><g id="freepik--towels--inject-27"><polygon id="freepik--shadow--inject-27" points="67.12 157.41 93.48 142.2 76.72 132.52 50.38 147.73 67.12 157.41" style="fill:#37474f"></polygon><path d="M53,143.89V147a1.38,1.38,0,0,0,.68,1.18l12.57,7.26a1.31,1.31,0,0,0,1.31.14L91.13,142a1.15,1.15,0,0,0,.48-1.05,3.83,3.83,0,0,0-1.79-3l-13.26-7.66Z" style="fill:#e6e6e6"></path><path d="M66.29,151.55,53,143.89V147a1.38,1.38,0,0,0,.68,1.18l12.57,7.26c1,.57,1.8.17,1.8-.9A3.84,3.84,0,0,0,66.29,151.55Z" style="opacity:0.2"></path><path d="M65.25,152.24a1.28,1.28,0,0,1,.6,1c0,.36-.27.49-.6.3L53,146.48v-1.29Z" style="opacity:0.2"></path><path d="M53,139.68v3.1a1.36,1.36,0,0,0,.68,1.18l12.57,7.26a1.31,1.31,0,0,0,1.31.14l23.53-13.58a1.15,1.15,0,0,0,.48-1.05,3.83,3.83,0,0,0-1.79-3L76.56,126.1Z" style="fill:#f0f0f0"></path><path d="M66.29,147.34,53,139.68v3.1a1.36,1.36,0,0,0,.68,1.18l12.57,7.26c1,.58,1.8.17,1.8-.9A3.86,3.86,0,0,0,66.29,147.34Z" style="opacity:0.2"></path><path d="M65.25,148a1.29,1.29,0,0,1,.6,1c0,.36-.27.5-.6.31L53,142.27V141Z" style="opacity:0.2"></path><path d="M53,135.21v3.1a1.38,1.38,0,0,0,.68,1.18l12.57,7.26a1.31,1.31,0,0,0,1.31.14l23.53-13.58a1.15,1.15,0,0,0,.48-1.05,3.83,3.83,0,0,0-1.79-3l-13.26-7.66Z" style="fill:#fafafa"></path><polygon points="81.73 124.61 58.21 138.2 57.07 137.54 80.6 123.95 81.73 124.61" style="fill:#ED7D31"></polygon><path d="M66.29,142.87,53,135.21v3.1a1.38,1.38,0,0,0,.68,1.18l12.57,7.26c1,.57,1.8.17,1.8-.9A3.84,3.84,0,0,0,66.29,142.87Z" style="opacity:0.2"></path><path d="M65.25,143.56a1.28,1.28,0,0,1,.6,1c0,.36-.27.49-.6.3L53,137.8v-1.29Z" style="opacity:0.2"></path></g><polygon points="57.09 114.09 57.09 304.21 39.38 293.99 39.38 103.87 57.09 114.09" style="fill:#263238"></polygon><polygon points="57.09 114.1 130.83 71.81 113.12 61.59 39.38 103.87 57.09 114.1" style="fill:#455a64"></polygon><polygon points="57.09 304.21 61.96 301.4 61.96 111.28 57.09 114.09 57.09 304.21" style="fill:#37474f"></polygon><g id="freepik--Jar--inject-27"><path d="M86.44,290.24c-5.06,2.92-13.27,2.92-18.34,0s-5.06-7.66,0-10.58,13.28-2.93,18.34,0S91.5,287.32,86.44,290.24Z" style="fill:#37474f"></path><g id="freepik--jar--inject-27"><path d="M65.87,274.25c0-1.68,1.12-3.36,3.34-4.65,4.45-2.57,11.67-2.57,16.12,0,2.23,1.29,3.34,3,3.34,4.65h0v10h0c0,1.69-1.11,3.37-3.34,4.66-4.45,2.57-11.67,2.57-16.12,0-2.22-1.29-3.34-3-3.34-4.66h0Z" style="fill:#ED7D31"></path><path d="M65.87,274.25c0-1.68,1.12-3.36,3.34-4.65,4.45-2.57,11.67-2.57,16.12,0,2.23,1.29,3.34,3,3.34,4.65h0v10h0c0,1.69-1.11,3.37-3.34,4.66-4.45,2.57-11.67,2.57-16.12,0-2.22-1.29-3.34-3-3.34-4.66h0Z" style="opacity:0.2"></path><path d="M70.26,269.07v20.34c-.37-.17-.72-.34-1.05-.53a8.87,8.87,0,0,1-1.81-1.38V271a8.84,8.84,0,0,1,1.81-1.37C69.54,269.41,69.89,269.24,70.26,269.07Z" style="fill:#fff;opacity:0.15"></path><path d="M73.24,290.38c-.56-.13-1.11-.28-1.64-.45V268.55c.53-.17,1.08-.33,1.64-.45Z" style="fill:#fff;opacity:0.15"></path><path d="M66.07,273a8.16,8.16,0,0,1,2.65-2.31c4.4-2.53,11.33-2.7,16.08-.52v-.89c.18.09.36.18.53.28,2.23,1.29,3.34,3,3.34,4.65v3.48h0v6.49c0,1.69-1.11,3.37-3.34,4.66-4.45,2.57-11.67,2.57-16.12,0a8.48,8.48,0,0,1-2-1.59c2.12,2,7.4,3.07,11.32,2.3s6.3-3.28,6.3-5.06v-3.4c-4.75,2.19-11.68,2-16.08-.52A7.8,7.8,0,0,1,65.87,278v-3.73A3.93,3.93,0,0,1,66.07,273Z" style="fill:#ED7D31;opacity:0.2"></path><path d="M86.75,285V270.6a4.88,4.88,0,0,1,1.92,3.65v10c0,1.69-1.11,3.37-3.34,4.66A14.37,14.37,0,0,1,81,290.44C85.29,289.28,86.75,286.35,86.75,285Z" style="opacity:0.15"></path><path d="M84.68,288.36a18.6,18.6,0,0,1-14.81,0c-4.09-2.06-4.09-5.39,0-7.44a18.52,18.52,0,0,1,14.81,0C88.77,283,88.77,286.3,84.68,288.36Z" style="fill:#ED7D31;opacity:0.30000000000000004"></path><path d="M65.59,272.57c0-1.73,1.14-3.46,3.42-4.77,4.56-2.64,12-2.64,16.52,0,2.29,1.31,3.43,3,3.43,4.77h0v2.88h0c0,1.72-1.14,3.45-3.43,4.77-4.56,2.63-12,2.63-16.52,0-2.28-1.32-3.42-3.05-3.42-4.77h0v-2.88Z" style="fill:#e0e0e0"></path><path d="M74.48,282c5.78,0,8.83-1.85,9.76-3.38.7-1.16.82-1,.82-3.15,0,0,.65-4.85.53-4.87s1.38-.32,2.51-.56a4.39,4.39,0,0,1,.86,2.54h0v2.88h0c0,1.72-1.14,3.45-3.43,4.77A18,18,0,0,1,74.48,282Z" style="opacity:0.1"></path><g style="opacity:0.1"><path d="M85.58,280.18c.21-.12.37-.26.56-.39v-4.28h-.56Z"></path><path d="M83.41,281.17,84,281v-4.38h-.56Z"></path><path d="M78.44,282.13l.56,0v-4.49h-.56Z"></path><path d="M87.87,278.23V274h-.56v4.83A5.32,5.32,0,0,0,87.87,278.23Z"></path><path d="M88.68,276.87a4.22,4.22,0,0,0,.28-1.42h0v-2.88h0a4,4,0,0,0-.16-1h-.12Z"></path><path d="M81,281.81c.19,0,.38-.05.56-.09v-4.45H81Z"></path><path d="M66.6,278.15a5.41,5.41,0,0,0,.56.62v-4.51H66.6Z"></path><path d="M73.22,281.76c.18,0,.37.06.56.09v-4.54h-.56Z"></path><path d="M75.81,282.11l.56,0v-4.52h-.56Z"></path><path d="M65.59,275.45a4.11,4.11,0,0,0,.28,1.41v-4.77h-.2a4,4,0,0,0-.08.48Z"></path><path d="M70.77,281.05c.18.07.38.12.56.18v-4.54h-.56Z"></path><path d="M68.55,279.89c.16.11.28.22.46.33l.1,0v-4.5h-.56Z"></path></g><path d="M85.53,277.34C81,280,73.57,280,69,277.34s-4.56-6.91,0-9.54,12-2.64,16.52,0S90.1,274.7,85.53,277.34Z" style="fill:#ebebeb"></path><path d="M82.73,283.66c-4.33,1.36-9.86,1-13.52-1.12-2.22-1.29-3.34-3-3.34-4.66v4.26c0,1.69,1.11,3.37,3.34,4.65,3.66,2.12,9.18,2.48,13.51,1.12Z" style="fill:#ED7D31"></path><path d="M82.73,283.66c-4.33,1.36-9.86,1-13.52-1.12-2.22-1.29-3.34-3-3.34-4.66v4.26c0,1.69,1.11,3.37,3.34,4.65,3.66,2.12,9.18,2.48,13.51,1.12Z" style="fill:#fff;opacity:0.6000000000000001"></path><path d="M68.38,276.94c-3.91-2.65-3.71-6.64.63-9.14a16.67,16.67,0,0,1,8-2,13,13,0,0,1,4.26,1.45c4,2.26,4,6.76,0,9C77.79,278.31,72.32,278.52,68.38,276.94Z" style="fill:#f5f5f5"></path><path d="M88.06,275.16s-3.8,3.82-11.14,3.62-10.28-4.21-10.66-5.45a4.58,4.58,0,0,1,1-4.23,4.87,4.87,0,0,0-1.66,3.47v2.88c0,.43-.23,1.94,2.14,3.89a5.75,5.75,0,0,1-1.39-3.1V275s2.6,4.35,10.58,4.35S87.66,275.81,88.06,275.16Z" style="fill:#fff"></path></g></g><g id="freepik--Scissors--inject-27"><path d="M109.5,298.08a5.16,5.16,0,0,1-1.37-.2c-1.35-.38-1.77-1.08-1.89-1.61a2.45,2.45,0,0,1,.92-2.23l.7-.55a5.89,5.89,0,0,0,1.65-1.61l.92-2.35-.69-.4.15-.35-.72.15-.33-.43c-.71.35-2.47,1.2-4.83,2.38l-1.41.71a12.8,12.8,0,0,1-3.16,1.33,5.4,5.4,0,0,1-1.25.15,2.51,2.51,0,0,1-2-.71,2,2,0,0,1-.44-1.6c.25-2.21,4.57-4.14,6.81-4.35.74-.06,1.43-.1,2.18-.1l1,0h.65l.54,0c.85-.08,3.49-.57,3.51-.57l.29-.06.18.24.66-.13c.87-.62,7.54-5.35,9.12-6.43a11.75,11.75,0,0,1,3.28-1.74h.28l.18.27.13.25-.18.3a13,13,0,0,1-2.51,2.88c-.57.45-2.19,1.83-3.8,3.21l12.19-2.37-.54.91c-.15.26-.94,1-5,2.2-2.48.73-7,1.78-10.4,2.54l-.56.47c0,.61-.16,2.46-.24,3.43a3.59,3.59,0,0,0,.18,1.15,3.35,3.35,0,0,1-.21,2.87A4.76,4.76,0,0,1,109.5,298.08Zm.86-3.51a2.2,2.2,0,0,0-1.59.62.55.55,0,0,0-.17.47.72.72,0,0,0,.54.4,1.79,1.79,0,0,0,.53.07,2.19,2.19,0,0,0,1.6-.63.53.53,0,0,0,.17-.47.74.74,0,0,0-.54-.39A1.81,1.81,0,0,0,110.36,294.57Zm-6.24-6.48a8.55,8.55,0,0,0-2.63.45c-2.34.77-3.08,1.73-3.31,2.23,0,.07-.09.23,0,.31a.48.48,0,0,0,.39.14.85.85,0,0,0,.23,0,3.8,3.8,0,0,0,1.22-.59,15.43,15.43,0,0,1,1.47-.83,27.36,27.36,0,0,1,3.78-1.53l0,0A4.39,4.39,0,0,0,104.12,288.09Z" style="fill:#37474f"></path><path d="M110.57,286.23l18.73-4.15,0,.51s-.4.68-4.78,2-15.2,3.59-15.2,3.59l-.44-.6Z" style="fill:#e0e0e0"></path><path d="M113.16,287a1,1,0,0,1-.93.18c-.34-.1-.48-.34-.31-.54a1,1,0,0,1,.93-.18C113.2,286.52,113.34,286.76,113.16,287Z" style="fill:#263238"></path><path d="M110.56,286s-2.68.49-3.56.57-2.15-.1-4.36.1-6.17,2.09-6.37,3.93,1.69,2,3.06,1.64,2.12-.84,4.46-2c3.13-1.56,5.2-2.55,5.2-2.55l1.75-1.45Zm-5.18,2.47a27.89,27.89,0,0,0-3.72,1.51c-1.5.73-1.85,1.23-2.79,1.45-.76.18-1.5-.24-1.12-1.08s1.52-1.8,3.59-2.48a6.44,6.44,0,0,1,4.51-.15C106.14,287.83,106.28,288.14,105.38,288.43Z" style="fill:#ED7D31"></path><path d="M110.56,286s-2.68.49-3.56.57-2.15-.1-4.36.1-6.17,2.09-6.37,3.93,1.69,2,3.06,1.64,2.12-.84,4.46-2c3.13-1.56,5.2-2.55,5.2-2.55l1.75-1.45Zm-5.18,2.47a27.89,27.89,0,0,0-3.72,1.51c-1.5.73-1.85,1.23-2.79,1.45-.76.18-1.5-.24-1.12-1.08s1.52-1.8,3.59-2.48a6.44,6.44,0,0,1,4.51-.15C106.14,287.83,106.28,288.14,105.38,288.43Z" style="opacity:0.2"></path><polygon points="109.36 288.15 109.36 287.59 108.99 287.09 108.99 287.64 109.36 288.15" style="fill:#e0e0e0"></polygon><polygon points="109.36 288.15 109.36 287.59 108.99 287.09 108.99 287.64 109.36 288.15" style="opacity:0.2"></polygon><path d="M110.57,285.68,129.34,282s-.4.69-4.78,2-15.2,3.58-15.2,3.58l-.44-.6Z" style="fill:#ebebeb"></path><path d="M110.56,285.41s-2.68.49-3.56.57-2.15-.1-4.36.1-6.17,2.09-6.37,3.92,1.69,2,3.06,1.65,2.12-.84,4.46-2c3.13-1.56,5.2-2.55,5.2-2.55l1.75-1.45Zm-5.18,2.47a29,29,0,0,0-3.72,1.5c-1.5.74-1.85,1.24-2.79,1.46-.76.18-1.5-.24-1.12-1.08s1.52-1.8,3.59-2.48a6.44,6.44,0,0,1,4.51-.15C106.14,287.28,106.28,287.58,105.38,287.88Z" style="fill:#ED7D31"></path><path d="M124,277.92a13,13,0,0,1-2.42,2.78c-1.31,1-8.32,7.11-8.32,7.11L111,289.06l-.68-.39,1-2.37s7.92-5.62,9.63-6.79S124.24,277.6,124,277.92Z" style="fill:#f0f0f0"></path><polygon points="124.04 277.32 124.04 277.87 123.45 278.3 123.35 277.81 124.04 277.32" style="fill:#f0f0f0"></polygon><polygon points="110.34 288.12 111.02 288.51 110.84 288.96 110.34 288.67 110.34 288.12" style="fill:#e0e0e0"></polygon><path d="M113.07,295.22c.87-1.35-.14-2.64,0-3.8s.25-3.61.25-3.61L111,289.06s-.75,1.92-1.06,2.73-1.67,1.66-2.49,2.36-1.53,2.36.79,3A4.15,4.15,0,0,0,113.07,295.22Zm-4.07,1c-.89-.26-1.16-1-.59-1.64a2.76,2.76,0,0,1,2.63-.7c.89.26,1.15,1,.59,1.64A2.76,2.76,0,0,1,109,296.26Z" style="fill:#ED7D31"></path><path d="M113.07,295.22c.87-1.35-.14-2.64,0-3.8s.25-3.61.25-3.61L111,289.06s-.75,1.92-1.06,2.73-1.67,1.66-2.49,2.36-1.53,2.36.79,3A4.15,4.15,0,0,0,113.07,295.22Zm-4.07,1c-.89-.26-1.16-1-.59-1.64a2.76,2.76,0,0,1,2.63-.7c.89.26,1.15,1,.59,1.64A2.76,2.76,0,0,1,109,296.26Z" style="opacity:0.2"></path><path d="M124,277.37a13,13,0,0,1-2.42,2.78c-1.31,1-8.32,7.11-8.32,7.11L111,288.51l-.68-.4,1-2.37s7.92-5.61,9.63-6.79S124.24,277,124,277.37Z" style="fill:#fafafa"></path><path d="M113.07,294.67c.87-1.36-.14-2.64,0-3.81s.25-3.6.25-3.6L111,288.51s-.75,1.92-1.06,2.73-1.67,1.66-2.49,2.36-1.53,2.36.79,3A4.15,4.15,0,0,0,113.07,294.67Zm-4.07,1c-.89-.26-1.16-1-.59-1.64a2.74,2.74,0,0,1,2.63-.7c.89.26,1.15,1,.59,1.64A2.79,2.79,0,0,1,109,295.71Z" style="fill:#ED7D31"></path><path d="M113.16,286.41a1,1,0,0,1-.93.18c-.34-.1-.48-.34-.31-.54a1,1,0,0,1,.93-.18C113.2,286,113.34,286.21,113.16,286.41Z" style="fill:#263238"></path></g><g id="freepik--Brush--inject-27"><path d="M133,272.21a9.49,9.49,0,0,1,8.59,0c2.37,1.37,2.37,3.59,0,5a9.49,9.49,0,0,1-8.59,0C130.65,275.8,130.65,273.58,133,272.21Z" style="fill:#37474f"></path><path d="M141.85,274.18h0l-1.43-7.07h0a1.63,1.63,0,0,0-.9-1.16,5,5,0,0,0-4.45,0,1.63,1.63,0,0,0-.9,1.16h0l-1.43,7.07h0a2.11,2.11,0,0,0,1.29,2.19,7.18,7.18,0,0,0,6.51,0A2.11,2.11,0,0,0,141.85,274.18Z" style="fill:#e0e0e0"></path><path d="M141.89,259.47h-9.17l1.45,7.9h0a1.6,1.6,0,0,0,.9,1.15,4.91,4.91,0,0,0,4.45,0,1.6,1.6,0,0,0,.9-1.15h0Z" style="fill:#ED7D31"></path><path d="M140.56,257.4c1.79,1,1.79,2.72,0,3.76a7.24,7.24,0,0,1-6.51,0c-1.79-1-1.79-2.72,0-3.76A7.18,7.18,0,0,1,140.56,257.4Z" style="fill:#ED7D31"></path><path d="M140.56,257.4c1.79,1,1.79,2.72,0,3.76a7.24,7.24,0,0,1-6.51,0c-1.79-1-1.79-2.72,0-3.76A7.18,7.18,0,0,1,140.56,257.4Z" style="fill:#fff;opacity:0.5"></path><path d="M134.4,257.4a6.4,6.4,0,0,1,5.84,0c1.61.93,1.61,2.44,0,3.37a6.46,6.46,0,0,1-5.84,0C132.78,259.84,132.78,258.33,134.4,257.4Z" style="opacity:0.1"></path><path d="M138.33,255a6.54,6.54,0,0,1,2.19,1.28,2.35,2.35,0,0,1,.53,2.72,2.4,2.4,0,0,1-2.12,1.31,6.14,6.14,0,0,0-.05-2.59C138.55,256.35,138.33,255,138.33,255Z" style="fill:#f0f0f0"></path><path d="M136.64,254.88c-.31.44-1.4.68-2.12,1.16a2.54,2.54,0,0,0-1.29,1.41,1.6,1.6,0,0,0,.76,1.93c.82.39,2.48-.94,2.65-1.42A17.36,17.36,0,0,0,136.64,254.88Z" style="fill:#e0e0e0"></path><path d="M137.15,254.07a1.54,1.54,0,0,0-.55,1.39,2.45,2.45,0,0,1-1.45,2.48c-1.31.7-1.47,1.39-.77,2a2.19,2.19,0,0,0,1.6.46s2-.45,2.35-1.91A5.36,5.36,0,0,0,137.15,254.07Z" style="fill:#f0f0f0"></path><path d="M137.32,260.83c-1.27,0-1.78-.54-1.19-1.27.29-.36.82-.51,1.15-.87a2.29,2.29,0,0,0,.67-1.38c.12-1.29-1.45-2.64-.54-3.77.1.62.36,1,1.27,1.71a3.6,3.6,0,0,1,1.12,4A3,3,0,0,1,137.32,260.83Z" style="fill:#fafafa"></path><path d="M139.94,259.53a2.78,2.78,0,0,0,.07-1.44,2.39,2.39,0,0,1-1.92,1.87,3.28,3.28,0,0,1-1.29.14c-.49,0-.78-.23-.76-.42l.07-.09.08-.1,0,0,0,0,.11-.09.05,0,0,0,.23-.14.37-.24.06-.05.1-.09h0l.08-.08.12-.15.06-.07v0a.47.47,0,0,0,.09-.12.6.6,0,0,0,.09-.15,2.37,2.37,0,0,0,.18-.38l0-.08v0a2.67,2.67,0,0,1-1.47,1.28,2.91,2.91,0,0,1-1.72.19c-.54-.08-.56-.37-.56-.41l0,0a3,3,0,0,1,1-.76,3.56,3.56,0,0,0,.59-.4,3,3,0,0,1-.71.33,3.13,3.13,0,0,1-1.28.13c-.47-.1-.55-.33-.47-.67l-.05.12a1.6,1.6,0,0,0,.76,1.93h0a1,1,0,0,0,.38.57,2.19,2.19,0,0,0,1.6.46h0a1.66,1.66,0,0,0,1.34.42,3.18,3.18,0,0,0,1.61-.57h0a2.4,2.4,0,0,0,2.12-1.31,2.14,2.14,0,0,0,.22-1.14h0A1.82,1.82,0,0,1,139.94,259.53Z" style="opacity:0.05"></path></g><g id="freepik--Bowl--inject-27"><path d="M103,279.32a16.71,16.71,0,0,1-8.22-1.95c-2.07-1.2-3.2-2.74-3.2-4.35s1.13-3.15,3.2-4.34a18.24,18.24,0,0,1,16.45,0c2.06,1.19,3.2,2.73,3.2,4.34s-1.13,3.15-3.2,4.35A16.78,16.78,0,0,1,103,279.32Z" style="fill:#37474f"></path><path d="M114,266.43a11,11,0,0,1-22,0C92,260.35,114,260.35,114,266.43Z" style="fill:#ED7D31"></path><path d="M114,266.43a11,11,0,0,1-22,0C92,260.35,114,260.35,114,266.43Z" style="opacity:0.30000000000000004"></path><path d="M95.24,262a17.16,17.16,0,0,1,15.51,0c4.28,2.48,4.28,6.49,0,9a17.16,17.16,0,0,1-15.51,0C91,268.44,91,264.43,95.24,262Z" style="fill:#ED7D31"></path><path d="M103,272.13a15.09,15.09,0,0,1-7.43-1.77c-1.87-1.08-2.9-2.47-2.9-3.93s1-2.85,2.9-3.93a16.5,16.5,0,0,1,14.87,0c1.87,1.08,2.9,2.48,2.9,3.93s-1,2.85-2.9,3.93A15.16,15.16,0,0,1,103,272.13Z" style="fill:#ED7D31"></path><path d="M103,272.13a15.09,15.09,0,0,1-7.43-1.77c-1.87-1.08-2.9-2.47-2.9-3.93s1-2.85,2.9-3.93a16.5,16.5,0,0,1,14.87,0c1.87,1.08,2.9,2.48,2.9,3.93s-1,2.85-2.9,3.93A15.16,15.16,0,0,1,103,272.13Z" style="opacity:0.30000000000000004"></path><path d="M112.33,268.27a3.76,3.76,0,0,1,0,.58,0,0,0,0,1,0,0,1.56,1.56,0,0,1-.22.23,7,7,0,0,1-1.62,1.23,8.81,8.81,0,0,1-1,.49l-.52.23a11.62,11.62,0,0,1-1.26.41,4.23,4.23,0,0,1-.58.17,13.56,13.56,0,0,0-.36-4.1c-.77-3.06-1.28-6.32-1.28-6.32a15.43,15.43,0,0,1,5.09,3,5.52,5.52,0,0,1,1.74,3.7h0s0,0,0,0A1.16,1.16,0,0,1,112.33,268.27Z" style="fill:#f0f0f0"></path><path d="M101.55,268.24a8.24,8.24,0,0,1-3.27,2.84,4.74,4.74,0,0,1-.51.24,8.3,8.3,0,0,1-1.15-.44h0l-.43-.2,0,0-.58-.31a0,0,0,0,1,0,0,6.82,6.82,0,0,1-2.1-1.75,3.92,3.92,0,0,1,.17-1.55c0-.1.07-.16.09-.25h0c.47-1.28,1.31-2,2.9-3s4.19-1.66,4.94-2.67C101.58,261.43,102,267.15,101.55,268.24Z" style="fill:#e0e0e0"></path><path d="M105.47,269.5a5.19,5.19,0,0,1-1.8,2.62H103a18.57,18.57,0,0,1-2.62-.19h0a14,14,0,0,1-2.59-.62,8.3,8.3,0,0,1-1.15-.44h0l-.43-.2,0,0-.58-.31a0,0,0,0,1,0,0,1.86,1.86,0,0,1,.19-.33l0-.06a4.94,4.94,0,0,1,.39-.44,6.64,6.64,0,0,1,1.13-.88l.77-.44a3.85,3.85,0,0,0,.4-.24,3,3,0,0,0,.35-.22l.33-.23.3-.25a5.55,5.55,0,0,0,2-4.83,6,6,0,0,1,.1-1.33,1.46,1.46,0,0,1,.07-.3,3.56,3.56,0,0,1,1.1-1.6l0,0a5,5,0,0,1,1.21,1.54C105.29,263.05,106.17,266.88,105.47,269.5Z" style="fill:#f0f0f0"></path><path d="M109.39,268.54v0h0a8.2,8.2,0,0,1-.42,2.51,11.62,11.62,0,0,1-1.26.41,4.23,4.23,0,0,1-.58.17,17.09,17.09,0,0,1-3.44.47H103a18.57,18.57,0,0,1-2.62-.19v0a1.14,1.14,0,0,1,.11-.11l.1-.11.08-.07a2.39,2.39,0,0,1,.26-.21l.07-.05a.14.14,0,0,1,0,0l.07,0,.53-.34h0c.35-.23.66-.42.87-.57l.12-.11a1,1,0,0,0,.22-.19l0,0,.2-.19.27-.35a.7.7,0,0,0,.14-.16.09.09,0,0,0,0-.05l.21-.29a2.42,2.42,0,0,0,.2-.33,4.36,4.36,0,0,0,.42-.89,1.88,1.88,0,0,0,.05-.2v0a4,4,0,0,0,.17-.85c.18-2-1.38-4.07-1.81-6a3.41,3.41,0,0,1,0-1.52,2.64,2.64,0,0,1,.59-1.26,4.66,4.66,0,0,0,1.69,2.89h0c.14.12.28.26.43.38s.51.44.81.69A8.49,8.49,0,0,1,109.39,268.54Z" style="fill:#fafafa"></path><path d="M95.55,270.34a6.82,6.82,0,0,1-2.1-1.75,3.92,3.92,0,0,1,.17-1.55c0-.1.07-.16.09-.25-.18.78,0,1.31,1.11,1.53a7.53,7.53,0,0,0,3-.29,6.48,6.48,0,0,0,1.65-.78l-.3.25-.33.23a3,3,0,0,1-.35.22,3.85,3.85,0,0,1-.4.24l-.77.44a6.64,6.64,0,0,0-1.13.88,4.94,4.94,0,0,0-.39.44l0,.06a.79.79,0,0,0,.4.65l-.58-.31A0,0,0,0,1,95.55,270.34Z" style="opacity:0.05"></path><path d="M104.43,267.57v0a1.88,1.88,0,0,1-.05.2,4.36,4.36,0,0,1-.42.89,2.42,2.42,0,0,1-.2.33l-.21.29a.09.09,0,0,1,0,.05.7.7,0,0,1-.14.16l-.27.35-.2.19,0,0a1,1,0,0,1-.22.19l-.12.11c-.21.15-.52.34-.87.57h0l-.53.34-.07,0a.14.14,0,0,0,0,0l-.07.05a2.39,2.39,0,0,0-.26.21l-.08.07-.1.11a1.14,1.14,0,0,0-.11.11v0h0a14,14,0,0,1-2.59-.62,8.3,8.3,0,0,1-1.15-.44A1.9,1.9,0,0,0,97,271a11,11,0,0,0,1.24.11,6.33,6.33,0,0,0,2.76-.53A6.25,6.25,0,0,0,104.43,267.57Z" style="opacity:0.05"></path><path d="M109.39,268.56a7.26,7.26,0,0,1,.08,2.28l-.52.23a11.62,11.62,0,0,1-1.26.41,4.89,4.89,0,0,0,1.68-2.92Z" style="opacity:0.05"></path><path d="M112.33,268.27a3.76,3.76,0,0,1,0,.58v0h0a1.56,1.56,0,0,1-.22.23,4,4,0,0,0,.24-1.17s0,0,0,0h0s0,0,0,0A2.55,2.55,0,0,1,112.33,268.27Z" style="opacity:0.05"></path><path d="M112.2,269l.09-.11v0a3.76,3.76,0,0,0,0-.58,1.43,1.43,0,0,0,0-.29,7.28,7.28,0,0,1-1.87,1.5,16.5,16.5,0,0,1-14.87,0,7,7,0,0,1-2.09-1.76,4.9,4.9,0,0,0,0,.86l.15.18a3.22,3.22,0,0,0,.24.28c.1.11.22.21.33.31s.1.1.15.15l.37.28c.27.19.55.38.86.56a0,0,0,0,0,0,0l.06,0a9.89,9.89,0,0,0,1.18.56,6.67,6.67,0,0,0,.78.31q.48.17,1,.3c.15,0,.29.1.45.13a14.56,14.56,0,0,0,1.65.29l.54.06a17.18,17.18,0,0,0,1.77.1h0c.52,0,1,0,1.52-.08l.74-.07c.45-.05.9-.14,1.33-.23l.5-.1a14.5,14.5,0,0,0,1.45-.44l.34-.12a10.2,10.2,0,0,0,1.56-.74l.18-.12c.2-.12.39-.24.57-.37a3.55,3.55,0,0,0,.31-.23c.16-.14.32-.27.46-.41l.18-.16Z" style="opacity:0.05"></path></g></g></g><g id="freepik--Character--inject-27"><g id="freepik--Chartacter--inject-27"><g id="freepik--Bottom--inject-27"><path d="M391.63,358.84,393,341.77l-19.67,1.83s.55,9.23,1,14.45c.25,3.08-3.81,8.94-3.81,8.94s9.39,4.65,14.31,2.8,7.36-8,7.26-9.36S391.63,358.84,391.63,358.84Z" style="fill:#ffbda7"></path><path d="M344.9,386.73c-.31,0-.74,3.18,1,4.51,2,1.54,7.72,4,15.28,3s11.62-3.19,14.62-5.56,7.21-5.73,10.62-6.46c3.17-.68,6.61-2.05,7.62-3s.82-5,.82-5Z" style="fill:#263238"></path><path d="M391.63,358.81a1.19,1.19,0,0,1,1.15.93c.25,1.12.54,4.35,1.06,6.17.72,2.54,1.24,7.74.85,9.81s-5.56,3.57-8.86,4.77a42.55,42.55,0,0,0-10.65,6.38c-3.53,2.75-11,5.65-15.9,5.67-5.84,0-12.42-1.66-14-4.14-1.89-3.08-3.29-6.66,5.32-10.46,1.63-.72,7.34-3.93,9.29-5.09,5.27-3.15,9-6,11.35-11.51a3.07,3.07,0,0,1,1.22-1.68,2.9,2.9,0,0,1,1.68-.16c1.45.17,7.2.84,8.52,1.41s2.82,1.08,2.81,2.45a4.24,4.24,0,0,1-.31,1.4c-.1.29-.18.66.09.82s.58,0,.81-.21a21.25,21.25,0,0,0,2.3-2.62,8.32,8.32,0,0,1,1.35-1.3,15.14,15.14,0,0,0,1.47-.9C391.74,360.06,391.61,359.46,391.63,358.81Z" style="fill:#455a64"></path><path d="M375.18,386.87a56.45,56.45,0,0,1,4.68-3.31h0s-10.11,5.82-14.25,3.27c-2.66-1.64-1.43-3.69-1.37-4.34s-9.34-5.14-11.92-5.39h0c-.71.37-1.31.67-1.68.84-8.61,3.8-7.21,7.38-5.32,10.46,1.54,2.48,6.32,4.38,13.85,4.3C364.1,392.65,371.65,389.62,375.18,386.87Z" style="fill:#37474f"></path><path d="M364.93,380.59c-5.36,2-3.05,3-1.54,3.13s10.5-4.8,16-8.9c5.71-4.27,9.29-8.92,11.41-10.49.79-.58,1.64-1.3,2.4-2-.15-1.1-.28-2.09-.39-2.62a1.21,1.21,0,0,0-1.16-.93c0,.65.11,1.25-.41,1.74a15.14,15.14,0,0,1-1.47.9,8.32,8.32,0,0,0-1.35,1.3,21.25,21.25,0,0,1-2.3,2.62C381.46,370.93,370.28,378.54,364.93,380.59Z" style="fill:#37474f"></path><path d="M363.76,383a.54.54,0,0,0,.34-.12.47.47,0,0,0,.06-.69c-1.53-1.7-8.77-5.71-12.72-5.26a.49.49,0,0,0-.47.54.51.51,0,0,0,.59.43c3.69-.4,10.57,3.57,11.79,4.92A.54.54,0,0,0,363.76,383Z" style="fill:#263238"></path><path d="M368.42,380.27a.54.54,0,0,0,.34-.12.47.47,0,0,0,.06-.69c-1.53-1.7-8.77-5.7-12.72-5.26a.5.5,0,0,0-.47.54.51.51,0,0,0,.59.43c3.69-.4,10.57,3.57,11.79,4.92A.54.54,0,0,0,368.42,380.27Z" style="fill:#263238"></path><path d="M373.09,377.69a.54.54,0,0,0,.33-.12.46.46,0,0,0,.07-.69c-1.54-1.7-8.78-5.71-12.73-5.26a.5.5,0,0,0-.46.55.52.52,0,0,0,.59.43c3.69-.41,10.56,3.56,11.78,4.91A.56.56,0,0,0,373.09,377.69Z" style="fill:#263238"></path><path d="M377.4,374.75a.53.53,0,0,0,.34-.11.47.47,0,0,0,.06-.69c-1.53-1.71-8.79-5.71-12.72-5.27a.51.51,0,0,0-.47.55.52.52,0,0,0,.59.43c3.69-.4,10.57,3.57,11.79,4.92A.5.5,0,0,0,377.4,374.75Z" style="fill:#263238"></path><path d="M381.63,371.82a.59.59,0,0,0,.33-.11A.47.47,0,0,0,382,371c-2.12-2.42-9.69-5.75-13.64-5.3a.49.49,0,0,0-.46.54.52.52,0,0,0,.59.43c3.55-.39,10.8,2.81,12.68,4.95A.56.56,0,0,0,381.63,371.82Z" style="fill:#263238"></path><path d="M420.33,366.25l-3.71-16.89,20.86-2,0,16.14s1.88,5.87.5,7.91-15.26,3.67-16.47,2.22S420.33,366.25,420.33,366.25Z" style="fill:#ffbda7"></path><path d="M420.41,402.63c.39,5.19,1.34,8.57,3.48,11.47s6.14,3.54,10.18,2.33,9.21-4,10.33-8.61.87-7.65-.08-12.42Z" style="fill:#263238"></path><path d="M437.5,363.5c1.67,0,.95,7,2,14,1.09,7.44,3.68,10.35,4.64,16.44,1.11,7,.71,10.14-2.09,14.61s-12.75,9.44-17.72,3.73c-4.05-4.66-4.26-10.16-4-17.22.33-7.3.62-12.44.24-17.93-.36-5.24-1.7-9.95-.26-10.65.12.76.24,1.73.36,2.49.09.57.28,3.41,1.22,3.37a9.46,9.46,0,0,0,0-2,2.24,2.24,0,0,1,.44-1.74,7.86,7.86,0,0,1,2.74-1.23c1.64-.41,4.55-.88,6.22-1.15.83-.13,1.66-.23,2.5-.28a7.43,7.43,0,0,1,2.11.09,1.34,1.34,0,0,1,.91.65,1.94,1.94,0,0,1,.09.8,5,5,0,0,0,.22,1.43c.06.2.23.44.47.37a.45.45,0,0,0,.27-.45c0-.85-.13-1.46-.18-2.44,0-.45-.12-1.07-.13-1.53S437.54,364,437.5,363.5Z" style="fill:#455a64"></path><path d="M443.71,391.94c.17,1,1.2,7.65-.89,9-2.25,1.49-3.54-3.7-3.54-3.7s-5.33-1-13,2.56c.41,1.06-.76,4.75-2.89,4.16s-3-8.24-3-8.34c-.27,6.77,0,12.09,4,16.61,5,5.71,14.93.75,17.72-3.73s3.2-7.65,2.09-14.61C444,393.22,443.86,392.57,443.71,391.94Z" style="fill:#37474f"></path><path d="M438.68,397.77c.05,2.54,2.92,1.46,3-2.15s-2.22-11.95-2.24-18.14c-.12-8.49-.29-14-2-14,0,.09,0,.17,0,.26l.24,3.55a14.48,14.48,0,0,1,.11,1.51c.08,5.19-.28,15.25.27,20A72.87,72.87,0,0,1,438.68,397.77Z" style="fill:#37474f"></path><path d="M427.13,399.69a70.84,70.84,0,0,1-1.66-8.81c-.61-4.66-3-14-4.19-19.08a11.44,11.44,0,0,1-.6-2.85c-.12-.71-.22-1.59-.33-2.33a.94.94,0,0,1,0-.16c-1,.52-.86,4.55-.41,6.65s1,4.35,1.57,7.36c1.47,5.95,1.26,14.77,2.23,18.19S427.69,402.15,427.13,399.69Z" style="fill:#37474f"></path><path d="M426.07,400.05a.65.65,0,0,0,.22-.08,23,23,0,0,1,12.84-2.16.69.69,0,0,0,.75-.45.49.49,0,0,0-.44-.62,24.06,24.06,0,0,0-13.73,2.32.53.53,0,0,0-.25.75A.6.6,0,0,0,426.07,400.05Z" style="fill:#263238"></path><path d="M424.64,394.63l.2-.06a28.27,28.27,0,0,1,14.37-2.42.7.7,0,0,0,.74-.47.51.51,0,0,0-.47-.61,29.51,29.51,0,0,0-15.18,2.56.55.55,0,0,0-.29.75A.61.61,0,0,0,424.64,394.63Z" style="fill:#263238"></path><path d="M438.77,386.93a.67.67,0,0,0,.52-.41.49.49,0,0,0-.39-.65c-7.49-1.63-14.85,2.27-15.16,2.44a.53.53,0,0,0-.26.75.66.66,0,0,0,.84.16c.07,0,7.22-3.82,14.19-2.3A.75.75,0,0,0,438.77,386.93Z" style="fill:#263238"></path><path d="M438.3,382a.65.65,0,0,0,.52-.39.49.49,0,0,0-.38-.66A22.22,22.22,0,0,0,423,383.38a.52.52,0,0,0-.21.76.65.65,0,0,0,.85.11c.07,0,6.74-4,14.41-2.24A.61.61,0,0,0,438.3,382Z" style="fill:#263238"></path><path d="M437.76,376.49a.65.65,0,0,0,.51-.38.49.49,0,0,0-.37-.67c-7.72-1.92-15.26,2.39-15.57,2.58a.51.51,0,0,0-.22.75.64.64,0,0,0,.84.14c.07-.05,7.36-4.21,14.53-2.43A.53.53,0,0,0,437.76,376.49Z" style="fill:#263238"></path><path d="M432.79,217.18c3.51,36.69,3.82,79.62,3.82,79.62.3,2.78,3.26,12,3.74,25.82a338.65,338.65,0,0,1-1,34.19,33.43,33.43,0,0,1-21.92,2.47s-6.73-27.79-10.27-47.87c-4.07-23.07-8.11-38.9-8.11-38.9l-2,22s1.13,13.23.68,21.39c-.55,10-5,35.24-5,35.24s-10.85,6.7-19.38.3c0,0-5.26-46.14-5.94-58.82-1.39-26.13-.41-49.48-.14-75.45Z" style="fill:#37474f"></path><path d="M399,272.51l-4.63-31.45s-9.85-1.27-15-5.77c0,0,3.36,6,12.67,8.22l4.57,23.73.34,27.29Z" style="opacity:0.2"></path></g><g id="freepik--Top--inject-27"><g id="freepik--Arm--inject-27"><g id="freepik--arm--inject-27"><path d="M278.81,202.34c1-.82,1.4-.75,1.4-.75-.32-.74.18-2.81,2.87-3.48,0,0-1.23-1.74,2.78-3.3,4.55-1.76,9.64-1.56,12.43-1.53,1.07,0,2-.65.81-1.22-1.65-.76-3.6-1.12-4.93-2.45a3.48,3.48,0,0,1-.85-1.33,2.43,2.43,0,0,1,.1-1.55c.4-1.08,2.21-.61,3.25-.36,4.12,1,8,.69,11.77,2.8,1.21.68,3.23,1.71,4.58,1.42,8.1-1.71,28.86-9.26,34.27-11.83,8.23-10,12.69-19.83,18.37-29.07,4.8-7.82,9.89-9.69,14.18-10.69L384,167.45s-11.72,15.19-18.13,23.79c-2.72,3.65-5.67,5.39-12.75,7.13-11.66,2.86-21.29,4.11-32.91,6.25a35.86,35.86,0,0,0-11.16,3.52,11.14,11.14,0,0,1-4.72,1.22c-4,0-6.94-.89-10.44-1a40.65,40.65,0,0,0-8.34.47c-2.33.18-3.3-.44-3.6-1.63s2.52-2,2.52-2-3,.45-4.2,0C278.73,204.59,277.8,203.17,278.81,202.34Z" style="fill:#ffbda7"></path><path d="M289.49,208.57a26.65,26.65,0,0,0-3.21.33c-1.42.24-3,.57-4-.7a2.29,2.29,0,0,1-.47-1.08,1.27,1.27,0,0,1,.59-1.06,4.35,4.35,0,0,1,.8-.48c-.54,0-1.08,0-1.56,0a3.73,3.73,0,0,1-2.57-.86,2.43,2.43,0,0,1-.82-1.17,1.43,1.43,0,0,1,.5-1.46,7.28,7.28,0,0,1,1.21-.72,2,2,0,0,1,.22-1.49,3.43,3.43,0,0,1,1-1.15,4.29,4.29,0,0,1,1.65-.76,1.82,1.82,0,0,1,.62-1.86,7.2,7.2,0,0,1,1.77-1.18,19.43,19.43,0,0,1,4.93-1.47,49.46,49.46,0,0,1,8.34-.19,57.35,57.35,0,0,0-8.3.44,18.87,18.87,0,0,0-4.84,1.49,6.67,6.67,0,0,0-1.67,1.14,1.4,1.4,0,0,0-.47,1.64h0a2.06,2.06,0,0,0,2,.81c.48,0,2.88-.4,3.37-.45a32.51,32.51,0,0,1,6.77.1,36.3,36.3,0,0,0-6.77.23c-.48.05-2.84.41-3.34.46a2.44,2.44,0,0,1-2.32-.83,3.84,3.84,0,0,0-1.56.74,3.22,3.22,0,0,0-.89,1,1.57,1.57,0,0,0-.18,1.23h0a1.46,1.46,0,0,0,1.31.78,6.2,6.2,0,0,0,1.77-.06,26.1,26.1,0,0,1,3.64-.49,32.28,32.28,0,0,1,3.68-.05l3.66.24-3.67-.13a31.85,31.85,0,0,0-3.65.17,24.81,24.81,0,0,0-3.6.6,6.93,6.93,0,0,1-1.88.12,2.06,2.06,0,0,1-1.45-.69,6.38,6.38,0,0,0-1.14.66c-.72.45-.35,1.45.32,1.94a3.23,3.23,0,0,0,2.29.8c.85,0,1.84-.06,2.82-.13,1.73-.06,2.09-.12,3.81-.06s3.45.14,5.15.36c-1.71-.15-3.43-.14-5.15-.13a36.47,36.47,0,0,0-3.77.2,5.93,5.93,0,0,0-1.89.87,1,1,0,0,0-.48.77,1.89,1.89,0,0,0,.4.92c.89,1.14,2.33.87,3.72.64a18.39,18.39,0,0,1,3.24-.23,43.62,43.62,0,0,1,4.43,0A43.43,43.43,0,0,0,289.49,208.57Z" style="fill:#f0997a"></path><path d="M310.25,200.19c-2.92,1.74-7.57-.18-10.16-2.38C302.53,201.25,306.23,203.28,310.25,200.19Z" style="fill:#f0997a"></path></g><path d="M380.13,138.49c-12.46,2.09-14.53,7.12-19.1,15s-13.58,24.35-13.58,24.35l-12.84,6a15.63,15.63,0,0,1,5.66,7.86,28.88,28.88,0,0,1,.67,9.76s12.4-1.78,16.68-3.43,6.64-3.14,10.54-8.38,16.4-22.14,16.4-22.14Z" style="fill:#e0e0e0"></path></g><path id="freepik--Chest--inject-27" d="M411.28,135.53c3.66.76,20.51,4.48,25.6,6.72,0,0,1.76,18.11-1.72,34.26-.8,3.71-1.7,12.92-2.17,20.79-.63,10.61.19,16,.33,25.13,0,0-16.05,9.84-41.94,7.89-20.32-1.53-23.65-9.68-23.65-9.68.11-31.71.43-36.81,1.1-51.59.91-20.16,4.59-26.72,9-30.15l15.9-3.17Z" style="fill:#f0f0f0"></path><g id="freepik--Head--inject-27"><path d="M417.74,93s3.22.24,5.33,4.19c1.06,2,1.82,5.61-1.08,16a41.38,41.38,0,0,1-5.11,11.42,5.27,5.27,0,0,1-3.06,2.37l.22-8,.3-5.54s-4.59-4.06-5-8c-.51-5.13,1.54-8,1.54-8Z" style="fill:#455a64"></path><path d="M418.85,93.28c.56-.54-1.6-3.73-1.93-4.16-4-5.27-11.69-8-18.12-7.79a18.68,18.68,0,0,0-13.38,5.93,15.07,15.07,0,0,0-3.75,11.47c.17,1.53.39,4.06,2.36,3.82,2.34-.29,4.63-.55,7-.67l11-.55a16.14,16.14,0,0,0,9.41-3.6Z" style="fill:#37474f"></path><path d="M421.5,121.32c-3.87,2.64-6.16-1.25-6.16-1.25l0,16.78c-4,5.21-14.61,2.64-17.2,8-.34-4.2-5.2-4.71-4.38-9.55l0-3.75a24.64,24.64,0,0,1-3.67-.35c-3.74-.57-6.07-2.28-7.18-6.23a47.82,47.82,0,0,1-1.68-8.22c-.26-4.14.77-7.87,1.17-10.91.32-2.45-.13-4.71.45-7.23.43-1.92,1.28-4,3.1-4.89,4.49-2.17,8.65,1,14.92,3.34,2.59,1,8.88,1.41,10.54.66-2.19,2.35-2.17,9.77,1.05,12.79a7,7,0,0,0,1.62,2c1.37,1.17,2.49-1.83,3.64-3s5.48-2.21,7.34,1.65S425.08,118.88,421.5,121.32Z" style="fill:#ffbda7"></path><path d="M393.81,131.56c4.91,0,9.28-.62,12.18-1.81s5.47-5,6.31-8.8c0,3-1.37,8.46-5.77,10.71S397,134,393.8,134.09Z" style="fill:#f28f8f"></path><path d="M410.64,107.46a23.47,23.47,0,0,1-.93,7.33,12.3,12.3,0,0,1-2.22,4.46,12.69,12.69,0,0,1-1.7,1.89,18.6,18.6,0,0,1-2.46,1.66,14.83,14.83,0,0,1-1.82.93,9,9,0,0,1-2.52.63,4,4,0,0,1-3.61-1.17,1.76,1.76,0,0,0-.5-.55,1.29,1.29,0,0,0-.54-.12l-1.54-.13a.9.9,0,0,0-.46,0c-.29.12-.35.41-.54.62a2.12,2.12,0,0,1-.76.47,4.89,4.89,0,0,1-1.82.29c-2.38,0-4.75-.64-6.25-2.59a9.39,9.39,0,0,1-1.73-5.62c-.87,2.4-.68,7.06-.18,9.53a9.16,9.16,0,0,0,4.75,6.59c8.14,4.07,17.47,2,22.66-.84a11.18,11.18,0,0,0,5.68-9.29c.54-9.19,2.17-10,2.17-10Z" style="fill:#455a64"></path><path d="M401.34,102.15l4.16,1.7a2.28,2.28,0,0,0-1.25-2.95A2.22,2.22,0,0,0,401.34,102.15Z" style="fill:#37474f"></path><path d="M385.27,103.2l4.22-1.64a2.19,2.19,0,0,0-2.87-1.28A2.31,2.31,0,0,0,385.27,103.2Z" style="fill:#37474f"></path><path d="M403.5,107a1.83,1.83,0,0,1-1.9,1.73,1.79,1.79,0,1,1,1.9-1.73Z" style="fill:#263238"></path><path d="M390.05,106.63a1.84,1.84,0,0,1-3.67-.13,1.84,1.84,0,0,1,3.67.13Z" style="fill:#263238"></path><path d="M396.51,103.18,395,114.57l-6.18-2.22A26.88,26.88,0,0,1,396.51,103.18Z" style="fill:#f0997a"></path><path d="M395.75,119.4l-5,.27a2.48,2.48,0,0,0,2.62,2.39A2.56,2.56,0,0,0,395.75,119.4Z" style="fill:#b16668"></path><path d="M395.05,120.08a3.13,3.13,0,0,1,.6.1,2.55,2.55,0,0,1-2.3,1.88,2.35,2.35,0,0,1-.8-.1A2.26,2.26,0,0,1,395.05,120.08Z" style="fill:#f28f8f"></path><path d="M390.76,115.07c-1.72.45-3.31,1.93-5.14,1.84a1.42,1.42,0,0,1-1.18-.59,1.39,1.39,0,0,1-.17-.61,1.56,1.56,0,0,1,.17-1,.77.77,0,0,1,.9-.35,2.08,2.08,0,0,0-2.78.88,3.61,3.61,0,0,0,.18,3.42,5,5,0,0,0,3.73,2.09,9.42,9.42,0,0,0,4.95-.92,10.91,10.91,0,0,1,1.41-.61,3.12,3.12,0,0,1,2.58.57A9.19,9.19,0,0,0,398,120.9c2.19.45,4.3.46,6.12-1.09a4.61,4.61,0,0,0,.77-.76,2.86,2.86,0,0,0,.13-2.75,2.58,2.58,0,0,0-1.78-1.35,1.37,1.37,0,0,1,0,1.72,2,2,0,0,1-1.64.74,4.38,4.38,0,0,1-1.8-.47c-.8-.37-1.56-.86-2.36-1.24a10,10,0,0,0-6.6-.66Z" style="fill:#37474f"></path></g><path d="M394.21,146.31s-2.51-2.45-2.83-5c-.27-2.14,3.34-2.55,3.34-2.55l1.95,3.66Z" style="fill:#263238"></path><path d="M395.22,150.58c-3.82,8.54-5.93,32-5.93,32L394,198l7.9-13.7s-2.21-22.81-2.21-33Z" style="fill:#263238"></path><path d="M396.67,142.38a6.69,6.69,0,0,0,3.69.91l1.68,3.49-2.35,4.49s-3.33.21-4.47-.69l-1-4.27S395.5,143.21,396.67,142.38Z" style="fill:#37474f"></path><path d="M400.36,143.29l6.87-3.53,3.23,3.61L402,146.78A4.7,4.7,0,0,1,400.36,143.29Z" style="fill:#263238"></path><path d="M419.06,137.39s-1.67,5.25-13.53,11.38c-1.55-2.29-3-6-5.22-5.49h0a4.07,4.07,0,0,1-1.48-.09,6.65,6.65,0,0,1,1.46-2.08c1.4-1.22,7.44-2.39,11-4.82s4.06-3.28,4.06-3.28v-1.49C416.35,131.57,418,134.8,419.06,137.39Z" style="fill:#e0e0e0"></path><path d="M397.9,142.93a7.52,7.52,0,0,1-1.16-.52l-.05,0h0c-1.74-.92-4.27,1-5.8,3.68a14.17,14.17,0,0,1-2.06-9.53l2.7-2.91c.86.17,2.25.3,2.25.3l0,1.39a8.14,8.14,0,0,0,1.58,3.58C396.38,140,397.38,140.69,397.9,142.93Z" style="fill:#e0e0e0"></path><path d="M366.84,190.59c.49-16,1.94-24.38,4.48-32.7A57.31,57.31,0,0,1,382.27,138l6.48-1.36a69.65,69.65,0,0,0-8.59,20.2l33.21,2.54,6.32-22,7,1.59a185.59,185.59,0,0,0-6.29,44.88c0,2.62.07,5.4.26,8.3,1.59,9.75,12.35,5.68,12.35,5.68l-.26,8.65a9.08,9.08,0,0,1-5.45,2.5c-1.74,4.18-.42,22.49.33,34.31s1.66,25.73,3.18,34.33c-46.73,8.92-65.13-3.38-65.13-3.38s0-28.1.41-50.51C366.52,203,366.59,198.39,366.84,190.59Z" style="fill:#455a64"></path><path d="M419.11,229.09s-30.63,1.63-48.39,0l-.91,31.32s18.89,5.78,50.73,1.17Z" style="fill:#37474f"></path><path d="M406.59,263.09l-.86.05-1.48-33.52.87,0Z" style="fill:#263238"></path><path d="M425.71,272c-23,4.23-48.89,1.41-55.5-1.3l-.4,1c4.79,2,15.77,3.94,33,3.79A140.88,140.88,0,0,0,425.9,273Zm-9.27-108.2-13.51-1-.46,5.25L416,169.11Z" style="fill:#37474f"></path><g id="freepik--arm--inject-27"><path d="M414.72,188.63a3.44,3.44,0,0,1-1,1.12,17.36,17.36,0,0,1-5.5,3.1,13.89,13.89,0,0,1-4,.36,36.85,36.85,0,0,1-8.47-1.28c-3.33-.89-6.7-2.3-8.86-5-.59-.73.21-1.81.94-2.18a4.54,4.54,0,0,1,2.91-.16,1,1,0,0,0,.53.06,1.11,1.11,0,0,0,.39-.26,4.22,4.22,0,0,1,3.94-.47c1.31.41,2.5,1.16,3.8,1.63a1.35,1.35,0,0,0,.59.11,2.07,2.07,0,0,0,.63-.28,3.83,3.83,0,0,1,2.65-.24,18.06,18.06,0,0,1,2.55.92,20.92,20.92,0,0,0,5,1.26c.84.1,4-.35,4,.82A1.21,1.21,0,0,1,414.72,188.63Z" style="fill:#f0997a"></path><path d="M452.47,207.88c10.37-.4,12.9-3.95,9.64-16.21-2.05-7.74-9.76-30.29-13.61-38.07-4.08-8.25-8.26-11.7-18.57-12.94-3.2,6.29-2.07,21.88.85,28.87,2.73,6.54,6.33,15.4,6.33,15.4-1.88-.28-3.75-.58-5.63-.88-1.64-.27-3.28-.54-4.92-.84s-3.46-.33-5-1.22c-1.06-.6-2-1.37-3.07-2-2.35-1.35-5.13-1.86-7.39-3.35-1-.64-1.93-1.49-3.09-1.53a.5.5,0,0,0-.32.06.55.55,0,0,0-.16.3,4.83,4.83,0,0,0,1,4.18,13.06,13.06,0,0,0,3.46,2.8c.94.57,2,1.45,1.74,2.51a2.36,2.36,0,0,1-1,1.19,18.22,18.22,0,0,1-11,3.27,24,24,0,0,1-5.84-.82c-2.08-.56-3.94-1.67-6.07-2.08a8.3,8.3,0,0,0-3.71,0c-.8.22-1.71.87-1.5,1.67a1.83,1.83,0,0,0,.61.82,30.65,30.65,0,0,0,11.43,6.47c8.64,2.65,18.12,1.22,26.61,4.39,8.3,3.1,16.67,7.12,25.62,7.85A28.49,28.49,0,0,0,452.47,207.88Z" style="fill:#ffbda7"></path><path d="M436.19,184.23s-4.64-10.64-7.45-17.9-1.83-23.73.73-26.47c12,1.9,15,4.2,18.7,11.72S458.4,178.4,458.4,178.4c4.09,12.21,6.58,20.06,5.33,23.92s-3.36,6.48-12.45,6.11-23.67-6-23.67-6a16.37,16.37,0,0,0,4.73-10.59c.25-6.48-2.76-8.13-2.76-8.13Z" style="fill:#e0e0e0"></path><path d="M448.83,190.59c-1.44-2.41-7.82-5.74-12.64-6.36l-1-2.23C443.72,183.16,447.45,186.65,448.83,190.59Z" style="opacity:0.1"></path></g></g></g></g><g id="freepik--Chair--inject-27"><g id="freepik--chair--inject-27"><path d="M332.42,398.48c-.9-5.1-4.73-10.06-11.5-14-15.61-9-40.93-9-56.55,0-6.77,3.91-10.6,8.87-11.5,14h-.21v4.88h0c0,5.91,3.9,11.82,11.71,16.32,15.62,9,40.94,9,56.55,0,7.81-4.51,11.72-10.41,11.72-16.32h0v-4.88Z" style="fill:#37474f"></path><path d="M264.37,414.8c15.62,9,40.94,9,56.55,0s15.62-23.63,0-32.65-40.93-9-56.55,0S248.75,405.79,264.37,414.8Z" style="fill:#455a64"></path><path d="M284.09,347.47V396h0c0,1.27.83,2.53,2.5,3.5a13.39,13.39,0,0,0,12.11,0c1.67-1,2.51-2.23,2.51-3.5h0v-48.5Z" style="fill:#263238"></path><path d="M301.21,348.29H284.09V369l6.32,3.65a5.89,5.89,0,0,0,5.86,0l4.94-2.85Z"></path><path d="M341.52,281.11a1,1,0,0,1,.61.84v5.83a1,1,0,0,1-.61.84l-10.81,6.24a3.22,3.22,0,0,1-2.93,0l-34.52-19.93a1,1,0,0,1-.61-.84v-5.83a1,1,0,0,1,.61-.85l10.8-6.24a3.28,3.28,0,0,1,2.93,0Z" style="fill:#37474f"></path><path d="M327.78,289l-34.52-19.93a1.06,1.06,0,0,1-.61-.81v5.78a1,1,0,0,0,.61.85l34.52,19.93a3,3,0,0,0,1.43.35v-5.82A3.05,3.05,0,0,1,327.78,289Z" style="fill:#263238"></path><path d="M330.71,289l10.81-6.24a1.05,1.05,0,0,0,.61-.85,1,1,0,0,0-.61-.84L307,261.17a3.28,3.28,0,0,0-2.93,0l-10.8,6.24a1,1,0,0,0-.61.85,1,1,0,0,0,.61.84L327.78,289A3.28,3.28,0,0,0,330.71,289Z" style="fill:#455a64"></path><path d="M349.46,334.9v3.24l-52.65,30.39a6.76,6.76,0,0,1-6.74,0l-52.65-30.39V334.9Z" style="fill:#37474f"></path><path d="M270.81,311a5.58,5.58,0,0,0,2.79-4.84V286.42c0-1.45-1-2.05-2.28-1.34l-9.45,5.26a4.9,4.9,0,0,0-2.29,3.88v20a5.54,5.54,0,0,1-2.83,4.86l5.64-3.27Z" style="fill:#263238"></path><path d="M272.17,311.65a5.6,5.6,0,0,0,2.8-4.84V287.06c0-1.44-1-2-2.28-1.34L263.23,291a4.93,4.93,0,0,0-2.28,3.89v20a5.55,5.55,0,0,1-2.83,4.87l5.64-3.27Z" style="fill:#37474f"></path><path d="M237.43,334.9,290,365.27a6.8,6.8,0,0,0,6.84,0l52.61-30.37c0-4-2.15-12.63-5.6-14.62l-4.73-2.72c-.28-.18-.57-.34-.88-.52l-38.5-22.21a12.58,12.58,0,0,0-12.64,0L243,320.28l-.1.08-.11.08C239.49,322.42,237.43,331,237.43,334.9Z" style="fill:#ED7D31"></path><path d="M349.46,334.9c0-4-2.15-12.63-5.6-14.62l-4.73-2.72c6.62,3.9,9.33,6.51,4.71,9.18L297,353.81a7.07,7.07,0,0,1-3.53.94v11.4a7,7,0,0,0,3.52-.94Z" style="opacity:0.15"></path><path d="M289.9,353.81c-8.84-5.12-31.94-18.48-41.29-23.83-9.77-5.6-6.71-8.84-5.8-9.54-3.31,2-5.38,10.54-5.38,14.46l52.47,30.31a7,7,0,0,0,3.54.94v-11.4A7,7,0,0,1,289.9,353.81Z" style="opacity:0.30000000000000004"></path><path d="M275.75,200.33l-4.05-1.73c-2.36-1-5.37-.7-8.48,1.09l-33.56,19.38c-6.26,3.6-10.55,11.92-9.6,18.59l9.54,66.64,4.06,1.74,56.2-32.47L280.33,207C279.85,203.62,278.13,201.32,275.75,200.33Z" style="fill:#37474f"></path><path d="M286.34,249l-6-42c-.48-3.35-2.2-5.65-4.58-6.64l-4.05-1.73c-2.36-1-5.37-.7-8.48,1.09l-33.56,19.38a20.07,20.07,0,0,0-7.6,8.36Z" style="fill:#455a64"></path><path d="M275.75,200.34c-2.36-1-5.37-.71-8.48,1.08L233.72,220.8c-6.26,3.61-10.55,11.93-9.6,18.59L233.66,306l9.75,4.1,56.2-32.47-9.54-66.6c-.47-3.28-2.13-5.55-4.44-6.57C284.66,204.07,276.69,200.73,275.75,200.34Z" style="fill:#ED7D31"></path><path d="M226.12,229.15a17.73,17.73,0,0,0-2,10.24L233.66,306l9.75,4.1,56.2-32.47-3.52-24.57Z" style="opacity:0.30000000000000004"></path><path d="M290.07,211.07c-.47-3.28-2.13-5.55-4.44-6.57-1-.43-8.94-3.77-9.88-4.16-2.36-1-5.37-.71-8.48,1.08L233.72,220.8a20,20,0,0,0-7.6,8.35l70,23.95Z" style="fill:#fff;opacity:0.2"></path><path d="M243.41,310.14l-9.54-66.64c-1-6.67,3.34-15,9.59-18.6L277,205.53c6.26-3.61,12.1-1.12,13.05,5.54l9.54,66.6Z" style="fill:#ED7D31"></path><path d="M272.59,320.91a1,1,0,0,1,.61.84v5.83a1.05,1.05,0,0,1-.61.85l-10.81,6.24a3.28,3.28,0,0,1-2.93,0l-34.52-19.94a1,1,0,0,1-.61-.84v-5.83a1,1,0,0,1,.61-.84L235.14,301a3.2,3.2,0,0,1,2.92,0Z" style="fill:#37474f"></path><path d="M258.85,328.84l-34.52-19.93a1,1,0,0,1-.61-.81v5.79a1,1,0,0,0,.61.84l34.52,19.94a3,3,0,0,0,1.43.34v-5.82A2.94,2.94,0,0,1,258.85,328.84Z" style="fill:#263238"></path><path d="M261.78,328.84l10.81-6.24a.89.89,0,0,0,0-1.69L238.06,301a3.2,3.2,0,0,0-2.92,0l-10.81,6.24a1,1,0,0,0-.61.84,1,1,0,0,0,.61.85l34.52,19.93A3.22,3.22,0,0,0,261.78,328.84Z" style="fill:#455a64"></path><path d="M259.62,177.72l-2-.72a4,4,0,0,0-3.35.51l-27.17,15.68c-2.48,1.43-4.17,4.66-3.78,7.21l1.33,9a2.94,2.94,0,0,0,1.87,2.49l2,.74a4,4,0,0,0,3.3-.5L259,196.44c2.49-1.43,4.18-4.66,3.79-7.2l-1.33-9A3,3,0,0,0,259.62,177.72Z" style="fill:#455a64"></path><path d="M226.66,210.11l-1.33-9c-.4-2.54,1.3-5.77,3.78-7.2l27.17-15.69c2.49-1.43,4.82-.53,5.21,2l1.33,9c.39,2.54-1.3,5.77-3.79,7.2l-27.16,15.69C229.38,213.56,227.05,212.66,226.66,210.11Z" style="fill:#37474f"></path><path d="M260.74,178.15a4,4,0,0,0-3.34.5l-27.17,15.68c-2.48,1.44-4.18,4.66-3.79,7.21l1.33,9a3,3,0,0,0,1.87,2.52l6.1,2.17a4,4,0,0,0,3.27-.52L266.18,199c2.48-1.44,4.18-4.66,3.78-7.21l-1.32-9a3,3,0,0,0-1.87-2.52C266.08,180.05,261.41,178.4,260.74,178.15Z" style="fill:#ED7D31"></path><path d="M260.74,178.15a4,4,0,0,0-3.34.5l-27.17,15.68c-2.48,1.44-4.18,4.66-3.79,7.21l1.33,9a3,3,0,0,0,1.87,2.52l6.1,2.17a4,4,0,0,0,3.27-.52L266.18,199c2.48-1.44,4.18-4.66,3.78-7.21l-1.32-9a3,3,0,0,0-1.87-2.52C266.08,180.05,261.41,178.4,260.74,178.15Z" style="fill:#fff;opacity:0.2"></path><path d="M243.69,203.34l-16.37-5.93a6.8,6.8,0,0,0-.88,4.13l1.33,9a3,3,0,0,0,1.87,2.52l6.1,2.17a4,4,0,0,0,3.27-.52l5.53-5.14Z" style="fill:#ED7D31"></path><path d="M243.69,203.34l-16.37-5.93a6.8,6.8,0,0,0-.88,4.13l1.33,9a3,3,0,0,0,1.87,2.52l6.1,2.17a4,4,0,0,0,3.27-.52l5.53-5.14Z" style="opacity:0.30000000000000004"></path><path d="M233.81,212.72l-1.33-9c-.39-2.54,1.3-5.77,3.78-7.2l27.17-15.69c2.49-1.43,4.82-.53,5.21,2l1.33,9c.39,2.54-1.3,5.77-3.79,7.2L239,214.74C236.53,216.17,234.2,215.27,233.81,212.72Z" style="fill:#ED7D31"></path></g></g><g id="freepik--speech-bubble--inject-27"><g id="freepik--speech-bubble--inject-27"><path d="M382.9,54.86c-4.94-7.18-18.15-13.15-34.47-13.3-14.85-.14-32.93,4.22-37.44,18.49-3.86,12.17,8,23.47,20.32,25.88a83.58,83.58,0,0,0,14.86,1.57c2.28,4.27,7.64,6.89,11.67,7.16a11.89,11.89,0,0,1-2.68-7.5,76.46,76.46,0,0,0,11.41-1.92C388,79.89,388.42,62.91,382.9,54.86Z" style="fill:#ED7D31"></path><path d="M382.9,54.86c-4.94-7.18-18.15-13.15-34.47-13.3-14.85-.14-32.93,4.22-37.44,18.49-3.86,12.17,8,23.47,20.32,25.88a83.58,83.58,0,0,0,14.86,1.57c2.28,4.27,7.64,6.89,11.67,7.16a11.89,11.89,0,0,1-2.68-7.5,76.46,76.46,0,0,0,11.41-1.92C388,79.89,388.42,62.91,382.9,54.86Z" style="fill:#fff;opacity:0.4"></path><circle cx="329.3" cy="64.4" r="3.55" style="fill:#fff"></circle><circle cx="348.06" cy="64.4" r="3.55" style="fill:#fff"></circle><path d="M366.82,60.86a3.55,3.55,0,1,0,3.55,3.54A3.53,3.53,0,0,0,366.82,60.86Z" style="fill:#fff"></path></g></g></svg>
