<svg xmlns="http://www.w3.org/2000/svg" viewBox="0 0 500 500"><g id="freepik--Line--inject-59"><path d="M40.16,476c134.44-.61,285.24-.62,419.68,0-134.44.62-285.24.61-419.68,0Z" style="fill:#263238"></path></g><g id="freepik--Floor--inject-59"><rect x="44.92" y="412.05" width="410.1" height="6.9" style="fill:#c7c7c7"></rect><path d="M66,412.05a11.84,11.84,0,0,1,0,6.9,11.76,11.76,0,0,1,0-6.9Z" style="fill:#263238"></path><path d="M90.54,412.05a11.76,11.76,0,0,1,0,6.9,11.84,11.84,0,0,1,0-6.9Z" style="fill:#263238"></path><path d="M115.07,412.05a11.76,11.76,0,0,1,0,6.9,11.84,11.84,0,0,1,0-6.9Z" style="fill:#263238"></path><path d="M139.6,412.05a11.84,11.84,0,0,1,0,6.9,11.76,11.76,0,0,1,0-6.9Z" style="fill:#263238"></path><path d="M164.12,412.05a11.76,11.76,0,0,1,0,6.9,11.92,11.92,0,0,1,0-6.9Z" style="fill:#263238"></path><path d="M188.65,412.05a11.76,11.76,0,0,1,0,6.9,11.84,11.84,0,0,1,0-6.9Z" style="fill:#263238"></path><path d="M213.18,412.05a11.84,11.84,0,0,1,0,6.9,11.76,11.76,0,0,1,0-6.9Z" style="fill:#263238"></path><path d="M237.71,412.05a11.84,11.84,0,0,1,0,6.9,11.76,11.76,0,0,1,0-6.9Z" style="fill:#263238"></path><path d="M262.23,412.05a11.76,11.76,0,0,1,0,6.9,11.84,11.84,0,0,1,0-6.9Z" style="fill:#263238"></path><path d="M286.76,412.05a11.84,11.84,0,0,1,0,6.9,11.76,11.76,0,0,1,0-6.9Z" style="fill:#263238"></path><path d="M311.29,412.05a11.84,11.84,0,0,1,0,6.9,11.76,11.76,0,0,1,0-6.9Z" style="fill:#263238"></path><path d="M335.81,412.05a11.76,11.76,0,0,1,0,6.9,11.84,11.84,0,0,1,0-6.9Z" style="fill:#263238"></path><path d="M360.34,412.05a11.84,11.84,0,0,1,0,6.9,11.84,11.84,0,0,1,0-6.9Z" style="fill:#263238"></path><path d="M384.87,412.05a11.84,11.84,0,0,1,0,6.9,11.76,11.76,0,0,1,0-6.9Z" style="fill:#263238"></path><path d="M409.39,412.05a11.76,11.76,0,0,1,0,6.9,11.84,11.84,0,0,1,0-6.9Z" style="fill:#263238"></path><path d="M433.92,412.05a11.84,11.84,0,0,1,0,6.9,11.84,11.84,0,0,1,0-6.9Z" style="fill:#263238"></path><path d="M40.16,419c134.44-.61,285.24-.61,419.68,0-134.44.62-285.24.61-419.68,0Z" style="fill:#263238"></path></g><g id="freepik--Barbershop--inject-59"><rect x="76.69" y="98.34" width="346.62" height="313.72" style="fill:#FF3048"></rect><rect x="76.69" y="98.34" width="346.62" height="313.72" style="fill:#fff;opacity:0.7000000000000001"></rect><rect x="71.96" y="373.48" width="356.08" height="38.58" style="fill:#FF3048"></rect><rect x="71.96" y="373.48" width="356.08" height="38.58" style="opacity:0.4"></rect><path d="M414,403.47c-12.95.14-39,.37-51.95.43h-.42v-.43l0-21.41v-.48H362q26-.07,51.95.22h.26v.26L414,403.47Zm0,0-.26-21.41.26.26c-17.32.17-34.63.27-51.95.21l.48-.47-.05,21.41-.43-.42c12.95.06,39,.29,51.95.42Z" style="opacity:0.2"></path><path d="M366.18,386.23c12.39-.17,31.36-.48,43.61-.47h.47v.47l0,13.07v.5h-.5l-21.8-.06c-5.43,0-16.38-.07-21.81-.13h-.32v-.31c0-3.83.24-9.2.31-13.07Zm0,0c.14,3.83.24,9.32.32,13.07l-.32-.32c5.44-.05,16.37-.11,21.81-.13l21.8-.05-.5.5,0-13.07.47.48-10.82,0c-6.91-.05-25.64-.32-32.79-.43Z" style="opacity:0.2"></path><path d="M345,403.47c-13,.14-39,.37-52,.43h-.43v-.43l0-21.41v-.48H293q26-.07,52,.22h.26v.26L345,403.47Zm0,0-.26-21.41.26.26c-17.32.17-34.63.27-52,.21l.48-.47-.05,21.41-.43-.42c12.94.06,39,.29,52,.42Z" style="opacity:0.2"></path><path d="M297.19,386.23c12.39-.17,31.35-.48,43.61-.47h.47v.47l0,13.07v.5h-.5L319,399.74c-5.43,0-16.37-.07-21.8-.13h-.32v-.31c0-3.83.25-9.2.32-13.07Zm0,0c.14,3.83.24,9.32.32,13.07l-.32-.32c5.44-.05,16.37-.11,21.8-.13l21.81-.05-.5.5,0-13.07.47.48-10.82,0c-6.91-.05-25.64-.32-32.79-.43Z" style="opacity:0.2"></path><path d="M276,403.47c-12.94.14-39,.37-51.94.43h-.43v-.43l0-21.41v-.48H224q26-.07,51.94.22h.27v.26L276,403.47Zm0,0-.25-21.41.25.26c-17.31.17-34.63.27-51.94.21l.47-.47-.05,21.41-.42-.42c12.94.06,39,.29,51.94.42Z" style="opacity:0.2"></path><path d="M228.2,386.23c12.39-.17,31.35-.48,43.6-.47h.47v.47l0,13.07v.5h-.5l-21.8-.06c-5.43,0-16.37-.07-21.8-.13h-.32v-.31c0-3.83.24-9.2.32-13.07Zm0,0c.14,3.83.23,9.32.31,13.07l-.31-.32c5.44-.05,16.36-.11,21.8-.13l21.8-.05-.5.5,0-13.07.47.48-10.82,0c-6.9-.05-25.64-.32-32.78-.43Z" style="opacity:0.2"></path><path d="M207,403.47c-12.95.14-39,.37-51.95.43h-.42v-.43l-.05-21.41v-.48H155q26-.07,51.95.22h.26v.26L207,403.47Zm0,0-.26-21.41.26.26c-17.31.17-34.63.27-51.95.21l.48-.47,0,21.41-.43-.42c12.95.06,39,.29,51.95.42Z" style="opacity:0.2"></path><path d="M159.2,386.23c12.39-.17,31.36-.48,43.61-.47h.47v.47l0,13.07v.5h-.5l-21.8-.06c-5.43,0-16.38-.07-21.81-.13h-.32v-.31c0-3.83.24-9.2.31-13.07Zm0,0c.14,3.83.24,9.32.32,13.07l-.32-.32c5.44-.05,16.37-.11,21.81-.13l21.8-.05-.5.5,0-13.07.47.48-10.82,0c-6.91-.05-25.64-.32-32.79-.43Z" style="opacity:0.2"></path><path d="M138,403.47c-13,.14-39,.37-51.95.43h-.43v-.43l0-21.41v-.48H86q26-.07,52,.22h.26v.26L138,403.47Zm0,0-.26-21.41.26.26c-17.32.17-34.63.27-51.95.21l.48-.47,0,21.41-.43-.42c12.94.06,39,.29,52,.42Z" style="opacity:0.2"></path><path d="M90.21,386.23c12.39-.17,31.35-.48,43.61-.47h.47v.47l0,13.07v.5h-.5L112,399.74c-5.43,0-16.37-.07-21.8-.13h-.32v-.31c0-3.83.24-9.2.31-13.07Zm0,0c.14,3.83.24,9.32.32,13.07l-.32-.32c5.44-.05,16.37-.11,21.8-.13l21.81-.05-.5.5,0-13.07.47.48-10.82,0c-6.91-.05-25.64-.32-32.79-.43Z" style="opacity:0.2"></path><rect x="69.29" y="98.39" width="361.42" height="7.11" style="fill:#FF3048"></rect><rect x="69.29" y="98.39" width="361.42" height="7.11" style="fill:#fff;opacity:0.4"></rect><rect x="85.78" y="71.02" width="328.44" height="27.32" style="fill:#FF3048"></rect><rect x="85.78" y="71.02" width="328.44" height="27.32" style="fill:#fff;opacity:0.7000000000000001"></rect><g style="opacity:0.30000000000000004"><rect x="94.41" y="75.9" width="6.04" height="17.84" style="fill:#FF3048"></rect><rect x="110.47" y="75.9" width="6.04" height="17.84" style="fill:#FF3048"></rect><rect x="126.53" y="75.9" width="6.04" height="17.84" style="fill:#FF3048"></rect><rect x="142.59" y="75.9" width="6.04" height="17.84" style="fill:#FF3048"></rect><rect x="158.65" y="75.9" width="6.04" height="17.84" style="fill:#FF3048"></rect><rect x="174.71" y="75.9" width="6.04" height="17.84" style="fill:#FF3048"></rect><rect x="190.77" y="75.9" width="6.04" height="17.84" style="fill:#FF3048"></rect><rect x="206.83" y="75.9" width="6.04" height="17.84" style="fill:#FF3048"></rect><rect x="222.89" y="75.9" width="6.04" height="17.84" style="fill:#FF3048"></rect><rect x="238.95" y="75.9" width="6.04" height="17.84" style="fill:#FF3048"></rect><rect x="255.01" y="75.9" width="6.04" height="17.84" style="fill:#FF3048"></rect><rect x="271.07" y="75.9" width="6.04" height="17.84" style="fill:#FF3048"></rect><rect x="287.13" y="75.9" width="6.04" height="17.84" style="fill:#FF3048"></rect><rect x="303.19" y="75.9" width="6.04" height="17.84" style="fill:#FF3048"></rect><rect x="319.25" y="75.9" width="6.04" height="17.84" style="fill:#FF3048"></rect><rect x="335.31" y="75.9" width="6.04" height="17.84" style="fill:#FF3048"></rect><rect x="351.37" y="75.9" width="6.04" height="17.84" style="fill:#FF3048"></rect><rect x="367.43" y="75.9" width="6.04" height="17.84" style="fill:#FF3048"></rect><rect x="383.49" y="75.9" width="6.04" height="17.84" style="fill:#FF3048"></rect><rect x="399.55" y="75.9" width="6.04" height="17.84" style="fill:#FF3048"></rect></g><rect x="98.86" y="222.98" width="80.84" height="189.01" style="fill:#263238"></rect><rect x="110.89" y="235.31" width="56.79" height="155.81" style="fill:#455a64"></rect><g style="opacity:0.1"><polygon points="167.69 361.23 167.69 388.11 164.68 391.12 137.77 391.12 167.69 361.23" style="fill:#fff"></polygon><polygon points="167.69 235.31 167.69 244.48 110.89 301.28 110.89 274.39 149.96 235.31 167.69 235.31" style="fill:#fff"></polygon><polygon points="167.69 255.56 167.69 261.24 110.89 318.04 110.89 312.36 167.69 255.56" style="fill:#fff"></polygon><polygon points="167.69 317.96 167.69 323.64 110.89 380.44 110.89 374.76 167.69 317.96" style="fill:#fff"></polygon><polygon points="126.64 235.31 110.89 251.07 110.89 239.93 115.5 235.31 126.64 235.31" style="fill:#fff"></polygon></g><rect x="171.28" y="327.39" width="4.98" height="21.19" style="fill:#FF3048"></rect><rect x="110.89" y="327.39" width="56.8" height="5.19" style="fill:#263238"></rect><rect x="216.77" y="222.98" width="177.47" height="135.55" style="fill:#263238"></rect><rect x="223.26" y="229.47" width="164.47" height="122.56" style="fill:#455a64"></rect><g style="opacity:0.1"><polygon points="387.73 304.34 387.73 327.52 363.23 352.03 340.04 352.03 387.73 304.34" style="fill:#fff"></polygon><polygon points="319.48 229.48 223.27 325.68 223.27 302.49 296.3 229.48 319.48 229.48" style="fill:#fff"></polygon><polygon points="333.93 229.48 223.27 340.11 223.27 335.22 329.04 229.48 333.93 229.48" style="fill:#fff"></polygon><polygon points="387.73 267.05 387.73 271.94 307.64 352.03 302.75 352.03 387.73 267.05" style="fill:#fff"></polygon><polygon points="387.73 336.37 387.73 345.96 381.66 352.03 372.07 352.03 387.73 336.37" style="fill:#fff"></polygon><polygon points="276.19 229.48 223.27 282.4 223.27 272.8 266.6 229.48 276.19 229.48" style="fill:#fff"></polygon></g><rect x="209.86" y="358.53" width="191.27" height="7.93" style="fill:#FF3048"></rect><g style="opacity:0.4"><rect x="209.86" y="358.53" width="191.27" height="7.93"></rect></g><path d="M365.61,299s-3.28,13.13-24.09,17.12a36.28,36.28,0,0,1-36-13.45,36.28,36.28,0,0,1-36,13.45c-20.81-4-24.1-17.12-24.1-17.12,4.87,3.76,10.41,6,17.16,3s10-18.24,25.53-19.17c9.63-.58,14.81,4.19,17.43,9.21,2.62-5,7.79-9.79,17.43-9.21,15.55.93,18.77,16.11,25.53,19.17S360.75,302.8,365.61,299Z" style="fill:#263238"></path><path d="M251,291.08l-4.84-5.17a.64.64,0,0,1,0-.93.66.66,0,0,1,.94,0l2,2.1,2.27-2.13-2-2.1a.64.64,0,0,1,0-.93.66.66,0,0,1,.94,0l4.84,5.17a.67.67,0,0,1-1,.91l-2-2.1L250,288.06l2,2.11a.67.67,0,0,1-1,.91Z" style="fill:#263238"></path><path d="M259.42,282.6,257,284.22l.37,1.63a.65.65,0,0,1-.28.69.67.67,0,0,1-.21.1.68.68,0,0,1-.81-.5l-1.71-7.36a.65.65,0,0,1,.3-.7.66.66,0,0,1,.76,0l6.13,4.41a.68.68,0,0,1,.14.94.53.53,0,0,1-.17.16.67.67,0,0,1-.74,0Zm-1.14-.82L256,280.17l.62,2.69Z" style="fill:#263238"></path><path d="M259.8,275.77a.65.65,0,0,1,.28-.89.67.67,0,0,1,.9.27l3.3,6.26a.66.66,0,0,1-.28.89.64.64,0,0,1-.89-.27Z" style="fill:#263238"></path><path d="M271.18,277.94a.68.68,0,0,1-.06.94.88.88,0,0,1-.23.13h0a.88.88,0,0,1-.48.06,1.13,1.13,0,0,1-.52-.24,3.25,3.25,0,0,1-.8-1.22,1,1,0,0,0-.33-.42,1.15,1.15,0,0,0-.47-.18,2.15,2.15,0,0,0-.73,0l-1.31.55,1,2.4a.66.66,0,0,1-.36.87.65.65,0,0,1-.86-.35L263.26,274a.65.65,0,0,1,.35-.86h0l2-.83a2.56,2.56,0,0,1,3.29,3.54,2,2,0,0,1,.56.25,2.27,2.27,0,0,1,.87,1,3.1,3.1,0,0,0,.32.63A.66.66,0,0,1,271.18,277.94Zm-3.44-3.78a1.24,1.24,0,0,0-1.63-.67l-1.36.58,1,2.28,1.36-.58A1.23,1.23,0,0,0,267.74,274.16Z" style="fill:#263238"></path><path d="M271.58,274.24a4.44,4.44,0,0,1,5.87-5.32.68.68,0,1,1-.48,1.28,3,3,0,0,0-2-.06,3.19,3.19,0,0,0-1.82,1.45,3,3,0,0,0-.23,2.25,2.91,2.91,0,0,0,1.45,1.74,3.19,3.19,0,0,0,2.32.2,3,3,0,0,0,1.65-1.19.74.74,0,0,1,1-.16.72.72,0,0,1,.16,1,4.51,4.51,0,0,1-2.38,1.7A4.38,4.38,0,0,1,271.58,274.24Z" style="fill:#263238"></path><path d="M285.3,275.08a3.47,3.47,0,0,1-4.07-2.75l-.81-4.19a.65.65,0,0,1,.52-.77.67.67,0,0,1,.79.52l.81,4.19a2.13,2.13,0,1,0,4.19-.82l-.81-4.19a.67.67,0,0,1,.53-.78.66.66,0,0,1,.78.53L288,271A3.47,3.47,0,0,1,285.3,275.08Z" style="fill:#263238"></path><path d="M295.32,266.51l-1.9.21.7,6.37a.66.66,0,1,1-1.31.15l-.7-6.38-1.89.21a.67.67,0,0,1-.73-.59.66.66,0,0,1,.59-.73l5.09-.56a.65.65,0,0,1,.73.58A.67.67,0,0,1,295.32,266.51Z" style="fill:#263238"></path><path d="M298.06,271.28a.63.63,0,0,1,.87-.12,4,4,0,0,0,2.33.84,2.62,2.62,0,0,0,1.48-.51,1.08,1.08,0,0,0,.48-.88.78.78,0,0,0-.12-.38,1.19,1.19,0,0,0-.38-.35,5,5,0,0,0-1.66-.5h0a6.56,6.56,0,0,1-1.57-.41,2.55,2.55,0,0,1-1.15-.89,1.93,1.93,0,0,1-.32-1,2.21,2.21,0,0,1,.89-1.78,3.55,3.55,0,0,1,2.05-.72,4.66,4.66,0,0,1,2.65.85.62.62,0,0,1,.21.85.62.62,0,0,1-.85.21,3.51,3.51,0,0,0-2-.69,2.33,2.33,0,0,0-1.33.46,1,1,0,0,0-.42.78.58.58,0,0,0,.09.33,1.31,1.31,0,0,0,.34.3,4.33,4.33,0,0,0,1.52.47h0a7.23,7.23,0,0,1,1.68.44,2.87,2.87,0,0,1,1.24.95,2,2,0,0,1,.33,1,2.34,2.34,0,0,1-1,1.9,3.76,3.76,0,0,1-2.19.77,5.17,5.17,0,0,1-3.12-1.08A.64.64,0,0,1,298.06,271.28Z" style="fill:#263238"></path><path d="M315.81,269.2a1.45,1.45,0,0,1-.59,1.12l-.14.06a2.8,2.8,0,0,1,0,.29,2.89,2.89,0,1,1-5.76-.38,2.81,2.81,0,0,1,1.07-2.05,2.19,2.19,0,0,1-.26-1.19,2.23,2.23,0,0,1,4.46.29.66.66,0,0,1-.71.62.67.67,0,0,1-.62-.71.9.9,0,0,0-1.8-.11.87.87,0,0,0,.34.75.68.68,0,0,1,.12.9h0a.06.06,0,0,0,0,0l-.14.12,0,0,0,0-.06,0a1.61,1.61,0,0,0-1,1.35,1.56,1.56,0,0,0,3.11.2v-.07c-.62,0-.86.1-.92.17a.34.34,0,0,0-.12.26,1.09,1.09,0,0,0,0,.13.69.69,0,0,1-.51.8H312a.66.66,0,0,1-.61-.52,1.74,1.74,0,0,1,.54-1.69,2.6,2.6,0,0,1,1.9-.49l.4,0h.18l0,0v-.08a1.05,1.05,0,0,0,0-.18.66.66,0,1,1,1.3-.21A1.51,1.51,0,0,1,315.81,269.2Z" style="fill:#263238"></path><path d="M321.56,272.2a.63.63,0,0,1,.88.07,3.9,3.9,0,0,0,2.09,1.32,2.7,2.7,0,0,0,1.56-.17,1.09,1.09,0,0,0,.66-.76.67.67,0,0,0,0-.4,1.1,1.1,0,0,0-.29-.42,4.74,4.74,0,0,0-1.52-.84h0a6.27,6.27,0,0,1-1.44-.73,2.62,2.62,0,0,1-.94-1.12,1.84,1.84,0,0,1-.09-1,2.19,2.19,0,0,1,1.25-1.55,3.56,3.56,0,0,1,2.16-.26,4.65,4.65,0,0,1,2.4,1.41.61.61,0,0,1,0,.86.6.6,0,0,1-.87,0,3.5,3.5,0,0,0-1.77-1.1,2.31,2.31,0,0,0-1.39.17,1,1,0,0,0-.59.66.58.58,0,0,0,0,.35,1.18,1.18,0,0,0,.26.36,4.29,4.29,0,0,0,1.38.79h0a7.41,7.41,0,0,1,1.54.79,2.79,2.79,0,0,1,1,1.19,1.89,1.89,0,0,1,.1,1.06,2.3,2.3,0,0,1-1.34,1.64,3.61,3.61,0,0,1-2.3.28,5.19,5.19,0,0,1-2.82-1.72A.65.65,0,0,1,321.56,272.2Z" style="fill:#263238"></path><path d="M329.32,275.13l1.85-6.83a.67.67,0,1,1,1.29.35l-.75,2.78,3,.81.75-2.78a.65.65,0,0,1,.81-.46.67.67,0,0,1,.48.81l-1.86,6.83a.67.67,0,0,1-.82.47.66.66,0,0,1-.46-.82l.75-2.77-3-.82-.75,2.78a.66.66,0,0,1-.82.46A.65.65,0,0,1,329.32,275.13Z" style="fill:#263238"></path><path d="M341.12,277.44l-2.74-1-1.09,1.26a.67.67,0,0,1-.73.18.64.64,0,0,1-.2-.11.68.68,0,0,1-.07-.95l4.92-5.72a.67.67,0,0,1,.74-.17.66.66,0,0,1,.45.61l.06,7.55a.68.68,0,0,1-.67.67.66.66,0,0,1-.66-.65Zm0-1.41,0-2.76-1.8,2.09Z" style="fill:#263238"></path><path d="M345,281.17a.16.16,0,0,0-.05-.09s0,0,0,0a.37.37,0,0,1,0-.09v0a.41.41,0,0,0,0-.11l.43-7.59a.66.66,0,0,1,1.31.08l-.33,6,4.54-4a.66.66,0,0,1,.88,1l-5.74,5a.2.2,0,0,1-.09.06s0,0,0,0-.07,0-.09,0l0,0-.1,0h0l-.12,0h0a.16.16,0,0,0-.1,0l0,0-.11,0a.24.24,0,0,1-.11-.06h0l-.07-.07h0s0-.07-.07-.11Z" style="fill:#263238"></path><path d="M350.33,283.36l3.92-5.89a.66.66,0,0,1,.92-.19h0l3.24,2.16a.65.65,0,0,1,.18.91.68.68,0,0,1-.92.2L355,278.76l-1.22,1.83,2.33,1.55a.68.68,0,0,1,.19.92.68.68,0,0,1-.93.19L353,281.7l-1.23,1.84,2.71,1.8a.69.69,0,0,1,.18.93.67.67,0,0,1-.92.18l-3.24-2.15s0,0,0,0h0A.66.66,0,0,1,350.33,283.36Z" style="fill:#263238"></path><path d="M356.78,286.07a.61.61,0,0,1,.69.54,4,4,0,0,0,1,2.24,2.5,2.5,0,0,0,1.4.71,1.07,1.07,0,0,0,1-.27.69.69,0,0,0,.18-.35,1.11,1.11,0,0,0,0-.51,4.7,4.7,0,0,0-.81-1.54v0a6.49,6.49,0,0,1-.81-1.4,2.58,2.58,0,0,1-.16-1.45,1.83,1.83,0,0,1,.47-.9,2.22,2.22,0,0,1,1.91-.62,3.59,3.59,0,0,1,1.94,1,4.66,4.66,0,0,1,1.24,2.5.62.62,0,0,1-1.21.28,3.45,3.45,0,0,0-.87-1.89,2.32,2.32,0,0,0-1.26-.63.93.93,0,0,0-.85.24.54.54,0,0,0-.17.3,1.19,1.19,0,0,0,0,.45,4.13,4.13,0,0,0,.73,1.41v0a6.83,6.83,0,0,1,.86,1.5,2.89,2.89,0,0,1,.19,1.55,1.92,1.92,0,0,1-.5.94,2.29,2.29,0,0,1-2,.64,3.73,3.73,0,0,1-2.09-1,5.14,5.14,0,0,1-1.4-3A.63.63,0,0,1,356.78,286.07Z" style="fill:#263238"></path><rect x="76.69" y="118.11" width="346.62" height="48.83" style="fill:#455a64"></rect><rect x="76.69" y="162.66" width="346.62" height="0.5" style="fill:#fff"></rect><rect x="76.69" y="122.25" width="346.62" height="0.5" style="fill:#fff"></rect><path d="M170.69,149.09v-12.7a1.18,1.18,0,0,1,1.18-1.19h3.06a4.09,4.09,0,0,1,4.09,4.09,4,4,0,0,1-.82,2.46,4.61,4.61,0,0,1-2.43,8.52H172s0,0,0,0,0,0-.06,0A1.19,1.19,0,0,1,170.69,149.09Zm2.39-8.05h1.85a1.74,1.74,0,0,0,1.7-1.75,1.69,1.69,0,0,0-1.7-1.7h-1.85Zm0,6.84h2.69a2.23,2.23,0,0,0,0-4.45h-2.69Z" style="fill:#fff"></path><path d="M192.73,146.72H187.5l-1.05,2.8a1.21,1.21,0,0,1-1.12.75,1.35,1.35,0,0,1-.41-.06,1.23,1.23,0,0,1-.71-1.55L189,136a1.2,1.2,0,0,1,1.14-.76,1.18,1.18,0,0,1,1.14.76L196,148.66a1.23,1.23,0,0,1-.71,1.55,1.27,1.27,0,0,1-.41.06,1.16,1.16,0,0,1-1.1-.75Zm-.88-2.37-1.74-4.63-1.75,4.63Z" style="fill:#fff"></path><path d="M210.93,148.48a1.19,1.19,0,0,1-.75,1.51,2,2,0,0,1-.48.07h0a1.64,1.64,0,0,1-.84-.24,2.17,2.17,0,0,1-.69-.75,5.84,5.84,0,0,1-.45-2.59,1.68,1.68,0,0,0-.26-.92,1.93,1.93,0,0,0-.64-.63,3.92,3.92,0,0,0-1.21-.51h-2.54v4.67a1.2,1.2,0,0,1-1.2,1.18,1.18,1.18,0,0,1-1.19-1.18v-12.7a1.17,1.17,0,0,1,1.19-1.19h3.85a4.6,4.6,0,0,1,2.93,8.16,3.2,3.2,0,0,1,.75.8,4.06,4.06,0,0,1,.71,2.32,5.57,5.57,0,0,0,.09,1.27A1.18,1.18,0,0,1,210.93,148.48Zm-3-8.65a2.22,2.22,0,0,0-2.22-2.24h-2.65V142h2.65A2.21,2.21,0,0,0,207.92,139.83Z" style="fill:#fff"></path><path d="M216.43,149.09v-12.7a1.18,1.18,0,0,1,1.18-1.19h3.06a4.09,4.09,0,0,1,4.09,4.09,4,4,0,0,1-.82,2.46,4.61,4.61,0,0,1-2.43,8.52H217.7a0,0,0,0,1,0,0c-.05,0-.05,0-.07,0A1.19,1.19,0,0,1,216.43,149.09Zm2.38-8.05h1.86a1.74,1.74,0,0,0,1.7-1.75,1.69,1.69,0,0,0-1.7-1.7h-1.86Zm0,6.84h2.7a2.23,2.23,0,0,0,0-4.45h-2.7Z" style="fill:#fff"></path><path d="M231.22,149.09v-12.7a1.17,1.17,0,0,1,1.18-1.19h7a1.2,1.2,0,0,1,1.19,1.19,1.21,1.21,0,0,1-1.19,1.2h-5.83v3.94h5a1.2,1.2,0,0,1,0,2.39h-5v4h5.83a1.2,1.2,0,0,1,0,2.39h-7s0,0,0,0l0,0A1.18,1.18,0,0,1,231.22,149.09Z" style="fill:#fff"></path><path d="M256.39,148.48a1.19,1.19,0,0,1-.75,1.51,2,2,0,0,1-.48.07h0a1.62,1.62,0,0,1-.84-.24,2.17,2.17,0,0,1-.69-.75,5.84,5.84,0,0,1-.45-2.59,1.68,1.68,0,0,0-.26-.92,1.93,1.93,0,0,0-.64-.63,3.92,3.92,0,0,0-1.21-.51h-2.54v4.67a1.2,1.2,0,0,1-1.2,1.18,1.18,1.18,0,0,1-1.19-1.18v-12.7a1.17,1.17,0,0,1,1.19-1.19h3.85a4.6,4.6,0,0,1,2.93,8.16,3.2,3.2,0,0,1,.75.8,4.06,4.06,0,0,1,.71,2.32,5.57,5.57,0,0,0,.09,1.27A1.18,1.18,0,0,1,256.39,148.48Zm-3-8.65a2.22,2.22,0,0,0-2.22-2.24h-2.65V142h2.65A2.21,2.21,0,0,0,253.38,139.83Z" style="fill:#fff"></path><path d="M265.87,146.52a1.14,1.14,0,0,1,1.58-.15,7,7,0,0,0,4.11,1.66,4.69,4.69,0,0,0,2.69-.79,2,2,0,0,0,.92-1.55A1.21,1.21,0,0,0,275,145a2.05,2.05,0,0,0-.64-.65,8.72,8.72,0,0,0-2.95-1h-.05a11.44,11.44,0,0,1-2.78-.84,4.75,4.75,0,0,1-2-1.68,3.33,3.33,0,0,1-.49-1.76,4,4,0,0,1,1.72-3.15,6.36,6.36,0,0,1,3.72-1.14,8.46,8.46,0,0,1,4.7,1.72,1.12,1.12,0,0,1,.3,1.53,1.08,1.08,0,0,1-1.53.32,6.25,6.25,0,0,0-3.47-1.37,4.13,4.13,0,0,0-2.41.73,1.7,1.7,0,0,0-.81,1.36,1,1,0,0,0,.15.6,2.07,2.07,0,0,0,.58.56,7.48,7.48,0,0,0,2.69.94h0a12.79,12.79,0,0,1,3,.91,5.07,5.07,0,0,1,2.16,1.79,3.49,3.49,0,0,1,.51,1.83,4.15,4.15,0,0,1-1.85,3.33,6.68,6.68,0,0,1-4,1.23,9.23,9.23,0,0,1-5.51-2.15A1.16,1.16,0,0,1,265.87,146.52Z" style="fill:#fff"></path><path d="M282.71,149.09v-12.7a1.2,1.2,0,0,1,2.39,0v5.16h5.58v-5.16a1.17,1.17,0,0,1,1.18-1.19,1.19,1.19,0,0,1,1.21,1.19v12.7a1.19,1.19,0,0,1-1.21,1.18,1.17,1.17,0,0,1-1.18-1.18v-5.17H285.1v5.17a1.2,1.2,0,0,1-2.39,0Z" style="fill:#fff"></path><path d="M311.22,137.07a7.9,7.9,0,0,1,0,10.9,7,7,0,0,1-5.14,2.3,7.28,7.28,0,0,1-5.28-2.3,8,8,0,0,1,0-10.9,7.2,7.2,0,0,1,5.28-2.3A7,7,0,0,1,311.22,137.07Zm-.28,5.45a5.61,5.61,0,0,0-1.46-3.77,4.66,4.66,0,0,0-6.89,0,5.51,5.51,0,0,0-1.46,3.77,5.41,5.41,0,0,0,1.46,3.75,4.6,4.6,0,0,0,6.89,0A5.5,5.5,0,0,0,310.94,142.52Z" style="fill:#fff"></path><path d="M324.69,144.42H322v4.67a1.2,1.2,0,0,1-2.39,0v-12.7a1.18,1.18,0,0,1,1.18-1.19h3.86a4.61,4.61,0,1,1,0,9.22ZM322,142h2.65a2.22,2.22,0,1,0,0-4.44H322Z" style="fill:#fff"></path><path d="M158.55,142.52a2.27,2.27,0,1,0,2.27-2.26A2.27,2.27,0,0,0,158.55,142.52Z" style="fill:#fff"></path><path d="M336.92,142.52a2.27,2.27,0,1,0,2.26-2.26A2.26,2.26,0,0,0,336.92,142.52Z" style="fill:#fff"></path><path d="M115.69,140.32a6,6,0,0,0,4.67,3c.38.22.28.64.47.7a5.34,5.34,0,0,0,2.32-.43c.2-.19,0-.7.19-.8,3-1.49,4.15-4.23,4.6-4.73s4-1.19,6.51-1.17a12.5,12.5,0,0,1,7,2.64s20.09-4.49,32.8-12.31l-.14-.67-36.37,8.62a21.78,21.78,0,0,0-8.87.05c-.35.07-.55.06-1-.36s-3.07-4.34-7.9-3.17S114,137.79,115.69,140.32Zm8.53-6.26a4,4,0,0,1,.06,6.07c-1.87,1.8-4.26,2-6,.61a4.08,4.08,0,0,1-.32-6C119.35,133.21,122.34,132.42,124.22,134.06Z" style="fill:#fff"></path><path d="M138.33,137.74l3.72-3.59,12.77-3-6.58,6.64c-4.06,1.16-6.77,1.76-6.77,1.76A10.53,10.53,0,0,0,138.33,137.74Z" style="fill:#fff"></path><path d="M173.46,127.32c-1.21.7-2.45,1.33-3.7,2s-2.52,1.21-3.8,1.77c-2.55,1.13-5.15,2.17-7.78,3.11s-5.29,1.81-8,2.54c-.67.18-1.34.38-2,.54l-2,.51c-.67.17-1.36.31-2,.45l-2.05.43c2.71-.67,5.42-1.33,8.09-2.14s5.33-1.65,8-2.6,5.23-2,7.79-3S171,128.6,173.46,127.32Z" style="fill:#fff"></path><path d="M138,144.35c-1.42,2.07-3.89,4.58-4.68,4.69s-5.22-.83-7.82,2.08a6.71,6.71,0,0,0-1.3,7c.72,2-.2,2.34-.94,3.43a7.78,7.78,0,0,0-1.09,5c.29,1.77,2.09,1.82,1.84-.29a4.77,4.77,0,0,1,1.66-4.55c1.3-1.26,4.82.89,8.34-2.51s2-7.67,1.89-8.3,0-.79.29-1a21.84,21.84,0,0,0,5.1-7.27l27.81-25-.47-.49c-13.67,6-28.81,19.92-28.81,19.92A12.53,12.53,0,0,1,138,144.35ZM133,151.79a4,4,0,0,1,.06,6.06c-1.88,1.81-4.26,2-6,.62a4.08,4.08,0,0,1-.31-6C128.07,150.93,131.07,150.15,133,151.79Z" style="fill:#fff"></path><path d="M144.66,136.72a1.06,1.06,0,1,0-.61-1.37A1.06,1.06,0,0,0,144.66,136.72Z" style="fill:#fff"></path><path d="M144.77,136.43a.75.75,0,0,0,1-.43.75.75,0,0,0-1.4-.54A.75.75,0,0,0,144.77,136.43Z" style="fill:#fff"></path><path d="M168.54,117.67c-1.25.68-2.49,1.39-3.71,2.11s-2.45,1.46-3.65,2.21c-2.42,1.5-4.81,3-7.14,4.67-1.18.79-2.33,1.63-3.49,2.45s-2.3,1.68-3.42,2.55l-1.69,1.3-1.66,1.35L143,135l-.81.69L140.51,137c2.09-1.92,4.24-3.8,6.49-5.55l.83-.67.85-.64,1.71-1.29c1.16-.82,2.31-1.67,3.49-2.47,2.35-1.61,4.74-3.16,7.18-4.62S166,118.93,168.54,117.67Z" style="fill:#fff"></path><path d="M124.72,158.36a6.8,6.8,0,0,1-.66-3.53,6,6,0,0,1,1.39-3.32,6,6,0,0,1,3.07-1.91,10.57,10.57,0,0,1,3.63-.28c.29,0,.61.06.87.05a2,2,0,0,0,.79-.28A8,8,0,0,0,135.2,148a24.24,24.24,0,0,0,2.38-2.68,12.07,12.07,0,0,0,1.75-3.11,10,10,0,0,0,.83-3.48,7.75,7.75,0,0,1-.18,1.8,14.35,14.35,0,0,1-.51,1.73,12.12,12.12,0,0,1-1.71,3.19,22,22,0,0,1-2.38,2.74,8.27,8.27,0,0,1-1.43,1.13,2.16,2.16,0,0,1-.9.32,8.81,8.81,0,0,1-.92-.05,10.52,10.52,0,0,0-3.54.25,5.85,5.85,0,0,0-4.4,5A7,7,0,0,0,124.72,158.36Z" style="fill:#fff"></path><path d="M380,131.69c-4.83-1.17-7.43,2.75-7.9,3.17s-.67.43-1,.36a21.78,21.78,0,0,0-8.87-.05l-36.37-8.62-.14.67c12.71,7.82,32.8,12.31,32.8,12.31a12.5,12.5,0,0,1,7-2.64c2.51,0,6,.58,6.51,1.17s1.65,3.24,4.6,4.73c.21.1,0,.61.19.8a5.34,5.34,0,0,0,2.32.43c.19-.06.09-.48.47-.7a6,6,0,0,0,4.67-3C386.05,137.79,384.8,132.84,380,131.69Zm2,3a4.08,4.08,0,0,1-.32,6c-1.71,1.43-4.1,1.19-6-.61a4,4,0,0,1,.06-6.07C377.66,132.42,380.65,133.21,382,134.7Z" style="fill:#fff"></path><path d="M361.67,137.74,358,134.15l-12.77-3,6.58,6.64c4.06,1.16,6.77,1.76,6.77,1.76A10.53,10.53,0,0,1,361.67,137.74Z" style="fill:#fff"></path><path d="M326.54,127.32c1.21.7,2.45,1.33,3.7,2s2.52,1.21,3.8,1.77c2.55,1.13,5.15,2.17,7.78,3.11s5.29,1.81,8,2.54c.67.18,1.34.38,2,.54l2,.51c.67.17,1.36.31,2,.45l2,.43c-2.71-.67-5.42-1.33-8.09-2.14s-5.33-1.65-7.95-2.6-5.23-2-7.79-3S329,128.6,326.54,127.32Z" style="fill:#fff"></path><path d="M360.16,137.08S345,123.14,331.35,117.16l-.47.49,27.81,25a21.84,21.84,0,0,0,5.1,7.27c.26.25.36.41.29,1s-1.64,4.9,1.89,8.3,7,1.25,8.34,2.51a4.77,4.77,0,0,1,1.66,4.55c-.25,2.11,1.55,2.06,1.84.29a7.78,7.78,0,0,0-1.09-5c-.74-1.09-1.66-1.44-.94-3.43a6.71,6.71,0,0,0-1.3-7c-2.6-2.91-7-2-7.82-2.08s-3.26-2.62-4.68-4.69A12.53,12.53,0,0,1,360.16,137.08Zm13.12,15.35a4.08,4.08,0,0,1-.31,6c-1.72,1.42-4.1,1.19-6-.62a4,4,0,0,1,.06-6.06C368.93,150.15,371.93,150.93,373.28,152.43Z" style="fill:#fff"></path><path d="M355.34,136.72a1.06,1.06,0,1,1,.61-1.37A1.06,1.06,0,0,1,355.34,136.72Z" style="fill:#fff"></path><path d="M355.23,136.43a.75.75,0,0,1-1-.43.75.75,0,1,1,1.4-.54A.75.75,0,0,1,355.23,136.43Z" style="fill:#fff"></path><path d="M331.46,117.67c1.25.68,2.49,1.39,3.71,2.11s2.45,1.46,3.65,2.21c2.42,1.5,4.81,3,7.14,4.67,1.18.79,2.33,1.63,3.49,2.45s2.3,1.68,3.42,2.55l1.69,1.3,1.66,1.35.83.66.81.69,1.63,1.38c-2.09-1.92-4.24-3.8-6.49-5.55l-.83-.67-.85-.64-1.71-1.29c-1.16-.82-2.31-1.67-3.49-2.47-2.35-1.61-4.74-3.16-7.18-4.62S334,118.93,331.46,117.67Z" style="fill:#fff"></path><path d="M375.28,158.36a6.8,6.8,0,0,0,.66-3.53,6.11,6.11,0,0,0-1.39-3.32,6,6,0,0,0-3.07-1.91,10.57,10.57,0,0,0-3.63-.28c-.29,0-.61.06-.87.05a2,2,0,0,1-.79-.28A8,8,0,0,1,364.8,148a24.24,24.24,0,0,1-2.38-2.68,12.07,12.07,0,0,1-1.75-3.11,10,10,0,0,1-.83-3.48,7.75,7.75,0,0,0,.18,1.8,14.35,14.35,0,0,0,.51,1.73,12.12,12.12,0,0,0,1.71,3.19,22,22,0,0,0,2.38,2.74,8.27,8.27,0,0,0,1.43,1.13,2.16,2.16,0,0,0,.9.32,8.81,8.81,0,0,0,.92-.05,10.52,10.52,0,0,1,3.54.25,5.85,5.85,0,0,1,4.4,5A7,7,0,0,1,375.28,158.36Z" style="fill:#fff"></path><rect x="430.93" y="240.53" width="20.24" height="64.56" style="fill:#fff"></rect><rect x="430.93" y="240.53" width="20.25" height="64.56" style="fill:#fff"></rect><rect x="429.61" y="237" width="22.89" height="3.53" style="fill:#455a64"></rect><rect x="427.34" y="233.48" width="27.44" height="3.53" style="fill:#37474f"></rect><path d="M441.06,223h0a10.13,10.13,0,0,0-10.13,10.12v.38h20.25v-.38A10.12,10.12,0,0,0,441.06,223Z" style="fill:#263238"></path><rect x="429.61" y="305.09" width="22.89" height="3.53" transform="translate(882.11 613.7) rotate(180)" style="fill:#455a64"></rect><rect x="427.34" y="308.61" width="27.44" height="3.53" transform="translate(882.11 620.76) rotate(180)" style="fill:#37474f"></rect><path d="M441.06,322.64h0a10.12,10.12,0,0,0,10.12-10.12v-.38H430.93v.38A10.13,10.13,0,0,0,441.06,322.64Z" style="fill:#263238"></path><polygon points="451.18 240.53 451.18 247.53 430.93 264.52 430.93 252 444.61 240.53 451.18 240.53" style="fill:#FF3048"></polygon><polygon points="451.18 270.57 430.94 287.56 430.94 275.04 451.18 258.06 451.18 270.57" style="fill:#37474f"></polygon><polygon points="451.18 281.1 451.18 293.62 437.51 305.09 430.93 305.09 430.93 298.09 451.18 281.1" style="fill:#FF3048"></polygon><rect x="433.81" y="240.53" width="3.45" height="64.56" style="fill:#fff;opacity:0.30000000000000004"></rect><rect x="423.31" y="245.8" width="7.62" height="5.23" style="fill:#455a64"></rect><rect x="423.31" y="291.58" width="7.62" height="5.23" style="fill:#455a64"></rect><polygon points="444.85 193.08 55.15 193.08 76.79 166.94 423.21 166.94 444.85 193.08" style="fill:#FF3048"></polygon><polygon points="358.26 193.09 345.66 166.94 383.94 166.94 401.56 193.09 358.26 193.09" style="fill:#fff"></polygon><polygon points="271.68 193.09 268.38 166.94 305.74 166.94 314.97 193.09 271.68 193.09" style="fill:#fff"></polygon><polygon points="141.74 193.09 154.34 166.94 116.06 166.94 98.44 193.09 141.74 193.09" style="fill:#fff"></polygon><polygon points="228.32 193.09 231.62 166.94 194.26 166.94 185.03 193.09 228.32 193.09" style="fill:#fff"></polygon><path d="M76.85,215h0A21.64,21.64,0,0,1,55.2,193.36v-.27H98.5v.27A21.65,21.65,0,0,1,76.85,215Z" style="fill:#FF3048"></path><path d="M76.85,215h0A21.64,21.64,0,0,1,55.2,193.36v-.27H98.5v.27A21.65,21.65,0,0,1,76.85,215Z" style="opacity:0.1"></path><path d="M120.14,215h0A21.64,21.64,0,0,1,98.5,193.36v-.27h43.29v.27A21.64,21.64,0,0,1,120.14,215Z" style="fill:#ebebeb"></path><path d="M163.44,215h0a21.64,21.64,0,0,1-21.65-21.64v-.27h43.3v.27A21.65,21.65,0,0,1,163.44,215Z" style="fill:#FF3048"></path><path d="M163.44,215h0a21.64,21.64,0,0,1-21.65-21.64v-.27h43.3v.27A21.65,21.65,0,0,1,163.44,215Z" style="opacity:0.1"></path><path d="M206.73,215h0a21.64,21.64,0,0,1-21.64-21.64v-.27h43.29v.27A21.64,21.64,0,0,1,206.73,215Z" style="fill:#ebebeb"></path><path d="M250,215h0a21.64,21.64,0,0,1-21.65-21.64v-.27h43.29v.27A21.64,21.64,0,0,1,250,215Z" style="fill:#FF3048"></path><path d="M250,215h0a21.64,21.64,0,0,1-21.65-21.64v-.27h43.29v.27A21.64,21.64,0,0,1,250,215Z" style="opacity:0.1"></path><path d="M293.32,215h0a21.65,21.65,0,0,1-21.65-21.64v-.27H315v.27A21.64,21.64,0,0,1,293.32,215Z" style="fill:#ebebeb"></path><path d="M336.62,215h0A21.64,21.64,0,0,1,315,193.36v-.27h43.29v.27A21.64,21.64,0,0,1,336.62,215Z" style="fill:#FF3048"></path><path d="M336.62,215h0A21.64,21.64,0,0,1,315,193.36v-.27h43.29v.27A21.64,21.64,0,0,1,336.62,215Z" style="opacity:0.1"></path><path d="M379.91,215h0a21.65,21.65,0,0,1-21.65-21.64v-.27h43.3v.27A21.64,21.64,0,0,1,379.91,215Z" style="fill:#ebebeb"></path><path d="M423.21,215h0a21.64,21.64,0,0,1-21.65-21.64v-.27h43.29v.27A21.64,21.64,0,0,1,423.21,215Z" style="fill:#FF3048"></path><path d="M423.21,215h0a21.64,21.64,0,0,1-21.65-21.64v-.27h43.29v.27A21.64,21.64,0,0,1,423.21,215Z" style="opacity:0.1"></path></g><g id="freepik--Plants--inject-59"><path d="M52.26,412.06h37s-.09-5.52-3.73-7a5,5,0,0,0-5.8,1.39s-1.49-10.13-8.27-10.13-10,8.74-10,8.74a5.2,5.2,0,0,0-5.28-2.15C52.41,403.42,52.26,412.06,52.26,412.06Z" style="fill:#37474f"></path><path d="M425.16,412.06s-1.51-7.05-4.52-8.13-4.85,2.07-4.85,2.07-.71-6.72-5-8.74-7.48,2.11-7.48,2.11-3.28-8.54-9.14-8.54-8.82,12.5-8.82,12.5-3.45-3.73-7-1.62-3.54,10.35-3.54,10.35Z" style="fill:#37474f"></path><path d="M82.66,412.06h34.15s-1.12-4.82-3.39-5.16a3.35,3.35,0,0,0-3.32,1.89s.11-6.71-4.12-7.86-7.78,4.79-7.78,4.79-2.65-3.38-6.27-3.17-4.53,5.81-4.53,5.81S84.11,406.42,82.66,412.06Z" style="fill:#455a64"></path><path d="M447.74,412.06H419.85s.06-4.16,2.81-5.26a3.73,3.73,0,0,1,4.37,1.05s1.12-7.63,6.22-7.63,7.56,6.58,7.56,6.58a3.91,3.91,0,0,1,4-1.62C447.63,405.55,447.74,412.06,447.74,412.06Z" style="fill:#455a64"></path></g><g id="freepik--Character--inject-59"><path d="M87.06,320.29s.09.34.25,1c0,.08,0,.17.07.27.15.56.34,1.3.58,2.22.06.22.12.47.18.71s.21.76.31,1.17.18.71.28,1.08c.53,2,1.15,4.39,1.87,7.17.07.27.14.55.22.83,2.1,8.06,4.93,19,8.17,31.42.2.79.41,1.59.62,2.39l.54,2.1c.22.81.42,1.62.64,2.43q1.09,4.21,2.22,8.6c.4,1.53.8,3.07,1.2,4.63,3.11,12,6.38,24.67,9.59,37.11.47,1.8.93,3.6,1.4,5.4.94,3.69,1.88,7.35,2.81,10.95v0c2,7.92,4,15.58,5.81,22.7,1.22,4.77,2.36,9.3,3.42,13.52h68.84c-7.6-28.4-20-69.66-30.06-102.57-9.17-30-16.46-53.13-16.46-53.13Z" style="fill:#37474f"></path><path d="M100.27,338.81c1.55,5.5,3.08,11,4.69,16.5q4.76,16.29,9.59,32.58,2.24,7.56,4.49,15.11,4.36,14.67,8.76,29.33c2,6.78,4.07,13.56,6.1,20.34q3.49,11.65,7,23.32H143c-1.21-3.86-2.43-7.71-3.58-11.56q-5.5-18.27-11-36.53-4.12-13.62-8.26-27.22l-.93-3.06q-4.39-14.42-8.8-28.8-2.48-8-5-16.06c-1.64-5.24-3.51-10.43-5-15.71C99.82,334.9,99.5,336.08,100.27,338.81Z" style="fill:#263238"></path><path d="M142.46,320.28c-4.34,33.58-12.61,96.52-18.64,142.19-14.1-55.33-36.77-142.19-36.77-142.19Z" style="fill:#263238"></path><path d="M53.86,476h63.23c.27-11.31.6-24.05.92-36.22v0c.38-14,.75-27.29,1-36.75.06-2,.1-3.77.15-5.38.13-4.32.22-7.27.25-8.32h0c0-.28,0-.42,0-.42l1.08-.66c2.6-1.56,5-2.88,7-4l.68-.36c2.62-1.36,4.77-2.37,6.32-3.06,1.87-.82,2.89-1.2,2.89-1.2l.21-.58c.57-1.67,1.09-3.4,1.58-5.15,6.85-23.68,8.29-53.59,8.29-53.59H62.37s-1.45,23.94-3.21,55C57.34,407.49,55.16,447.34,53.86,476Z" style="fill:#37474f"></path><path d="M62.81,476h1.06q1.89-37.61,3.11-75.25c.79-23.27,1.4-46.53,2.09-69.79,0-.33-.5-.31-.51,0-1.36,41.14-2.79,82.28-4.64,123.41C63.68,459.88,63.29,467.27,62.81,476Z" style="fill:#263238"></path><path d="M140.53,377.83a137.73,137.73,0,0,0-21.08,11c-.26.16-.06.58.22.44,7.12-3.46,14.38-6.79,21.29-10.63A.48.48,0,0,0,140.53,377.83Z" style="fill:#263238"></path><path d="M141,352.46c-.49,2.62-1.13,5.21-1.69,7.82-.53,2.44-.92,4.94-1.57,7.35a12.57,12.57,0,0,1-3.43,6.17c-1,.89-2,1.68-3,2.49-.56.44-1.15.87-1.72,1.31.07-.34.13-.7.19-1.05.18-1,.35-2,.51-3,.37-2.2.73-4.42,1.07-6.63.66-4.35,1.27-8.74,2.18-13.05a.14.14,0,0,0-.27-.06c-1.09,4.26-2.28,8.48-3.22,12.79-.47,2.11-2.12,12.52-2.19,13.26s-.14,1.53-.17,2.29a9.64,9.64,0,0,0,0,2.34c0,.19.27.16.35,0h0a9.64,9.64,0,0,0,.66-2.26c.19-.75.36-1.5.49-2.26.05-.27.09-.55.13-.83,1-.62,2-1.45,2.94-2.14s2.08-1.48,3.06-2.3A11.71,11.71,0,0,0,139,368.9a42.11,42.11,0,0,0,1.23-7.49c.33-3,.57-5.94,1-8.89C141.24,352.35,141,352.28,141,352.46Z" style="fill:#263238"></path><path d="M54.68,364.72c.27.26,101.21-7.13,102.11-8.31C158.06,354.75,128,245,119.47,228.82c-3.66-6.88-21.13-7.86-28-1.37C74.14,243.71,65,296.3,62.51,312.06,58.31,338,53.71,363.77,54.68,364.72Z" style="fill:#dbdbdb"></path><path d="M84.18,317.6c-.92,3.6-24.79,10.54-25.33,10.83S57.57,333,57.57,333s23.4.74,24.63.84S72.63,473.5,73.22,475s53.52-1,70.09-3.41,51.18-7.68,51.43-9.1-35.53-117.41-41.22-137.86-16.33-58.23-17-58.09c-.85.16-28.78.68-31.75,1.37C103.64,268.15,85.11,314,84.18,317.6Z" style="fill:#FF3048"></path><path d="M84.18,317.6c-.92,3.6-24.79,10.54-25.33,10.83S57.57,333,57.57,333s23.4.74,24.63.84S72.63,473.5,73.22,475s53.52-1,70.09-3.41,51.18-7.68,51.43-9.1-35.53-117.41-41.22-137.86-16.33-58.23-17-58.09c-.85.16-28.78.68-31.75,1.37C103.64,268.15,85.11,314,84.18,317.6Z" style="opacity:0.4"></path><path d="M137.62,271.1s-14-36.43-15.25-39.06a19.47,19.47,0,0,0-4.27-5.1l15.6,44.32Z" style="fill:#FF3048"></path><path d="M134,269.32a1.06,1.06,0,1,0,2.06-.38,1.06,1.06,0,1,0-2.06.38Z" style="fill:#263238"></path><path d="M112,272.25l-5.85.47s-8.92-28.82-10.08-34.49a67.21,67.21,0,0,0-3.71-11.55,6.35,6.35,0,0,1,4.1-2.17S101.1,237,102.67,244C104.05,250.17,112,272.25,112,272.25Z" style="fill:#FF3048"></path><path d="M107,269.85a1.41,1.41,0,1,0,1.41-1.41A1.41,1.41,0,0,0,107,269.85Z" style="fill:#263238"></path><rect x="106.15" y="341.2" width="17.64" height="9.39" transform="translate(8.89 -2.83) rotate(1.47)" style="fill:#455a64"></rect><polygon points="124.17 350.82 124.06 355.31 117.25 361.91 111.88 361.77 105.42 354.83 105.54 350.34 124.17 350.82" style="fill:#dbdbdb"></polygon><polygon points="114.64 405.86 112.24 405.8 111.88 361.77 117.25 361.91 114.64 405.86" style="fill:#dbdbdb"></polygon><polygon points="141.71 340.01 128.13 338.29 128.44 336.47 141.8 339.5 141.71 340.01" style="fill:#FF3048"></polygon><polygon points="141.4 341.84 127.81 340.12 128.13 338.29 141.49 341.32 141.4 341.84" style="fill:#FF3048"></polygon><polygon points="141.09 343.66 127.5 341.94 127.81 340.12 141.18 343.15 141.09 343.66" style="fill:#FF3048"></polygon><polygon points="140.78 345.48 127.19 343.76 127.5 341.94 140.87 344.97 140.78 345.48" style="fill:#FF3048"></polygon><polygon points="140.46 347.31 126.88 345.58 127.19 343.76 140.55 346.79 140.46 347.31" style="fill:#FF3048"></polygon><polygon points="140.15 349.13 126.56 347.41 126.88 345.58 140.24 348.61 140.15 349.13" style="fill:#FF3048"></polygon><polygon points="139.84 350.95 126.25 349.23 126.56 347.41 139.93 350.44 139.84 350.95" style="fill:#FF3048"></polygon><polygon points="139.53 352.77 125.94 351.05 126.25 349.23 139.62 352.26 139.53 352.77" style="fill:#FF3048"></polygon><polygon points="139.22 354.6 125.63 352.88 125.94 351.05 139.3 354.08 139.22 354.6" style="fill:#FF3048"></polygon><polygon points="138.9 356.42 125.31 354.7 125.63 352.88 138.99 355.91 138.9 356.42" style="fill:#FF3048"></polygon><polygon points="138.59 358.24 125 356.52 125.31 354.7 138.68 357.73 138.59 358.24" style="fill:#FF3048"></polygon><polygon points="138.28 360.07 124.69 358.34 125 356.52 138.37 359.55 138.28 360.07" style="fill:#FF3048"></polygon><polygon points="137.97 361.89 124.38 360.17 124.69 358.34 138.05 361.37 137.97 361.89" style="fill:#FF3048"></polygon><polygon points="137.65 363.71 124.07 361.99 124.38 360.17 137.74 363.2 137.65 363.71" style="fill:#FF3048"></polygon><polygon points="137.34 365.53 123.75 363.81 124.07 361.99 137.43 365.02 137.34 365.53" style="fill:#FF3048"></polygon><polygon points="137.03 367.36 123.44 365.63 123.75 363.81 137.12 366.84 137.03 367.36" style="fill:#FF3048"></polygon><polygon points="136.72 369.18 123.13 367.46 123.44 365.63 136.81 368.67 136.72 369.18" style="fill:#FF3048"></polygon><polygon points="136.4 371 122.82 369.28 123.13 367.46 136.49 370.49 136.4 371" style="fill:#FF3048"></polygon><polygon points="119.07 400.92 116.77 400.53 126.08 336.07 130.07 336.75 119.07 400.92" style="fill:#FF3048"></polygon><rect x="88.3" y="339.54" width="17.64" height="9.39" transform="translate(-48.69 17.63) rotate(-8.3)" style="fill:#455a64"></rect><polygon points="107.02 347.53 107.67 351.98 102.08 359.63 96.77 360.41 89.23 354.67 88.58 350.22 107.02 347.53" style="fill:#FF3048"></polygon><polygon points="106.96 403.39 104.59 403.73 96.77 360.41 102.08 359.63 106.96 403.39" style="fill:#FF3048"></polygon><path d="M94,371.57s15.29,3.88,36.5.06c0,0,1.58,31.82.68,33.62s-13.23,6.84-17.72,7.31-18.91-3.7-21-6.42S94,371.57,94,371.57Z" style="fill:#37474f"></path><path d="M114.84,240.61c-5.42,1.28-15.92-7.7-19.59-14.42-.25-.46.46-5.31,1-11.25.34-3.6.64-7.63.64-11.31,0-.76,2.57.63,2.57.63l4.78,1.16,15.78,3.84s-2.28,7.73-2.24,14.17a8.12,8.12,0,0,0,.16,1.51c0,.07,0,.15,0,.25C118.47,228.07,120.08,239.37,114.84,240.61Z" style="fill:#f7a9a0"></path><path d="M118,224.94c0,.07,0,.15,0,.25a14.91,14.91,0,0,1-2.38.12c-15.58-.35-17.51-20.16-17.51-20.16l6.16.27,15.78,3.84s-2.28,7.73-2.24,14.17A8.12,8.12,0,0,0,118,224.94Z" style="fill:#263238"></path><path d="M94.92,174.85c-2,2.38-9.4,3.11-13,0-5-4.36-.33-14.65,6.93-13.08S96.42,173,94.92,174.85Z" style="fill:#263238"></path><path d="M81.25,165.23a13.28,13.28,0,0,0-1.69,6.17,5.24,5.24,0,0,0,.86,2.87,5.15,5.15,0,0,0,2.32,1.83,11.76,11.76,0,0,0,3,.82,13,13,0,0,0,3.17.15,10.84,10.84,0,0,0,6-2.22A9.39,9.39,0,0,1,89,177.91a12.9,12.9,0,0,1-3.4,0,12.36,12.36,0,0,1-3.33-.85,6.18,6.18,0,0,1-2.73-2.26,5.76,5.76,0,0,1-.84-3.42A11.09,11.09,0,0,1,81.25,165.23Z" style="fill:#263238"></path><path d="M93.07,179.05c-2.08,8.33,3.47,31.77,9.57,36.74,8.85,7.22,22.71,7.23,28.69-3.26,5.79-10.17-2-40.59-8.74-45.05C112.63,160.91,96.13,166.76,93.07,179.05Z" style="fill:#f7a9a0"></path><path d="M115.69,193.08c0-.06-.11.1-.09.16.42,1.57.63,3.44-.68,4.3,0,0,0,.1,0,.08C116.64,197,116.34,194.5,115.69,193.08Z" style="fill:#263238"></path><path d="M113.9,191.75c-2.59.4-1.61,5.54.79,5.18S116.06,191.42,113.9,191.75Z" style="fill:#263238"></path><path d="M125,191.24c0-.07.14,0,.15.11.25,1.61.81,3.4,2.36,3.65a.05.05,0,0,1,0,.1C125.66,195.18,124.94,192.79,125,191.24Z" style="fill:#263238"></path><path d="M126.07,189.3c2.52-.68,3.7,4.42,1.36,5S124,189.87,126.07,189.3Z" style="fill:#263238"></path><path d="M111.42,189.79a21.26,21.26,0,0,0,1.85-1.08c.71-.43,1.32-.69,1.69-1.47a1.1,1.1,0,0,0-.43-1.28,2.72,2.72,0,0,0-2.77.24,4,4,0,0,0-2,2.15A1.19,1.19,0,0,0,111.42,189.79Z" style="fill:#263238"></path><path d="M127.56,186.33c-.73,0-1.42-.09-2.14-.14a3.49,3.49,0,0,1-2.17-.56,1.12,1.12,0,0,1-.19-1.34,2.75,2.75,0,0,1,2.59-1,4,4,0,0,1,2.71,1A1.18,1.18,0,0,1,127.56,186.33Z" style="fill:#263238"></path><path d="M117.43,207.81c.45.3.93.74,1.52.68a4.18,4.18,0,0,0,1.64-.73s.11,0,.08.07a2.17,2.17,0,0,1-1.86,1.25,1.71,1.71,0,0,1-1.52-1.17C117.25,207.83,117.37,207.77,117.43,207.81Z" style="fill:#263238"></path><path d="M118.2,202.72a5.5,5.5,0,0,0,4.08,1.72,7,7,0,0,0,2-.28l.36-.11.34-.12a.4.4,0,0,0,.25-.42h0a.75.75,0,0,0,0-.16v0l0-.13c-.2-1.24-.67-3.08-.67-3.08.49.14,3,.73,2.81.09-1.33-5.24-2.81-11.08-5.24-16a.15.15,0,0,0-.28.1c1.08,5.09,3,10,4.21,15.06a9.79,9.79,0,0,0-2.71-.29c-.17.09,1,3.55,1,4.11v.06c-2,.66-3.69.33-6-.67C118.18,202.48,118.08,202.61,118.2,202.72Z" style="fill:#263238"></path><path d="M123.41,203.68a6.61,6.61,0,0,1-2.2,2.49,2.94,2.94,0,0,1-1.74.44c-1.34-.09-1.59-1.25-1.55-2.3a6.84,6.84,0,0,1,.28-1.63A8.53,8.53,0,0,0,123.41,203.68Z" style="fill:#263238"></path><path d="M121.21,206.17a2.94,2.94,0,0,1-1.74.44c-1.34-.09-1.59-1.25-1.55-2.3A3.05,3.05,0,0,1,121.21,206.17Z" style="fill:#ff98b9"></path><path d="M96.33,204c.35-.71,5.23-10.82,6.75-15.92.84-2.81-2.12-12.67-2.19-12.9a7.28,7.28,0,0,0-3.66-3.68,17.22,17.22,0,0,0-4.17,7.55C91.77,184.22,93.43,195.22,96.33,204Z" style="fill:#263238;opacity:0.30000000000000004"></path><path d="M99.12,198.08s-5.89-7.26-9.22-5.1,1.48,12.94,5.66,14.17a4.16,4.16,0,0,0,5.39-2.63Z" style="fill:#f7a9a0"></path><path d="M91.35,196c-.06,0-.07.09,0,.11,2.94.95,4.63,3.49,5.88,6.16-.92-1-2.12-1.5-3.46-.38-.07.06,0,.17.09.14a2.55,2.55,0,0,1,2.86.69,12.56,12.56,0,0,1,1.51,2.17c.15.25.6.08.48-.21a.14.14,0,0,1,0-.06C98.49,201,95.29,196.12,91.35,196Z" style="fill:#263238"></path><path d="M94.55,172.59c-2.36,2.94,7.22,5.41,8.68,5.44s-.94-2.68-.94-2.68,5.67,4.59,9.1,5.12a23.29,23.29,0,0,0,7.17-.27l-5.22-3.7s9.62,5,14.85,4.83a15.09,15.09,0,0,1,8.79,2.51s-1.3-11.71-4.92-14.72a34.93,34.93,0,0,0-7.79-4.75l6.64-.08s-5.75-2.66-9.57-2.83-11.48,1.84-11.48,1.84l4.48-3.44s-4.91-.38-8.28,1.27a58.86,58.86,0,0,0-8.37,5.72l3-3.63s-3.33.63-4.59,2.62S94.55,172.59,94.55,172.59Z" style="fill:#263238"></path><path d="M111.24,220.16a15.65,15.65,0,0,0,8.6,1.81c3.79-.29,8.42-3.6,9.44-5.09s.89-7.23.14-10.83-1.85-5.52-5.11-6.09a12.71,12.71,0,0,0-7.27,1,8.14,8.14,0,0,0-4.65,4.49C111.52,207.64,109.36,218.88,111.24,220.16Zm5.47-16.51a4.62,4.62,0,0,1,2.61-2.38,7.49,7.49,0,0,1,4-.6c1.79.26,2.39,1.24,2.76,3.11s.46,5.39-.12,6.18-3.31,1.76-5.4,2a9.11,9.11,0,0,1-4.66-.62C114.89,210.66,116.21,204.79,116.71,203.65Z" style="fill:#263238"></path><path d="M118.18,223.81l-4.68,14-18-16.25-4.48,5.82s18.2,26.44,18.23,25.19l4.93-12.09,8.6,7.7-1.88-20.49Z" style="fill:#dbdbdb"></path><path d="M122.46,238c-.42-3.38-.75-6.79-1.33-10.14,0-.11-.21-.16-.23,0-.49,3.31,1.2,16.2,1.37,19.3l0,0c-.36-.33-8-6.75-8-6.64-1.11,1.94-4.73,10.75-5,11.54-2.87-4.2-13.86-19.44-17.21-23.37a.12.12,0,1,0-.19.13c2.58,4.46,17.14,25,17.34,24.92a132.55,132.55,0,0,0,5.15-12.78c1.3,1.42,9,8.72,9,8.21A103.66,103.66,0,0,0,122.46,238Z" style="fill:#263238"></path><path d="M103.07,236.86c26.45,15.23,69.93,53.6,71.3,64.3,1,7.74,1.14,15.39-1.86,19.44-6.1,8.27-19.4,7.65-24.14,4.85-20.72-12.27-43.46-39.84-58.4-68.79C76.86,231.26,94.45,231.9,103.07,236.86Z" style="fill:#dbdbdb"></path><path d="M162.19,284.28c-12.43-11.89-25.65-23-39-33.79l-2.7-2.14a227.69,227.69,0,0,1,21.87,16.79c6.89,6.07,13.84,12.16,19.84,19.14Z" style="fill:#263238"></path><path d="M94.34,264.7a212.93,212.93,0,0,0,41,49.93c6.26,5.53,13.18,11.4,21.94,11.42a29.26,29.26,0,0,0,12.37-2.7,22.37,22.37,0,0,1-12.35,4.43c-9.29.58-16.7-6.09-23.13-11.84-15.9-14.77-29.81-32-39.88-51.24Z" style="fill:#263238"></path><path d="M99.37,273.31a17.77,17.77,0,0,1-5.54-5.71c1.86,1.85,3.79,3.75,5.54,5.71Z" style="fill:#263238"></path><path d="M113.53,243.5C107,239,86.84,226.4,86.3,241.92c.31,7,3.36,13.57,6.36,19.79-3.56-6-6.89-12.64-7.27-19.78-.29-3.76,1.79-7.84,5.85-8.3,7.88-.8,16.34,5.27,22.29,9.87Z" style="fill:#37474f"></path><path d="M112.18,275.64c-4.08,3.71-2.09,8.54-2,9.23s0,.88-.31,1.16a24.17,24.17,0,0,0-5.57,8.12l-30.55,28,.53.54c15.09-6.8,31.72-22.45,31.72-22.45a13.94,13.94,0,0,1,1.93-8.08c1.56-2.32,4.26-5.13,5.14-5.26s4,.51,7.2-1.28c.23-.13.56.4.86.33a6,6,0,0,0,1.84-1.86c.06-.22-.39-.38-.35-.87a6.63,6.63,0,0,0,.14-6.16C121.52,273.92,116.2,272,112.18,275.64Zm4,.07a4.53,4.53,0,0,1,5.35,4.05c.24,2.46-1.46,4.51-4.29,5.11a4.4,4.4,0,0,1-5.53-3.83C111.37,278.29,114,276,116.18,275.71Z" style="fill:#37474f"></path><path d="M106.3,296.28l-5.6,1.18L90,307.31l10.19-1.91c3.59-3,5.84-5.13,5.84-5.13A11.49,11.49,0,0,1,106.3,296.28Z" style="fill:#263238"></path><path d="M74.87,322.06c1.39-.68,2.75-1.43,4.1-2.18s2.68-1.57,4-2.39q3.95-2.46,7.71-5.21c2.49-1.84,5-3.74,7.3-5.76.58-.5,1.19-1,1.76-1.52l1.72-1.55c.58-.52,1.14-1.06,1.69-1.6l1.67-1.61c-2.3,2.07-4.6,4.15-7,6.1S93,310.2,90.48,312s-5,3.58-7.65,5.26S77.59,320.57,74.87,322.06Z" style="fill:#455a64"></path><path d="M104.76,297.26s-22.23,5.22-36.23,14.06l.16.73,40.23-10a24.27,24.27,0,0,0,9.85-.16c.39-.08.61-.07,1.14.38s3.48,4.55,8.8,3.43,5.52-5.69,7.49-6.1a5.28,5.28,0,0,1,5.21,1.31c1.79,1.55,2.87-.14,1.42-1.51a8.68,8.68,0,0,0-5.31-2.14c-1.46,0-2.36.63-3.73-1.27a7.42,7.42,0,0,0-7.22-3.14c-4.3.57-6.2,5.21-6.78,5.87s-4.43,1.37-7.22,1.39A13.87,13.87,0,0,1,104.76,297.26Zm22.26-2.5a4.53,4.53,0,0,1,5.35,4.05c.24,2.46-1.46,4.5-4.28,5.1a4.41,4.41,0,0,1-5.54-3.83C122.22,297.33,124.8,295.07,127,294.76Z" style="fill:#455a64"></path><path d="M101.43,301.45a1.18,1.18,0,1,1-2.29-.53,1.18,1.18,0,1,1,2.29.53Z" style="fill:#c7c7c7"></path><path d="M101.1,301.38a.84.84,0,0,1-1,.62.83.83,0,0,1,.37-1.62A.84.84,0,0,1,101.1,301.38Z" style="fill:#ebebeb"></path><path d="M69.07,311.53c1.41-.72,2.82-1.42,4.25-2.1s2.86-1.33,4.3-2c2.88-1.28,5.79-2.51,8.73-3.64,1.46-.6,3-1.13,4.42-1.69s3-1.06,4.47-1.54l2.25-.74,2.27-.69,1.13-.35,1.14-.32,2.28-.64c-3.08.73-6.13,1.53-9.14,2.51L94,300.7l-1.12.38-2.25.77c-1.48.55-3,1.07-4.44,1.66-2.94,1.16-5.85,2.39-8.71,3.72S71.82,310,69.07,311.53Z" style="fill:#263238"></path><path d="M133.71,296.61a7.51,7.51,0,0,0-2.82-2.8A6.74,6.74,0,0,0,127,293a6.6,6.6,0,0,0-3.67,1.62,11.87,11.87,0,0,0-2.52,3.16c-.17.28-.32.6-.49.83a2.09,2.09,0,0,1-.75.55,9,9,0,0,1-1.86.61,27.4,27.4,0,0,1-3.94.51,13.39,13.39,0,0,1-3.94-.32,11.14,11.14,0,0,1-3.71-1.41,7.88,7.88,0,0,0,1.76.95,15.76,15.76,0,0,0,1.91.62,13.75,13.75,0,0,0,4,.41,23.37,23.37,0,0,0,4-.48,9.09,9.09,0,0,0,1.94-.61,2.45,2.45,0,0,0,.85-.63,9.34,9.34,0,0,0,.53-.88,11.74,11.74,0,0,1,2.42-3.09,6.55,6.55,0,0,1,3.51-1.6,6.48,6.48,0,0,1,3.82.68A7.57,7.57,0,0,1,133.71,296.61Z" style="fill:#263238"></path><path d="M155.17,268c-14.56-6.16-19.48-4.68-23.64-2.95-8.68,3.63-21.61,13.14-18.28,19.21,3,5.49,21.14-10.56,21.14-10.56S113.2,287,118,293s24.83-13.89,24.83-13.89-21.46,14.17-15.5,19.52c4.5,4,23.62-12.91,23.62-12.91S132.63,298,137.08,302.35c4.92,4.81,23.55-9.72,23.55-9.72,3.42.79,7.65,1.24,8.72.83C171,292.84,165,272.15,155.17,268Z" style="fill:#f7a9a0"></path><path d="M141.43,268.63c-2.55,1.48-5.14,2.95-7.54,4.65s-4.76,3.47-7,5.39a50.29,50.29,0,0,0-8,8.26c4.55-5.11,13.07-11.31,15.48-13s4.71-3.5,7.11-5.2C141.55,268.68,141.49,268.6,141.43,268.63Z" style="fill:#263238"></path><path d="M147.71,277.21c-3.17,2-6.39,3.91-9.47,6.08s-5.79,4.46-8.7,6.82c-.22.18,0,.24.18.07,3-2.24,5.95-4.08,9-6.28s6-4.53,9.06-6.62C147.81,277.25,147.75,277.18,147.71,277.21Z" style="fill:#263238"></path><path d="M154.42,283.6A84.34,84.34,0,0,0,140.65,294c-.21.19,0,.25.25.07,4.51-3.55,8-6.36,13.62-10.3C154.61,283.71,154.52,283.54,154.42,283.6Z" style="fill:#263238"></path></g></svg>
